<svg xmlns="http://www.w3.org/2000/svg" xmlns:xlink="http://www.w3.org/1999/xlink" width="51" height="45"><defs><path id="a" d="M0 0h2.647v2.647H0z"/><path id="c" d="M0 0h2.647v2.647H0z"/><path id="e" d="M0 0h2.647v2.647H0z"/><path id="g" d="M0 0h2.647v2.647H0z"/><path id="i" d="M0 0h2.647v2.647H0z"/><path id="k" d="M0 0h2.647v2.647H0z"/><path id="m" d="M0 0h2.647v2.647H0z"/><path id="o" d="M0 0h2.647v2.647H0z"/><path id="q" d="M0 0h2.647v2.647H0z"/><path id="s" d="M0 0h2.647v2.647H0z"/><path id="u" d="M0 0h2.647v2.647H0z"/><path id="w" d="M0 0h2.647v2.647H0z"/><path id="y" d="M0 0h2.647v2.647H0z"/><path id="A" d="M0 0h2.647v2.647H0z"/><path id="C" d="M0 0h2.647v2.647H0z"/><path id="E" d="M0 0h2.647v2.647H0z"/><path id="G" d="M0 0h2.647v2.647H0z"/><path id="I" d="M0 0h2.647v2.647H0z"/></defs><g fill="none" fill-rule="evenodd"><g><mask id="b" fill="#fff"><use xlink:href="#a"/></mask><path fill="#FF5553" d="M1.399.002a1.324 1.324 0 00-.151 2.643l.076.002A1.325 1.325 0 002.311.443a1.31 1.31 0 00-.912-.44" mask="url(#b)"/></g><g transform="translate(5.294)"><mask id="d" fill="#fff"><use xlink:href="#c"/></mask><path fill="#FF5553" d="M1.399.002a1.324 1.324 0 00-.151 2.643l.076.002A1.325 1.325 0 002.311.443a1.31 1.31 0 00-.912-.44" mask="url(#d)"/></g><g transform="translate(10.588)"><mask id="f" fill="#fff"><use xlink:href="#e"/></mask><path fill="#FF5553" d="M1.399.002a1.324 1.324 0 00-.151 2.643l.076.002A1.325 1.325 0 002.311.443a1.31 1.31 0 00-.912-.44" mask="url(#f)"/></g><g transform="translate(15.882)"><mask id="h" fill="#fff"><use xlink:href="#g"/></mask><path fill="#FF5553" d="M1.399.002a1.324 1.324 0 00-.151 2.643l.076.002A1.325 1.325 0 002.311.443a1.31 1.31 0 00-.912-.44" mask="url(#h)"/></g><g transform="translate(21.177)"><mask id="j" fill="#fff"><use xlink:href="#i"/></mask><path fill="#FF5553" d="M1.399.002a1.324 1.324 0 00-.151 2.643l.076.002A1.325 1.325 0 002.311.443a1.31 1.31 0 00-.912-.44" mask="url(#j)"/></g><g transform="translate(26.47)"><mask id="l" fill="#fff"><use xlink:href="#k"/></mask><path fill="#FF5553" d="M1.399.002a1.324 1.324 0 00-.151 2.643l.076.002A1.325 1.325 0 002.311.443a1.31 1.31 0 00-.912-.44" mask="url(#l)"/></g><g transform="translate(31.765)"><mask id="n" fill="#fff"><use xlink:href="#m"/></mask><path fill="#FF5553" d="M1.399.002a1.324 1.324 0 00-.151 2.643l.076.002A1.325 1.325 0 002.311.443a1.31 1.31 0 00-.912-.44" mask="url(#n)"/></g><g transform="translate(37.059)"><mask id="p" fill="#fff"><use xlink:href="#o"/></mask><path fill="#FF5553" d="M1.399.002a1.324 1.324 0 00-.151 2.643l.076.002A1.325 1.325 0 002.311.443a1.31 1.31 0 00-.912-.44" mask="url(#p)"/></g><g transform="translate(42.353)"><mask id="r" fill="#fff"><use xlink:href="#q"/></mask><path fill="#FF5553" d="M1.399.002a1.324 1.324 0 00-.151 2.643l.076.002A1.325 1.325 0 002.311.443a1.31 1.31 0 00-.912-.44" mask="url(#r)"/></g><g transform="translate(47.647)"><mask id="t" fill="#fff"><use xlink:href="#s"/></mask><path fill="#FF5553" d="M1.399.002a1.324 1.324 0 00-.151 2.643l.076.002A1.325 1.325 0 002.311.443a1.31 1.31 0 00-.912-.44" mask="url(#t)"/></g><path fill="#FF5553" d="M1.399 5.296A1.324 1.324 0 101.25 7.94l.075.002a1.325 1.325 0 00.987-2.204 1.308 1.308 0 00-.912-.44m5.293-.002a1.324 1.324 0 00-.15 2.643l.075.002a1.324 1.324 0 00.075-2.644m5.294-.001a1.323 1.323 0 10-.15 2.643l.076.002a1.324 1.324 0 00.074-2.644m5.294-.001a1.323 1.323 0 10-.15 2.643l.076.002a1.324 1.324 0 00.074-2.644m5.294-.001a1.323 1.323 0 00-.15 2.643l.076.002a1.324 1.324 0 00.074-2.644m5.295-.001a1.324 1.324 0 00-.151 2.643l.076.002a1.324 1.324 0 00.075-2.644m5.294-.001a1.324 1.324 0 00-.151 2.643l.076.002a1.324 1.324 0 00.075-2.644m5.294-.001a1.324 1.324 0 00-.151 2.643l.076.002a1.325 1.325 0 00.987-2.204 1.31 1.31 0 00-.912-.44m5.294-.001a1.324 1.324 0 00-.15 2.643l.075.002a1.325 1.325 0 00.987-2.204 1.308 1.308 0 00-.912-.44"/><g transform="translate(47.647 5.294)"><mask id="v" fill="#fff"><use xlink:href="#u"/></mask><path fill="#FF5553" d="M1.399.002a1.324 1.324 0 00-.151 2.643l.076.002A1.325 1.325 0 002.311.443a1.314 1.314 0 00-.912-.44" mask="url(#v)"/></g><path fill="#FF5553" d="M1.399 10.59a1.325 1.325 0 00-.15 2.643l.075.002a1.325 1.325 0 00.987-2.204 1.312 1.312 0 00-.912-.44m5.294-.001a1.325 1.325 0 00-.15 2.643l.075.002a1.324 1.324 0 00.075-2.644m5.294-.001a1.323 1.323 0 10-.15 2.643l.076.002a1.324 1.324 0 00.074-2.644m5.294-.001a1.323 1.323 0 10-.15 2.643l.076.002a1.324 1.324 0 00.074-2.644m5.294-.001a1.324 1.324 0 00-.15 2.643l.076.002a1.324 1.324 0 00.074-2.644m5.295-.001a1.324 1.324 0 00-.151 2.643l.076.002a1.324 1.324 0 00.075-2.644m5.294-.001a1.324 1.324 0 00-.151 2.643l.076.002a1.324 1.324 0 00.075-2.644m5.294-.001a1.325 1.325 0 00-.151 2.643l.076.002a1.325 1.325 0 00.987-2.204 1.314 1.314 0 00-.912-.44m5.294-.001a1.325 1.325 0 00-.15 2.643l.075.002a1.325 1.325 0 00.987-2.204 1.312 1.312 0 00-.912-.44"/><g transform="translate(47.647 10.588)"><mask id="x" fill="#fff"><use xlink:href="#w"/></mask><path fill="#FF5553" d="M1.399.002a1.324 1.324 0 00-.151 2.643l.076.002A1.325 1.325 0 002.311.443a1.314 1.314 0 00-.912-.44" mask="url(#x)"/></g><path fill="#FF5553" d="M1.399 15.884a1.325 1.325 0 00-.15 2.643l.075.002a1.324 1.324 0 00.987-2.204 1.312 1.312 0 00-.912-.44m5.294-.001a1.325 1.325 0 00-.15 2.643l.075.002a1.324 1.324 0 00.075-2.644m5.294-.001a1.323 1.323 0 10-.15 2.643l.076.002a1.324 1.324 0 00.074-2.644m5.294-.001a1.323 1.323 0 10-.15 2.643l.076.002a1.324 1.324 0 00.074-2.644m5.294-.001a1.324 1.324 0 00-.15 2.643l.076.002a1.324 1.324 0 00.074-2.644m5.295-.001a1.324 1.324 0 00-.151 2.643l.076.002a1.324 1.324 0 00.075-2.644m5.294-.001a1.324 1.324 0 00-.151 2.643l.076.002a1.324 1.324 0 00.075-2.644m5.294-.001a1.325 1.325 0 00-.151 2.643l.076.002a1.324 1.324 0 00.987-2.204 1.314 1.314 0 00-.912-.44m5.294-.001a1.325 1.325 0 00-.15 2.643l.075.002a1.324 1.324 0 00.987-2.204 1.312 1.312 0 00-.912-.44"/><g transform="translate(47.647 15.882)"><mask id="z" fill="#fff"><use xlink:href="#y"/></mask><path fill="#FF5553" d="M1.399.002a1.324 1.324 0 00-.151 2.643l.076.002A1.325 1.325 0 002.311.443a1.314 1.314 0 00-.912-.44" mask="url(#z)"/></g><path fill="#FF5553" d="M1.399 21.179a1.323 1.323 0 10-.15 2.642l.075.002a1.324 1.324 0 00.987-2.204 1.312 1.312 0 00-.912-.44m5.294 0a1.323 1.323 0 10-.15 2.642l.075.002a1.324 1.324 0 00.075-2.644m5.294 0a1.324 1.324 0 00-.15 2.642l.076.002a1.324 1.324 0 00.074-2.644m5.294 0a1.324 1.324 0 00-.15 2.642l.076.002a1.324 1.324 0 00.074-2.644m5.294 0a1.322 1.322 0 10-.15 2.642l.076.002a1.324 1.324 0 00.074-2.644m5.295 0a1.322 1.322 0 10-.151 2.642l.076.002a1.324 1.324 0 00.075-2.644m5.294 0a1.322 1.322 0 10-.151 2.642l.076.002a1.324 1.324 0 00.075-2.644m5.294 0a1.323 1.323 0 10-.151 2.642l.076.002a1.324 1.324 0 00.987-2.204 1.314 1.314 0 00-.912-.44m5.294 0a1.323 1.323 0 10-.15 2.642l.075.002a1.324 1.324 0 00.987-2.204 1.312 1.312 0 00-.912-.44"/><g transform="translate(47.647 21.176)"><mask id="B" fill="#fff"><use xlink:href="#A"/></mask><path fill="#FF5553" d="M1.399.002a1.324 1.324 0 00-.151 2.643l.076.002A1.325 1.325 0 002.311.443a1.314 1.314 0 00-.912-.44" mask="url(#B)"/></g><path fill="#FF5553" d="M1.399 26.473a1.323 1.323 0 10-.15 2.642l.075.003a1.325 1.325 0 00.987-2.205 1.312 1.312 0 00-.912-.44m5.294 0a1.323 1.323 0 10-.15 2.642l.075.003a1.325 1.325 0 00.075-2.645m5.294 0a1.324 1.324 0 10-.149 2.64 1.324 1.324 0 00.149-2.64m5.294 0a1.324 1.324 0 10-.149 2.64 1.324 1.324 0 00.149-2.64m5.294 0a1.322 1.322 0 10-.15 2.642 1.324 1.324 0 00.15-2.642m5.295 0a1.322 1.322 0 10-.151 2.642l.076.003a1.324 1.324 0 00.075-2.645m5.294 0a1.322 1.322 0 10-.151 2.642l.076.003a1.324 1.324 0 00.075-2.645m5.294 0a1.323 1.323 0 10-.151 2.642l.076.003a1.325 1.325 0 00.987-2.205 1.314 1.314 0 00-.912-.44m5.294 0a1.323 1.323 0 10-.15 2.642l.075.003a1.325 1.325 0 00.987-2.205 1.312 1.312 0 00-.912-.44"/><g transform="translate(47.647 26.47)"><mask id="D" fill="#fff"><use xlink:href="#C"/></mask><path fill="#FF5553" d="M1.399.002a1.324 1.324 0 00-.151 2.643l.076.002A1.325 1.325 0 002.311.443a1.314 1.314 0 00-.912-.44" mask="url(#D)"/></g><path fill="#FF5553" d="M1.399 31.767a1.323 1.323 0 10-.15 2.643l.075.002a1.325 1.325 0 00.987-2.205 1.312 1.312 0 00-.912-.44m5.294 0a1.323 1.323 0 10-.15 2.643l.075.002a1.325 1.325 0 00.075-2.645m5.294 0a1.322 1.322 0 00-1.396 1.246 1.325 1.325 0 001.246 1.397l.076.002a1.324 1.324 0 00.074-2.645m5.294 0a1.322 1.322 0 00-1.396 1.246 1.325 1.325 0 001.246 1.397l.076.002a1.324 1.324 0 00.074-2.645m5.294 0a1.322 1.322 0 00-1.396 1.246 1.326 1.326 0 001.246 1.397l.076.002a1.324 1.324 0 00.074-2.645m5.295 0a1.322 1.322 0 10-.151 2.643l.076.002a1.324 1.324 0 00.075-2.645m5.294 0a1.322 1.322 0 10-.151 2.643l.076.002a1.324 1.324 0 00.075-2.645m5.294 0a1.323 1.323 0 10-.151 2.643l.076.002a1.325 1.325 0 00.987-2.205 1.314 1.314 0 00-.912-.44m5.294 0a1.323 1.323 0 10-.15 2.643l.075.002a1.325 1.325 0 00.987-2.205 1.312 1.312 0 00-.912-.44"/><g transform="translate(47.647 31.765)"><mask id="F" fill="#fff"><use xlink:href="#E"/></mask><path fill="#FF5553" d="M1.399.002a1.324 1.324 0 00-.151 2.643l.076.002A1.325 1.325 0 002.311.443a1.314 1.314 0 00-.912-.44" mask="url(#F)"/></g><path fill="#FF5553" d="M1.399 37.06a1.326 1.326 0 00-1.397 1.247 1.326 1.326 0 001.247 1.397l.075.002a1.325 1.325 0 00.987-2.205 1.312 1.312 0 00-.912-.44m5.294-.001a1.326 1.326 0 00-1.397 1.247 1.326 1.326 0 001.247 1.397l.075.002a1.325 1.325 0 00.075-2.645m5.294-.001a1.324 1.324 0 00-.15 2.644l.076.002a1.324 1.324 0 00.074-2.645m5.294-.001a1.324 1.324 0 00-.15 2.644l.076.002a1.324 1.324 0 00.074-2.645m5.294-.001a1.325 1.325 0 00-.15 2.644l.076.002a1.324 1.324 0 00.074-2.645m5.295-.001a1.325 1.325 0 00-.151 2.644l.076.002a1.324 1.324 0 00.075-2.645m5.294-.001a1.325 1.325 0 00-.151 2.644l.076.002a1.324 1.324 0 00.075-2.645m5.294-.001a1.325 1.325 0 00-.151 2.644l.076.002a1.325 1.325 0 00.987-2.205 1.314 1.314 0 00-.912-.44m5.294-.001a1.326 1.326 0 00-1.397 1.247 1.326 1.326 0 001.247 1.397l.075.002a1.325 1.325 0 00.987-2.205 1.312 1.312 0 00-.912-.44"/><g transform="translate(47.647 37.059)"><mask id="H" fill="#fff"><use xlink:href="#G"/></mask><path fill="#FF5553" d="M1.399.002a1.324 1.324 0 00-.151 2.643l.076.002A1.325 1.325 0 002.311.443a1.314 1.314 0 00-.912-.44" mask="url(#H)"/></g><path fill="#FF5553" d="M1.399 42.355a1.324 1.324 0 10-.15 2.643l.075.002a1.325 1.325 0 00.987-2.205 1.312 1.312 0 00-.912-.44m5.294 0a1.324 1.324 0 10-.15 2.643l.075.002a1.325 1.325 0 00.075-2.645m5.294 0a1.325 1.325 0 00-.15 2.643l.076.002a1.324 1.324 0 00.074-2.645m5.294 0a1.325 1.325 0 00-.15 2.643l.076.002a1.324 1.324 0 00.074-2.645m5.294 0a1.323 1.323 0 10-.15 2.643l.076.002a1.324 1.324 0 00.074-2.645m5.295 0a1.323 1.323 0 10-.151 2.643l.076.002a1.324 1.324 0 00.075-2.645m5.294 0a1.323 1.323 0 10-.151 2.643l.076.002a1.324 1.324 0 00.075-2.645m5.294 0a1.324 1.324 0 00-.151 2.643l.076.002a1.325 1.325 0 00.987-2.205 1.314 1.314 0 00-.912-.44m5.294 0a1.324 1.324 0 10-.15 2.643l.075.002a1.325 1.325 0 00.987-2.205 1.312 1.312 0 00-.912-.44"/><g transform="translate(47.647 42.353)"><mask id="J" fill="#fff"><use xlink:href="#I"/></mask><path fill="#FF5553" d="M1.399.002a1.324 1.324 0 00-.151 2.643l.076.002A1.325 1.325 0 002.311.443a1.314 1.314 0 00-.912-.44" mask="url(#J)"/></g><path fill="#0033AD" d="M3.195 22.5l3.423 3.423L10.04 22.5l-3.422-3.423L3.195 22.5zm3.423 6.618c-.34 0-.677-.13-.936-.388L.388 23.436a1.324 1.324 0 010-1.872l5.294-5.294a1.322 1.322 0 011.871 0l5.294 5.294a1.324 1.324 0 010 1.872L7.553 28.73a1.32 1.32 0 01-.935.388zM34.96 22.5l3.422 3.423 3.423-3.423-3.423-3.423L34.96 22.5zm3.422 6.618c-.338 0-.677-.13-.936-.388l-5.294-5.294a1.325 1.325 0 010-1.872l5.294-5.294a1.324 1.324 0 011.872 0l5.294 5.294a1.324 1.324 0 010 1.872l-5.294 5.294a1.322 1.322 0 01-.936.388zm-19.305-22.5L22.5 10.04l3.423-3.422L22.5 3.195l-3.423 3.423zm3.423 6.617c-.339 0-.677-.129-.936-.387L16.27 7.554a1.324 1.324 0 010-1.872L21.564.388a1.322 1.322 0 011.871 0l5.295 5.294a1.324 1.324 0 010 1.872l-5.295 5.294a1.319 1.319 0 01-.935.387zm-3.423 25.147l3.423 3.423 3.423-3.423L22.5 34.96l-3.423 3.422zM22.5 45c-.339 0-.677-.13-.936-.388l-5.294-5.294a1.324 1.324 0 010-1.872l5.294-5.294a1.324 1.324 0 011.871 0l5.295 5.294a1.324 1.324 0 010 1.872l-5.295 5.294A1.316 1.316 0 0122.5 45zM6.618 13.235a1.323 1.323 0 01-1.324-1.323V6.618c0-.731.592-1.324 1.324-1.324h5.294a1.324 1.324 0 010 2.647h-3.97v3.97c0 .732-.593 1.324-1.324 1.324m31.764 0c-.73 0-1.323-.592-1.323-1.323v-3.97h-3.97a1.324 1.324 0 01-.001-2.648h5.294c.731 0 1.324.593 1.324 1.324v5.294c0 .73-.593 1.323-1.324 1.323m0 26.471h-5.294a1.323 1.323 0 010-2.647h3.97v-3.97a1.324 1.324 0 012.648-.001v5.294c0 .731-.593 1.324-1.324 1.324m-26.47 0H6.618a1.324 1.324 0 01-1.324-1.324v-5.294a1.323 1.323 0 012.647 0v3.97h3.97a1.324 1.324 0 01.001 2.648"/></g></svg>