<svg xmlns="http://www.w3.org/2000/svg" xmlns:xlink="http://www.w3.org/1999/xlink" width="51" height="45"><defs><path id="a" d="M0 0h2.647v2.647H0z"/><path id="c" d="M0 0h2.647v2.647H0z"/><path id="e" d="M0 0h2.647v2.647H0z"/><path id="g" d="M0 0h2.647v2.647H0z"/><path id="i" d="M0 0h2.647v2.647H0z"/><path id="k" d="M0 0h2.647v2.647H0z"/><path id="m" d="M0 0h2.647v2.647H0z"/><path id="o" d="M0 0h2.647v2.647H0z"/><path id="q" d="M0 0h2.647v2.647H0z"/><path id="s" d="M0 0h2.647v2.647H0z"/><path id="u" d="M0 0h2.647v2.647H0z"/><path id="w" d="M0 0h2.647v2.647H0z"/><path id="y" d="M0 0h2.647v2.647H0z"/><path id="A" d="M0 0h2.647v2.647H0z"/><path id="C" d="M0 0h2.647v2.647H0z"/><path id="E" d="M0 0h2.647v2.647H0z"/><path id="G" d="M0 0h2.647v2.647H0z"/><path id="I" d="M0 0h2.647v2.647H0z"/><path id="K" d="M0 45h50.294V0H0z"/></defs><g fill="none" fill-rule="evenodd"><mask id="b" fill="#fff"><use xlink:href="#a"/></mask><path fill="#FF5553" d="M1.399.002a1.324 1.324 0 00-.151 2.643l.076.002A1.325 1.325 0 002.311.443a1.31 1.31 0 00-.912-.44" mask="url(#b)"/><g transform="translate(5.294)"><mask id="d" fill="#fff"><use xlink:href="#c"/></mask><path fill="#FF5553" d="M1.399.002a1.324 1.324 0 00-.151 2.643l.076.002A1.325 1.325 0 002.311.443a1.31 1.31 0 00-.912-.44" mask="url(#d)"/></g><g transform="translate(10.588)"><mask id="f" fill="#fff"><use xlink:href="#e"/></mask><path fill="#FF5553" d="M1.399.002a1.324 1.324 0 00-.151 2.643l.076.002A1.325 1.325 0 002.311.443a1.31 1.31 0 00-.912-.44" mask="url(#f)"/></g><g transform="translate(15.883)"><mask id="h" fill="#fff"><use xlink:href="#g"/></mask><path fill="#FF5553" d="M1.399.002a1.324 1.324 0 00-.151 2.643l.076.002A1.325 1.325 0 002.311.443a1.31 1.31 0 00-.912-.44" mask="url(#h)"/></g><g transform="translate(21.177)"><mask id="j" fill="#fff"><use xlink:href="#i"/></mask><path fill="#FF5553" d="M1.399.002a1.324 1.324 0 00-.151 2.643l.076.002A1.325 1.325 0 002.311.443a1.31 1.31 0 00-.912-.44" mask="url(#j)"/></g><g transform="translate(26.47)"><mask id="l" fill="#fff"><use xlink:href="#k"/></mask><path fill="#FF5553" d="M1.399.002a1.324 1.324 0 00-.151 2.643l.076.002A1.325 1.325 0 002.311.443a1.31 1.31 0 00-.912-.44" mask="url(#l)"/></g><g transform="translate(31.765)"><mask id="n" fill="#fff"><use xlink:href="#m"/></mask><path fill="#FF5553" d="M1.399.002a1.324 1.324 0 00-.151 2.643l.076.002A1.325 1.325 0 002.311.443a1.31 1.31 0 00-.912-.44" mask="url(#n)"/></g><g transform="translate(37.06)"><mask id="p" fill="#fff"><use xlink:href="#o"/></mask><path fill="#FF5553" d="M1.399.002a1.324 1.324 0 00-.151 2.643l.076.002A1.325 1.325 0 002.311.443a1.31 1.31 0 00-.912-.44" mask="url(#p)"/></g><g transform="translate(42.353)"><mask id="r" fill="#fff"><use xlink:href="#q"/></mask><path fill="#FF5553" d="M1.399.002a1.324 1.324 0 00-.151 2.643l.076.002A1.325 1.325 0 002.311.443a1.31 1.31 0 00-.912-.44" mask="url(#r)"/></g><g transform="translate(47.647)"><mask id="t" fill="#fff"><use xlink:href="#s"/></mask><path fill="#FF5553" d="M1.399.002a1.324 1.324 0 00-.151 2.643l.076.002A1.325 1.325 0 002.311.443a1.31 1.31 0 00-.912-.44" mask="url(#t)"/></g><path fill="#FF5553" d="M1.399 5.296A1.324 1.324 0 101.25 7.94l.075.002A1.324 1.324 0 001.4 5.298m5.293-.002a1.323 1.323 0 10-.15 2.643l.075.002a1.324 1.324 0 00.075-2.644m5.294-.001a1.323 1.323 0 10-.15 2.643l.076.002a1.324 1.324 0 00.074-2.644m5.294-.001a1.323 1.323 0 00-.15 2.643l.076.002a1.324 1.324 0 00.074-2.644m5.294-.001a1.323 1.323 0 00-.15 2.643l.076.002a1.324 1.324 0 00.074-2.644m5.295-.001a1.324 1.324 0 00-.151 2.643l.076.002a1.324 1.324 0 00.075-2.644m5.294-.001a1.324 1.324 0 00-.151 2.643l.076.002a1.325 1.325 0 00.987-2.204 1.31 1.31 0 00-.912-.44m5.294-.001a1.324 1.324 0 00-.151 2.643l.076.002a1.325 1.325 0 00.987-2.204 1.308 1.308 0 00-.912-.44m5.294-.001a1.324 1.324 0 00-.15 2.643l.075.002a1.324 1.324 0 00.075-2.644"/><g transform="translate(47.647 5.294)"><mask id="v" fill="#fff"><use xlink:href="#u"/></mask><path fill="#FF5553" d="M1.399.002a1.324 1.324 0 00-.151 2.643l.076.002A1.325 1.325 0 002.311.443a1.314 1.314 0 00-.912-.44" mask="url(#v)"/></g><path fill="#FF5553" d="M1.399 10.59a1.325 1.325 0 00-.15 2.643l.075.002a1.324 1.324 0 00.075-2.644m5.294-.001a1.323 1.323 0 10-.15 2.643l.075.002a1.324 1.324 0 00.075-2.644m5.294-.001a1.323 1.323 0 10-.15 2.643l.076.002a1.324 1.324 0 00.074-2.644m5.294-.001a1.324 1.324 0 00-.15 2.643l.076.002a1.324 1.324 0 00.074-2.644m5.294-.001a1.324 1.324 0 00-.15 2.643l.076.002a1.324 1.324 0 00.074-2.644m5.295-.001a1.324 1.324 0 00-.151 2.643l.076.002a1.324 1.324 0 00.075-2.644m5.294-.001a1.324 1.324 0 00-.151 2.643l.076.002a1.325 1.325 0 00.987-2.204 1.314 1.314 0 00-.912-.44"/><path fill="#0033AD" d="M38.458 10.59a1.325 1.325 0 00-.151 2.643l.076.002a1.325 1.325 0 00.987-2.204 1.312 1.312 0 00-.912-.44m5.294-.001a1.325 1.325 0 00-.15 2.643l.075.002a1.324 1.324 0 00.075-2.644"/><g transform="translate(47.647 10.588)"><mask id="x" fill="#fff"><use xlink:href="#w"/></mask><path fill="#FF5553" d="M1.399.002a1.324 1.324 0 00-.151 2.643l.076.002A1.325 1.325 0 002.311.443a1.314 1.314 0 00-.912-.44" mask="url(#x)"/></g><path fill="#FF5553" d="M1.399 15.884a1.325 1.325 0 00-.15 2.643l.075.002a1.324 1.324 0 00.075-2.644m5.294-.001a1.323 1.323 0 10-.15 2.643l.075.002a1.324 1.324 0 00.075-2.644m5.294-.001a1.323 1.323 0 10-.15 2.643l.076.002a1.324 1.324 0 00.074-2.644m5.294-.001a1.324 1.324 0 00-.15 2.643l.076.002a1.324 1.324 0 00.074-2.644m5.294-.001a1.324 1.324 0 00-.15 2.643l.076.002a1.324 1.324 0 00.074-2.644m5.295-.001a1.324 1.324 0 00-.151 2.643l.076.002a1.324 1.324 0 00.075-2.644m5.294-.001a1.324 1.324 0 00-.151 2.643l.076.002a1.324 1.324 0 00.987-2.204 1.314 1.314 0 00-.912-.44m5.294-.001a1.325 1.325 0 00-.151 2.643l.076.002a1.324 1.324 0 00.987-2.204 1.312 1.312 0 00-.912-.44m5.294-.001a1.325 1.325 0 00-.15 2.643l.075.002a1.324 1.324 0 00.075-2.644"/><g transform="translate(47.647 15.882)"><mask id="z" fill="#fff"><use xlink:href="#y"/></mask><path fill="#FF5553" d="M1.399.002a1.324 1.324 0 00-.151 2.643l.076.002A1.325 1.325 0 002.311.443a1.314 1.314 0 00-.912-.44" mask="url(#z)"/></g><path fill="#FF5553" d="M1.399 21.179a1.323 1.323 0 10-.15 2.642l.075.002a1.324 1.324 0 00.075-2.644m5.294 0a1.324 1.324 0 00-.15 2.642l.075.002a1.324 1.324 0 00.075-2.644m5.294 0a1.324 1.324 0 00-.15 2.642l.076.002a1.324 1.324 0 00.074-2.644m5.294 0a1.322 1.322 0 10-.15 2.642l.076.002a1.324 1.324 0 00.074-2.644m5.294 0a1.322 1.322 0 10-.15 2.642l.076.002a1.324 1.324 0 00.074-2.644m5.295 0a1.322 1.322 0 10-.151 2.642l.076.002a1.324 1.324 0 00.075-2.644m5.294 0a1.322 1.322 0 10-.151 2.642l.076.002a1.324 1.324 0 00.987-2.204 1.314 1.314 0 00-.912-.44m5.294 0a1.323 1.323 0 10-.151 2.642l.076.002a1.324 1.324 0 00.987-2.204 1.312 1.312 0 00-.912-.44m5.294 0a1.323 1.323 0 10-.15 2.642l.075.002a1.324 1.324 0 00.075-2.644"/><g transform="translate(47.647 21.176)"><mask id="B" fill="#fff"><use xlink:href="#A"/></mask><path fill="#FF5553" d="M1.399.002a1.324 1.324 0 00-.151 2.643l.076.002A1.325 1.325 0 002.311.443a1.314 1.314 0 00-.912-.44" mask="url(#B)"/></g><path fill="#FF5553" d="M1.399 26.473a1.323 1.323 0 10-.15 2.642l.075.003a1.325 1.325 0 00.075-2.645m5.294 0a1.324 1.324 0 00-.15 2.642l.075.003a1.325 1.325 0 00.075-2.645m5.294 0a1.324 1.324 0 10-.149 2.64 1.324 1.324 0 00.149-2.64m5.294 0a1.322 1.322 0 10-.15 2.642 1.324 1.324 0 00.15-2.642m5.294 0a1.322 1.322 0 10-.15 2.642l.076.003a1.324 1.324 0 00.074-2.645m5.295 0a1.322 1.322 0 10-.151 2.642l.076.003a1.324 1.324 0 00.075-2.645m5.294 0a1.322 1.322 0 10-.151 2.642l.076.003a1.325 1.325 0 00.987-2.205 1.314 1.314 0 00-.912-.44m5.294 0a1.323 1.323 0 10-.151 2.642l.076.003a1.325 1.325 0 00.987-2.205 1.312 1.312 0 00-.912-.44m5.294 0a1.323 1.323 0 10-.15 2.642l.075.003a1.325 1.325 0 00.075-2.645"/><g transform="translate(47.647 26.47)"><mask id="D" fill="#fff"><use xlink:href="#C"/></mask><path fill="#FF5553" d="M1.399.002a1.324 1.324 0 00-.151 2.643l.076.002A1.325 1.325 0 002.311.443a1.314 1.314 0 00-.912-.44" mask="url(#D)"/></g><path fill="#FF5553" d="M1.399 31.767a1.323 1.323 0 10-.15 2.643l.075.002a1.325 1.325 0 00.075-2.645m5.294 0a1.322 1.322 0 00-1.396 1.246 1.325 1.325 0 001.246 1.397l.075.002a1.325 1.325 0 00.075-2.645m5.294 0a1.322 1.322 0 00-1.396 1.246 1.325 1.325 0 001.246 1.397l.076.002a1.324 1.324 0 00.074-2.645m5.294 0a1.322 1.322 0 00-1.396 1.246 1.326 1.326 0 001.246 1.397l.076.002a1.324 1.324 0 00.074-2.645m5.294 0a1.322 1.322 0 00-1.396 1.246 1.326 1.326 0 001.246 1.397l.076.002a1.324 1.324 0 00.074-2.645m5.295 0a1.322 1.322 0 10-.151 2.643l.076.002a1.324 1.324 0 00.075-2.645m5.294 0a1.322 1.322 0 10-.151 2.643l.076.002a1.325 1.325 0 00.987-2.205 1.314 1.314 0 00-.912-.44"/><path fill="#0033AD" d="M38.458 31.767a1.323 1.323 0 10-.151 2.643l.076.002a1.325 1.325 0 00.987-2.205 1.312 1.312 0 00-.912-.44m5.294 0a1.323 1.323 0 10-.15 2.643l.075.002a1.325 1.325 0 00.075-2.645"/><g transform="translate(47.647 31.765)"><mask id="F" fill="#fff"><use xlink:href="#E"/></mask><path fill="#FF5553" d="M1.399.002a1.324 1.324 0 00-.151 2.643l.076.002A1.325 1.325 0 002.311.443a1.314 1.314 0 00-.912-.44" mask="url(#F)"/></g><path fill="#FF5553" d="M1.399 37.06a1.326 1.326 0 00-1.397 1.247 1.326 1.326 0 001.247 1.397l.075.002a1.325 1.325 0 00.075-2.645m5.294-.001a1.324 1.324 0 00-.15 2.644l.075.002a1.325 1.325 0 00.075-2.645m5.294-.001a1.324 1.324 0 00-.15 2.644l.076.002a1.324 1.324 0 00.074-2.645m5.294-.001a1.325 1.325 0 00-.15 2.644l.076.002a1.324 1.324 0 00.074-2.645m5.294-.001a1.325 1.325 0 00-.15 2.644l.076.002a1.324 1.324 0 00.074-2.645m5.295-.001a1.325 1.325 0 00-.151 2.644l.076.002a1.324 1.324 0 00.075-2.645m5.294-.001a1.325 1.325 0 00-.151 2.644l.076.002a1.325 1.325 0 00.987-2.205 1.314 1.314 0 00-.912-.44m5.294-.001a1.325 1.325 0 00-.151 2.644l.076.002a1.325 1.325 0 00.987-2.205 1.312 1.312 0 00-.912-.44m5.294-.001a1.326 1.326 0 00-1.397 1.247 1.326 1.326 0 001.247 1.397l.075.002a1.325 1.325 0 00.075-2.645"/><g transform="translate(47.647 37.059)"><mask id="H" fill="#fff"><use xlink:href="#G"/></mask><path fill="#FF5553" d="M1.399.002a1.324 1.324 0 00-.151 2.643l.076.002A1.325 1.325 0 002.311.443a1.314 1.314 0 00-.912-.44" mask="url(#H)"/></g><path fill="#FF5553" d="M1.399 42.355a1.324 1.324 0 10-.15 2.643l.075.002a1.325 1.325 0 00.075-2.645m5.294 0a1.325 1.325 0 00-.15 2.643l.075.002a1.325 1.325 0 00.075-2.645m5.294 0a1.325 1.325 0 00-.15 2.643l.076.002a1.324 1.324 0 00.074-2.645m5.294 0a1.323 1.323 0 10-.15 2.643l.076.002a1.324 1.324 0 00.074-2.645m5.294 0a1.323 1.323 0 10-.15 2.643l.076.002a1.324 1.324 0 00.074-2.645m5.295 0a1.323 1.323 0 10-.151 2.643l.076.002a1.324 1.324 0 00.075-2.645m5.294 0a1.323 1.323 0 10-.151 2.643l.076.002a1.325 1.325 0 00.987-2.205 1.314 1.314 0 00-.912-.44m5.294 0a1.324 1.324 0 00-.151 2.643l.076.002a1.325 1.325 0 00.987-2.205 1.312 1.312 0 00-.912-.44m5.294 0a1.324 1.324 0 10-.15 2.643l.075.002a1.325 1.325 0 00.075-2.645"/><g transform="translate(47.647 42.353)"><mask id="J" fill="#fff"><use xlink:href="#I"/></mask><path fill="#FF5553" d="M1.399.002a1.324 1.324 0 00-.151 2.643l.076.002A1.325 1.325 0 002.311.443a1.314 1.314 0 00-.912-.44" mask="url(#J)"/></g><mask id="L" fill="#fff"><use xlink:href="#K"/></mask><path fill="#0033AD" d="M2.647 42.353h23.824V7.94H2.647v34.412zM27.794 45H1.324A1.323 1.323 0 010 43.676V6.618c0-.731.592-1.324 1.324-1.324h26.47c.731 0 1.324.593 1.324 1.324v37.058c0 .732-.593 1.324-1.324 1.324z" mask="url(#L)"/><path fill="#0033AD" d="M17.206 29.118H6.618a1.324 1.324 0 010-2.647h10.588a1.323 1.323 0 110 2.647m-5.294 10.588H6.618a1.324 1.324 0 010-2.647h5.294a1.323 1.323 0 010 2.647M22.5 34.412H6.618a1.324 1.324 0 010-2.647H22.5a1.323 1.323 0 110 2.647m0-10.588H6.618a1.324 1.324 0 010-2.648H22.5a1.324 1.324 0 010 2.648M7.941 15.882h7.941v-2.647h-7.94v2.647zm9.265 2.647H6.618a1.323 1.323 0 01-1.324-1.323v-5.294c0-.731.593-1.324 1.324-1.324h10.588c.731 0 1.323.593 1.323 1.324v5.294c0 .731-.592 1.323-1.323 1.323zM34.412 7.941v11.364l3.034-3.035c.249-.248.585-.388.936-.388h9.265v-7.94H34.412zm-1.324 15.883a1.324 1.324 0 01-1.323-1.324V6.618c0-.731.592-1.324 1.323-1.324h15.883c.73 0 1.323.593 1.323 1.324v10.588c0 .731-.592 1.323-1.323 1.323H38.93l-4.907 4.907a1.324 1.324 0 01-.936.388z" mask="url(#L)"/><path fill="#0033AD" d="M34.412 37.059h13.235v-7.941h-9.265c-.73 0-1.323-.593-1.323-1.324v-2.099l-2.647 2.647v8.717zm14.559 2.647H33.088c-.73 0-1.323-.593-1.323-1.324V27.794c0-.35.14-.688.387-.936l5.294-5.294a1.325 1.325 0 012.26.936v3.97h9.265c.73 0 1.323.593 1.323 1.324v10.588c0 .731-.592 1.324-1.323 1.324z" mask="url(#L)"/></g></svg>