<svg xmlns="http://www.w3.org/2000/svg" width="18" height="18">
  <path d="M9 0a9 9 0 00-2.845 17.54c.45.084.595-.195.595-.432v-1.676c-2.503.544-3.025-1.062-3.025-1.062-.41-1.04-1-1.317-1-1.317-.816-.559.063-.547.063-.547.904.063 1.379.928 1.379.928.803 1.376 2.105.978 2.619.748.08-.582.314-.979.572-1.203-2-.229-4.1-1-4.1-4.448 0-.984.351-1.786.926-2.416-.093-.228-.401-1.143.088-2.382 0 0 .756-.242 2.476.922A8.615 8.615 0 019 4.352a8.697 8.697 0 012.255.303c1.718-1.164 2.472-.922 2.472-.922.49 1.24.182 2.155.089 2.382.577.63.926 1.433.926 2.415 0 3.457-2.105 4.219-4.11 4.441.323.28.618.827.618 1.667v2.47c0 .239.144.52.6.431A8.997 8.997 0 0018 9a9 9 0 00-9-9z" fill="#FFF" fill-rule="nonzero"/>
</svg>
