<svg xmlns="http://www.w3.org/2000/svg" xmlns:xlink="http://www.w3.org/1999/xlink" width="51" height="45"><defs><path id="a" d="M0 0h2.647v2.647H0z"/><path id="c" d="M0 0h2.647v2.647H0z"/><path id="e" d="M0 0h2.647v2.647H0z"/><path id="g" d="M0 0h2.647v2.647H0z"/><path id="i" d="M0 0h2.647v2.647H0z"/><path id="k" d="M0 0h2.647v2.647H0z"/><path id="m" d="M0 0h2.647v2.647H0z"/><path id="o" d="M0 0h2.647v2.647H0z"/><path id="q" d="M0 0h2.647v2.647H0z"/><path id="s" d="M0 0h2.647v2.647H0z"/><path id="u" d="M0 0h2.647v2.647H0z"/><path id="w" d="M0 0h2.647v2.647H0z"/><path id="y" d="M0 0h2.647v2.647H0z"/><path id="A" d="M0 0h2.647v2.647H0z"/><path id="C" d="M0 0h2.647v2.647H0z"/><path id="E" d="M0 0h2.647v2.647H0z"/><path id="G" d="M0 0h2.647v2.647H0z"/><path id="I" d="M0 0h2.647v2.647H0z"/></defs><g fill="none" fill-rule="evenodd"><g><mask id="b" fill="#fff"><use xlink:href="#a"/></mask><path fill="#FF5553" d="M1.399.002a1.324 1.324 0 00-.151 2.643l.076.002A1.325 1.325 0 002.311.443a1.31 1.31 0 00-.912-.44" mask="url(#b)"/></g><g transform="translate(5.294)"><mask id="d" fill="#fff"><use xlink:href="#c"/></mask><path fill="#FF5553" d="M1.399.002a1.324 1.324 0 00-.151 2.643l.076.002A1.325 1.325 0 002.311.443a1.31 1.31 0 00-.912-.44" mask="url(#d)"/></g><g transform="translate(10.588)"><mask id="f" fill="#fff"><use xlink:href="#e"/></mask><path fill="#FF5553" d="M1.399.002a1.324 1.324 0 00-.151 2.643l.076.002A1.325 1.325 0 002.311.443a1.31 1.31 0 00-.912-.44" mask="url(#f)"/></g><g transform="translate(15.883)"><mask id="h" fill="#fff"><use xlink:href="#g"/></mask><path fill="#FF5553" d="M1.399.002a1.324 1.324 0 00-.151 2.643l.076.002A1.325 1.325 0 002.311.443a1.31 1.31 0 00-.912-.44" mask="url(#h)"/></g><g transform="translate(21.177)"><mask id="j" fill="#fff"><use xlink:href="#i"/></mask><path fill="#FF5553" d="M1.399.002a1.324 1.324 0 00-.151 2.643l.076.002A1.325 1.325 0 002.311.443a1.31 1.31 0 00-.912-.44" mask="url(#j)"/></g><g transform="translate(26.47)"><mask id="l" fill="#fff"><use xlink:href="#k"/></mask><path fill="#FF5553" d="M1.399.002a1.324 1.324 0 00-.151 2.643l.076.002A1.325 1.325 0 002.311.443a1.31 1.31 0 00-.912-.44" mask="url(#l)"/></g><g transform="translate(31.765)"><mask id="n" fill="#fff"><use xlink:href="#m"/></mask><path fill="#FF5553" d="M1.399.002a1.324 1.324 0 00-.151 2.643l.076.002A1.325 1.325 0 002.311.443a1.31 1.31 0 00-.912-.44" mask="url(#n)"/></g><g transform="translate(37.06)"><mask id="p" fill="#fff"><use xlink:href="#o"/></mask><path fill="#FF5553" d="M1.399.002a1.324 1.324 0 00-.151 2.643l.076.002A1.325 1.325 0 002.311.443a1.31 1.31 0 00-.912-.44" mask="url(#p)"/></g><g transform="translate(42.353)"><mask id="r" fill="#fff"><use xlink:href="#q"/></mask><path fill="#FF5553" d="M1.399.002a1.324 1.324 0 00-.151 2.643l.076.002A1.325 1.325 0 002.311.443a1.31 1.31 0 00-.912-.44" mask="url(#r)"/></g><g transform="translate(47.647)"><mask id="t" fill="#fff"><use xlink:href="#s"/></mask><path fill="#FF5553" d="M1.399.002a1.324 1.324 0 00-.151 2.643l.076.002A1.325 1.325 0 002.311.443a1.31 1.31 0 00-.912-.44" mask="url(#t)"/></g><path fill="#FF5553" d="M1.399 5.296A1.324 1.324 0 101.25 7.94l.075.002A1.324 1.324 0 001.4 5.298m5.293-.002a1.323 1.323 0 10-.15 2.643l.075.002a1.324 1.324 0 00.075-2.644m5.294-.001a1.323 1.323 0 10-.15 2.643l.076.002a1.324 1.324 0 00.074-2.644m5.294-.001a1.323 1.323 0 00-.15 2.643l.076.002a1.324 1.324 0 00.074-2.644m5.294-.001a1.323 1.323 0 00-.15 2.643l.076.002a1.324 1.324 0 00.074-2.644m5.295-.001a1.324 1.324 0 00-.151 2.643l.076.002a1.324 1.324 0 00.075-2.644m5.294-.001a1.324 1.324 0 00-.151 2.643l.076.002a1.325 1.325 0 00.987-2.204 1.31 1.31 0 00-.912-.44m5.294-.001a1.324 1.324 0 00-.151 2.643l.076.002a1.325 1.325 0 00.987-2.204 1.308 1.308 0 00-.912-.44m5.294-.001a1.324 1.324 0 00-.15 2.643l.075.002a1.324 1.324 0 00.075-2.644"/><g transform="translate(47.647 5.294)"><mask id="v" fill="#fff"><use xlink:href="#u"/></mask><path fill="#FF5553" d="M1.399.002a1.324 1.324 0 00-.151 2.643l.076.002A1.325 1.325 0 002.311.443a1.314 1.314 0 00-.912-.44" mask="url(#v)"/></g><path fill="#FF5553" d="M1.399 10.59a1.325 1.325 0 00-.15 2.643l.075.002a1.324 1.324 0 00.075-2.644m5.294-.001a1.323 1.323 0 10-.15 2.643l.075.002a1.324 1.324 0 00.075-2.644m5.294-.001a1.323 1.323 0 10-.15 2.643l.076.002a1.324 1.324 0 00.074-2.644m5.294-.001a1.324 1.324 0 00-.15 2.643l.076.002a1.324 1.324 0 00.074-2.644m5.294-.001a1.324 1.324 0 00-.15 2.643l.076.002a1.324 1.324 0 00.074-2.644m5.295-.001a1.324 1.324 0 00-.151 2.643l.076.002a1.324 1.324 0 00.075-2.644m5.294-.001a1.324 1.324 0 00-.151 2.643l.076.002a1.325 1.325 0 00.987-2.204 1.314 1.314 0 00-.912-.44m5.294-.001a1.325 1.325 0 00-.151 2.643l.076.002a1.325 1.325 0 00.987-2.204 1.312 1.312 0 00-.912-.44m5.294-.001a1.325 1.325 0 00-.15 2.643l.075.002a1.324 1.324 0 00.075-2.644"/><g transform="translate(47.647 10.588)"><mask id="x" fill="#fff"><use xlink:href="#w"/></mask><path fill="#FF5553" d="M1.399.002a1.324 1.324 0 00-.151 2.643l.076.002A1.325 1.325 0 002.311.443a1.314 1.314 0 00-.912-.44" mask="url(#x)"/></g><path fill="#FF5553" d="M1.399 15.884a1.325 1.325 0 00-.15 2.643l.075.002a1.324 1.324 0 00.075-2.644m5.294-.001a1.323 1.323 0 10-.15 2.643l.075.002a1.324 1.324 0 00.075-2.644m5.294-.001a1.323 1.323 0 10-.15 2.643l.076.002a1.324 1.324 0 00.074-2.644m5.294-.001a1.324 1.324 0 00-.15 2.643l.076.002a1.324 1.324 0 00.074-2.644m5.294-.001a1.324 1.324 0 00-.15 2.643l.076.002a1.324 1.324 0 00.074-2.644m5.295-.001a1.324 1.324 0 00-.151 2.643l.076.002a1.324 1.324 0 00.075-2.644m5.294-.001a1.324 1.324 0 00-.151 2.643l.076.002a1.324 1.324 0 00.987-2.204 1.314 1.314 0 00-.912-.44m5.294-.001a1.325 1.325 0 00-.151 2.643l.076.002a1.324 1.324 0 00.987-2.204 1.312 1.312 0 00-.912-.44m5.294-.001a1.325 1.325 0 00-.15 2.643l.075.002a1.324 1.324 0 00.075-2.644"/><g transform="translate(47.647 15.882)"><mask id="z" fill="#fff"><use xlink:href="#y"/></mask><path fill="#FF5553" d="M1.399.002a1.324 1.324 0 00-.151 2.643l.076.002A1.325 1.325 0 002.311.443a1.314 1.314 0 00-.912-.44" mask="url(#z)"/></g><path fill="#FF5553" d="M1.399 21.179a1.323 1.323 0 10-.15 2.642l.075.002a1.324 1.324 0 00.075-2.644m5.294 0a1.324 1.324 0 00-.15 2.642l.075.002a1.324 1.324 0 00.075-2.644m5.294 0a1.324 1.324 0 00-.15 2.642l.076.002a1.324 1.324 0 00.074-2.644m5.294 0a1.322 1.322 0 10-.15 2.642l.076.002a1.324 1.324 0 00.074-2.644m5.294 0a1.322 1.322 0 10-.15 2.642l.076.002a1.324 1.324 0 00.074-2.644m5.295 0a1.322 1.322 0 10-.151 2.642l.076.002a1.324 1.324 0 00.075-2.644m5.294 0a1.322 1.322 0 10-.151 2.642l.076.002a1.324 1.324 0 00.987-2.204 1.314 1.314 0 00-.912-.44m5.294 0a1.323 1.323 0 10-.151 2.642l.076.002a1.324 1.324 0 00.987-2.204 1.312 1.312 0 00-.912-.44m5.294 0a1.323 1.323 0 10-.15 2.642l.075.002a1.324 1.324 0 00.075-2.644"/><g transform="translate(47.647 21.176)"><mask id="B" fill="#fff"><use xlink:href="#A"/></mask><path fill="#FF5553" d="M1.399.002a1.324 1.324 0 00-.151 2.643l.076.002A1.325 1.325 0 002.311.443a1.314 1.314 0 00-.912-.44" mask="url(#B)"/></g><path fill="#FF5553" d="M1.399 26.473a1.323 1.323 0 10-.15 2.642l.075.003a1.325 1.325 0 00.075-2.645m5.294 0a1.324 1.324 0 00-.15 2.642l.075.003a1.325 1.325 0 00.075-2.645m5.294 0a1.324 1.324 0 10-.149 2.64 1.324 1.324 0 00.149-2.64m5.294 0a1.322 1.322 0 10-.15 2.642 1.324 1.324 0 00.15-2.642m5.294 0a1.322 1.322 0 10-.15 2.642l.076.003a1.324 1.324 0 00.074-2.645m5.295 0a1.322 1.322 0 10-.151 2.642l.076.003a1.324 1.324 0 00.075-2.645m5.294 0a1.322 1.322 0 10-.151 2.642l.076.003a1.325 1.325 0 00.987-2.205 1.314 1.314 0 00-.912-.44m5.294 0a1.323 1.323 0 10-.151 2.642l.076.003a1.325 1.325 0 00.987-2.205 1.312 1.312 0 00-.912-.44m5.294 0a1.323 1.323 0 10-.15 2.642l.075.003a1.325 1.325 0 00.075-2.645"/><g transform="translate(47.647 26.47)"><mask id="D" fill="#fff"><use xlink:href="#C"/></mask><path fill="#FF5553" d="M1.399.002a1.324 1.324 0 00-.151 2.643l.076.002A1.325 1.325 0 002.311.443a1.314 1.314 0 00-.912-.44" mask="url(#D)"/></g><path fill="#FF5553" d="M1.399 31.767a1.323 1.323 0 10-.15 2.643l.075.002a1.325 1.325 0 00.075-2.645m5.294 0a1.322 1.322 0 00-1.396 1.246 1.325 1.325 0 001.246 1.397l.075.002a1.325 1.325 0 00.075-2.645m5.294 0a1.322 1.322 0 00-1.396 1.246 1.325 1.325 0 001.246 1.397l.076.002a1.324 1.324 0 00.074-2.645m5.294 0a1.322 1.322 0 00-1.396 1.246 1.326 1.326 0 001.246 1.397l.076.002a1.324 1.324 0 00.074-2.645m5.294 0a1.322 1.322 0 00-1.396 1.246 1.326 1.326 0 001.246 1.397l.076.002a1.324 1.324 0 00.074-2.645m5.295 0a1.322 1.322 0 10-.151 2.643l.076.002a1.324 1.324 0 00.075-2.645m5.294 0a1.322 1.322 0 10-.151 2.643l.076.002a1.325 1.325 0 00.987-2.205 1.314 1.314 0 00-.912-.44m5.294 0a1.323 1.323 0 10-.151 2.643l.076.002a1.325 1.325 0 00.987-2.205 1.312 1.312 0 00-.912-.44m5.294 0a1.323 1.323 0 10-.15 2.643l.075.002a1.325 1.325 0 00.075-2.645"/><g transform="translate(47.647 31.765)"><mask id="F" fill="#fff"><use xlink:href="#E"/></mask><path fill="#FF5553" d="M1.399.002a1.324 1.324 0 00-.151 2.643l.076.002A1.325 1.325 0 002.311.443a1.314 1.314 0 00-.912-.44" mask="url(#F)"/></g><path fill="#FF5553" d="M1.399 37.06a1.326 1.326 0 00-1.397 1.247 1.326 1.326 0 001.247 1.397l.075.002a1.325 1.325 0 00.075-2.645m5.294-.001a1.324 1.324 0 00-.15 2.644l.075.002a1.325 1.325 0 00.075-2.645m5.294-.001a1.324 1.324 0 00-.15 2.644l.076.002a1.324 1.324 0 00.074-2.645m5.294-.001a1.325 1.325 0 00-.15 2.644l.076.002a1.324 1.324 0 00.074-2.645m5.294-.001a1.325 1.325 0 00-.15 2.644l.076.002a1.324 1.324 0 00.074-2.645m5.295-.001a1.325 1.325 0 00-.151 2.644l.076.002a1.324 1.324 0 00.075-2.645m5.294-.001a1.325 1.325 0 00-.151 2.644l.076.002a1.325 1.325 0 00.987-2.205 1.314 1.314 0 00-.912-.44m5.294-.001a1.325 1.325 0 00-.151 2.644l.076.002a1.325 1.325 0 00.987-2.205 1.312 1.312 0 00-.912-.44m5.294-.001a1.326 1.326 0 00-1.397 1.247 1.326 1.326 0 001.247 1.397l.075.002a1.325 1.325 0 00.075-2.645"/><g transform="translate(47.647 37.059)"><mask id="H" fill="#fff"><use xlink:href="#G"/></mask><path fill="#FF5553" d="M1.399.002a1.324 1.324 0 00-.151 2.643l.076.002A1.325 1.325 0 002.311.443a1.314 1.314 0 00-.912-.44" mask="url(#H)"/></g><path fill="#FF5553" d="M1.399 42.355a1.324 1.324 0 10-.15 2.643l.075.002a1.325 1.325 0 00.075-2.645m5.294 0a1.325 1.325 0 00-.15 2.643l.075.002a1.325 1.325 0 00.075-2.645m5.294 0a1.325 1.325 0 00-.15 2.643l.076.002a1.324 1.324 0 00.074-2.645m5.294 0a1.323 1.323 0 10-.15 2.643l.076.002a1.324 1.324 0 00.074-2.645m5.294 0a1.323 1.323 0 10-.15 2.643l.076.002a1.324 1.324 0 00.074-2.645m5.295 0a1.323 1.323 0 10-.151 2.643l.076.002a1.324 1.324 0 00.075-2.645m5.294 0a1.323 1.323 0 10-.151 2.643l.076.002a1.325 1.325 0 00.987-2.205 1.314 1.314 0 00-.912-.44m5.294 0a1.324 1.324 0 00-.151 2.643l.076.002a1.325 1.325 0 00.987-2.205 1.312 1.312 0 00-.912-.44m5.294 0a1.324 1.324 0 10-.15 2.643l.075.002a1.325 1.325 0 00.075-2.645"/><g transform="translate(47.647 42.353)"><mask id="J" fill="#fff"><use xlink:href="#I"/></mask><path fill="#FF5553" d="M1.399.002a1.324 1.324 0 00-.151 2.643l.076.002A1.325 1.325 0 002.311.443a1.314 1.314 0 00-.912-.44" mask="url(#J)"/></g><path fill="#0033AD" d="M22.5 45a1.324 1.324 0 01-1.324-1.324v-5.294c0-.73.593-1.323 1.324-1.323h3.97v-9.265c0-.731.593-1.323 1.324-1.323h2.1l-3.036-3.035a1.324 1.324 0 01-.387-.936V12.46l-4.519-4.52H7.166l-4.519 4.52v20.08l4.907 4.906c.247.249.387.585.387.936v5.294a1.323 1.323 0 11-2.647 0V38.93L.388 34.024A1.323 1.323 0 010 33.088V11.912c0-.351.14-.688.388-.936l5.294-5.294c.248-.248.585-.388.936-.388H22.5c.351 0 .688.14.936.388l5.294 5.294c.248.248.388.585.388.936v10.04l4.906 4.906a1.325 1.325 0 01-.936 2.26h-3.97v9.264c0 .731-.593 1.324-1.324 1.324h-3.97v3.97c0 .732-.593 1.324-1.324 1.324"/><path fill="#0033AD" d="M27.794 18.53H22.5a1.324 1.324 0 010-2.648h5.294a1.324 1.324 0 010 2.647M11.912 29.118c-.34 0-.677-.13-.936-.388l-5.294-5.294a1.325 1.325 0 01-.388-.936v-5.294c0-.731.593-1.324 1.324-1.324h5.294a1.324 1.324 0 010 2.647h-3.97v3.423l4.906 4.906a1.325 1.325 0 01-.936 2.26m27.794-7.942h2.647v-3.97c0-.351.14-.688.387-.936l4.907-4.906V7.166L43.13 2.647h-4.2l-4.518 4.519v4.198l4.906 4.906c.248.248.388.585.388.936v3.97zm3.97 2.648h-5.294c-.73 0-1.323-.593-1.323-1.324v-4.746l-4.907-4.906a1.325 1.325 0 01-.387-.936V6.618c0-.351.14-.688.387-.936L37.446.388c.249-.248.585-.388.936-.388h5.294c.351 0 .688.14.936.388l5.295 5.294c.247.248.387.585.387.936v5.294c0 .35-.14.687-.387.936L45 17.754V22.5c0 .731-.592 1.324-1.324 1.324z"/><path fill="#0033AD" d="M43.676 29.118h-5.294c-.73 0-1.323-.593-1.323-1.324V22.5a1.323 1.323 0 112.647 0v3.97h2.647V22.5a1.323 1.323 0 112.647 0v5.294c0 .731-.592 1.324-1.324 1.324"/></g></svg>