<svg xmlns="http://www.w3.org/2000/svg" width="50" height="55" viewBox="0 0 50 55" fill="none">
  <g clip-path="url(#clip0_2080_6128)">
    <path d="M17.1695 35.1413C26.652 35.1413 34.3391 27.4543 34.3391 17.9718C34.3391 8.48931 26.652 0.802246 17.1695 0.802246C7.68706 0.802246 0 8.48931 0 17.9718C0 27.4543 7.68706 35.1413 17.1695 35.1413Z" fill="url(#paint0_linear_2080_6128)"/>
    <path d="M49.9999 23.0724C49.9999 15.8022 47.0294 11.5637 41.5588 11.0285C41.5588 10.9136 41.5552 10.7987 41.5229 10.6801C40.158 5.18443 34.806 3.71173 31.8965 3.71173C29.418 3.71173 27.9094 4.2146 27.0473 4.68156C26.2212 4.25052 24.6767 3.71173 22.1982 3.71173C18.5344 3.71173 14.26 5.63702 12.7693 10.9711C7.15869 11.3985 4.05884 15.6514 4.05884 23.0364C4.05884 26.7936 5.79734 29.1068 7.53226 30.364C6.85338 31.7433 6.50137 33.4316 6.50137 35.1772C6.50137 42.6844 11.7815 45.9172 13.793 46.887C14.1881 51.9158 18.2111 54.5379 22.2341 54.5379C24.6407 54.5379 26.1494 53.5321 27.0833 52.2749C27.9813 53.5321 29.5258 54.5379 31.9324 54.5379C36.135 54.5379 40.4058 51.632 40.4094 46.0681C40.5136 46.0429 40.6213 46.0214 40.7327 45.989C44.5402 44.9833 47.6652 40.637 47.6652 36.3626C47.6652 33.9668 46.8893 32.0989 46.0021 30.7484C47.8915 29.5954 49.9999 27.2067 49.9999 23.0724ZM22.1982 52.0594C19.2887 52.0594 16.1637 50.1557 16.1637 46.025C16.1637 45.4862 15.8404 45.0551 15.3735 44.9114C15.1221 44.8396 8.90798 42.6126 8.90798 35.1413C8.90798 33.8087 9.20252 32.4797 9.69821 31.4488C9.73413 31.4596 9.77004 31.4704 9.80596 31.4775C9.91372 31.5135 9.98556 31.5135 10.0933 31.5135C10.668 31.5135 11.135 31.1543 11.2787 30.5436C11.4223 29.8971 11.0272 29.2505 10.3807 29.0709C10.3448 29.0709 6.46545 28.0293 6.46545 23.0005C6.46545 16.6068 8.90798 13.3382 13.7212 13.3382C16.0631 13.3382 17.0904 14.5199 17.3922 14.9474C16.9683 16.1794 16.9935 17.3827 17.1695 18.1514C17.3131 18.7261 17.816 19.0853 18.3548 19.0853C18.4626 19.0853 18.5344 19.0494 18.6063 19.0494C19.2887 18.9057 19.6838 18.2591 19.5402 17.6126C19.4683 17.3252 19.0373 14.8827 21.6953 13.6255C22.306 13.3382 22.5574 12.6198 22.27 12.0091C21.9827 11.3985 21.2643 11.1471 20.6537 11.4344C19.8419 11.8152 19.2097 12.2893 18.7068 12.8102C18.0172 12.1385 16.9144 11.377 15.2729 11.0716C16.8498 6.51346 20.9159 6.11834 22.2018 6.11834C24.1774 6.11834 25.2909 6.51346 25.8297 6.76489V9.71389C25.1652 9.73185 24.6443 10.2599 24.6443 10.9316C24.6443 11.6033 25.1652 12.1313 25.8297 12.1492V14.5954H24.6443C23.9619 14.5954 23.4231 15.1341 23.4231 15.8166C23.4231 16.4991 23.9619 17.0379 24.6443 17.0379H25.8297V19.5558C25.1652 19.5738 24.6443 20.1018 24.6443 20.7735C24.6443 21.4452 25.1652 21.9732 25.8297 21.9912V31.5135H20.4058L17.6688 27.8748C18.2291 27.2354 18.5739 26.3985 18.5739 25.479C18.5739 23.4675 16.9575 21.8511 14.9461 21.8511C12.9346 21.8511 11.3182 23.4675 11.3182 25.479C11.3182 27.4905 12.9346 29.1068 14.9461 29.1068C15.14 29.1068 15.3268 29.0889 15.51 29.0602L18.5739 33.1658V36.5745C17.1695 37.0738 16.1673 38.4064 16.1673 39.9905C16.1673 42.002 17.7837 43.6183 19.7952 43.6183C21.8067 43.6183 23.4231 42.002 23.4231 39.9905C23.4231 38.41 22.4209 37.0738 21.0165 36.5745V33.9919H25.8297V48.4316C25.8297 49.0422 25.6142 52.0594 22.2018 52.0594H22.1982ZM19.7916 38.7692C20.4381 38.7692 21.0129 39.3439 21.0129 39.9905C21.0129 40.6729 20.4741 41.2117 19.7916 41.2117C19.1091 41.2117 18.5703 40.6729 18.5703 39.9905C18.5703 39.308 19.1091 38.7692 19.7916 38.7692ZM14.9425 26.7002C14.26 26.7002 13.7212 26.1614 13.7212 25.479C13.7212 24.7965 14.26 24.2577 14.9425 24.2577C15.6249 24.2577 16.1637 24.7965 16.1637 25.479C16.1637 26.1614 15.6249 26.7002 14.9425 26.7002ZM40.0861 43.6543C39.1522 43.9057 38.2542 43.6902 37.3922 43.0436C36.2894 42.2067 35.6609 40.8813 35.5782 40.1521C36.2787 39.2254 36.7815 37.9897 36.7815 36.3626C36.7815 35.6801 36.2427 35.1413 35.5603 35.1413C34.8778 35.1413 34.339 35.6801 34.339 36.3626C34.339 39.308 31.9324 39.9545 31.645 40.0264C30.9985 40.1701 30.5675 40.8166 30.7111 41.4632C30.8548 42.0379 31.3218 42.433 31.8965 42.433C31.9683 42.433 32.0402 42.3971 32.1838 42.3971C32.5682 42.3109 33.0387 42.142 33.5308 41.8834C34.0014 43.0472 34.8455 44.2002 35.8836 44.9833C36.5337 45.5005 37.2413 45.8489 37.9705 46.0357C37.9705 46.0429 37.9705 46.0537 37.9705 46.0609C37.9705 50.2275 34.8455 52.0954 31.936 52.0954C28.5236 52.0954 28.3081 49.0781 28.3081 48.4675V29.1068H35.5279C35.8871 29.1068 36.2463 28.9272 36.4619 28.6399L39.1522 25.2635C39.5366 25.4 39.9461 25.479 40.3771 25.479C42.3527 25.479 44.005 23.8626 44.005 21.8511C44.005 19.8396 42.3886 18.2232 40.3771 18.2232C38.3656 18.2232 36.7492 19.8396 36.7492 21.8511C36.7492 22.5479 36.9468 23.1981 37.2844 23.7477L34.9532 26.6643H28.3081V21.9912C28.9367 21.9696 29.4575 21.4416 29.4935 20.7735C29.4935 20.1018 28.9726 19.5738 28.3081 19.5558V17.0379H29.4575C30.14 17.0379 30.6788 16.4991 30.6788 15.8166C30.6788 15.1341 30.14 14.5954 29.4575 14.5954H28.3081V12.1492C28.9367 12.1277 29.4575 11.5997 29.4935 10.9316C29.4935 10.2599 28.9726 9.73185 28.3081 9.71389V6.80081C28.8469 6.54937 29.9604 6.15426 31.936 6.15426C34.1163 6.15426 38.0495 7.19593 39.1558 11.0537C35.7219 11.5242 34.4791 13.9272 34.4144 14.0566C34.1271 14.6672 34.3785 15.3856 34.9532 15.6729C35.5279 15.9962 36.2463 15.7448 36.5696 15.1701C36.6055 15.0982 37.5754 13.41 40.3412 13.41C45.1544 13.41 47.5969 16.6428 47.5969 23.0724C47.5969 26.7254 45.5495 28.2699 44.4144 28.8446C43.9188 28.3813 43.5524 28.1298 43.5021 28.1011C42.9274 27.706 42.1731 27.8856 41.8139 28.4244C41.4188 28.9991 41.5983 29.7534 42.1371 30.1126C42.1731 30.1126 45.2262 32.2318 45.2262 36.3626C45.2262 39.8827 42.5682 42.9718 40.0897 43.6543H40.0861ZM39.1522 21.8511C39.1522 21.1686 39.691 20.6298 40.3735 20.6298C41.02 20.6298 41.5588 21.1686 41.5948 21.8511C41.5948 22.5336 41.056 23.0724 40.3735 23.0724C39.691 23.0724 39.1522 22.5336 39.1522 21.8511Z" fill="currentColor"/>
  </g>
  <defs>
    <linearGradient id="paint0_linear_2080_6128" x1="2.29885" y1="26.5566" x2="32.0115" y2="9.40497" gradientUnits="userSpaceOnUse">
      <stop stop-color="#0033B0"/>
      <stop offset="1" stop-color="#6390FF"/>
    </linearGradient>
    <clipPath id="clip0_2080_6128">
      <rect width="50" height="53.7356" fill="currentColor" transform="translate(0 0.802246)"/>
    </clipPath>
  </defs>
</svg>