<svg width="51" height="46" viewBox="0 0 51 46" fill="none" xmlns="http://www.w3.org/2000/svg">
<g clip-path="url(#clip0_2080_6110)">
<path d="M25.6684 38.9237C34.4629 38.9237 41.5922 31.7944 41.5922 22.9999C41.5922 14.2055 34.4629 7.07617 25.6684 7.07617C16.8739 7.07617 9.74463 14.2055 9.74463 22.9999C9.74463 31.7944 16.8739 38.9237 25.6684 38.9237Z" fill="url(#paint0_linear_2080_6110)"/>
<path d="M45.0901 16.3706C45.3233 16.304 45.5565 16.1374 45.6897 15.9042L50.4535 8.77518C50.7867 8.30879 50.7201 7.67584 50.3203 7.27608L46.7225 3.74487C46.3227 3.34511 45.6897 3.31179 45.2233 3.61161L38.0943 8.37542C37.8611 8.50867 37.7278 8.70855 37.6279 8.97506L36.5286 12.2731L30.5255 18.2761L26.5012 14.4385L23.1033 11.0072C22.9367 10.6074 22.9367 10.2077 23.1366 9.77458C24.0694 7.5759 29.0664 5.37722 31.9646 4.51107C32.4643 4.34451 32.7975 3.91143 32.7975 3.37842C32.7975 2.84541 32.4643 2.41233 31.998 2.24577C28.2335 0.979858 26.9343 0.979858 22.1039 0.979858C13.1426 0.979858 9.31156 8.44205 9.14499 8.77518C9.07837 8.94175 9.01174 9.10831 9.01174 9.3082C9.01174 11.2737 7.4127 12.8727 5.44721 12.8727C5.11408 12.8727 4.81426 13.006 4.61438 13.2059L1.01654 16.8037C0.550151 17.2701 0.550151 18.0363 1.01654 18.4694L8.14559 25.5984C8.37879 25.8316 8.67861 25.9316 8.97843 25.9316C9.27825 25.9316 9.57807 25.8316 9.81126 25.5984L12.1765 23.2332C12.4097 23 12.5096 22.7002 12.5096 22.4003C12.5096 20.6014 13.8755 19.1023 15.6078 18.8691L18.8059 22.0672L22.8668 25.9349L21.4976 27.3041C20.2183 27.0842 18.8392 27.3973 17.8731 28.2635L10.311 35.0927C9.51144 35.8256 9.04505 36.825 9.01174 37.9244C8.97843 39.0237 9.4115 40.0564 10.1777 40.8226L13.2092 43.8541C13.9754 44.6203 14.9415 45.0201 16.0075 45.0201C17.0736 45.0201 18.1729 44.5204 18.9058 43.6876L25.735 36.1254C26.6112 35.1294 26.9343 33.7902 26.7244 32.5376L28.3068 30.9552L40.9926 43.0213C41.6921 43.6876 42.5916 44.0207 43.4911 44.0207C44.3905 44.0207 45.3566 43.6543 46.0562 42.9547L48.6546 40.3562C49.3209 39.69 49.6873 38.7905 49.6873 37.8244C49.654 36.925 49.2543 36.0255 48.5547 35.3592L35.9023 23.3598L41.7921 17.47L45.0901 16.3706ZM17.0069 16.8037C16.7738 16.5705 16.4739 16.4706 16.1408 16.4706C13.0427 16.4706 10.4775 18.8691 10.211 21.9006L9.01174 23.0999L3.54835 17.6365L5.94691 15.238C8.87849 14.9715 11.2104 12.6062 11.377 9.64133C12.0433 8.47536 15.3413 3.37842 22.1039 3.37842C24.8023 3.37842 26.2681 3.37842 27.6672 3.5783C25.1021 4.71095 21.9373 6.50987 20.9379 8.84181C20.4382 9.97446 20.5048 11.1404 21.0379 12.2398C21.1045 12.3397 21.1711 12.473 21.2711 12.5396L24.0027 15.2713L19.7386 19.5354L17.0069 16.8037ZM21.3044 21.2011L25.7017 16.937L28.8598 19.9418L24.5324 24.2692L21.3044 21.2011ZM23.9694 34.5597L17.1402 42.1218C16.8404 42.455 16.4073 42.6549 15.9742 42.6549C15.5745 42.6549 15.1747 42.4883 14.8749 42.1885L11.8434 39.157C11.5436 38.8238 11.377 38.4241 11.377 37.991C11.377 37.5579 11.5769 37.1581 11.91 36.8583L19.4721 30.0291C19.8053 29.7293 20.2717 29.5627 20.738 29.5627C21.2377 29.5627 21.7374 29.7626 22.0706 30.1623L23.9028 31.9946C24.5691 32.6609 24.6024 33.8268 23.9694 34.5597ZM46.9223 37.0915C47.1555 37.2914 47.2888 37.5912 47.2888 37.891C47.2888 38.1909 47.1888 38.4907 46.9556 38.6906L44.3572 41.289C43.8908 41.7554 43.0913 41.7554 42.6249 41.3223L29.9725 29.2895L34.2366 25.0254L46.9223 37.0915ZM40.293 15.671L25.6318 30.3322C25.6085 30.3089 25.5918 30.2856 25.5685 30.2623L23.7362 28.4301C23.7362 28.4301 23.7229 28.4201 23.7196 28.4134L38.3941 13.7389C38.5274 13.6056 38.6273 13.4391 38.6939 13.2725L39.76 10.1077L45.7564 6.11011L47.955 8.30879L43.9574 14.3052L40.7594 15.3712C40.5928 15.4379 40.4262 15.5378 40.293 15.671Z" fill="currentColor"/>
</g>
<defs>
<linearGradient id="paint0_linear_2080_6110" x1="11.8767" y1="30.9618" x2="39.4335" y2="15.0547" gradientUnits="userSpaceOnUse">
<stop stop-color="#0033B0"/>
<stop offset="1" stop-color="#6390FF"/>
</linearGradient>
<clipPath id="clip0_2080_6110">
<rect width="50" height="44.0402" fill="currentColor" transform="translate(0.666748 0.979858)"/>
</clipPath>
</defs>
</svg>
