<svg width="50" height="60" viewBox="0 0 50 60" fill="none" xmlns="http://www.w3.org/2000/svg">
<g clip-path="url(#clip0_2080_5854)">
<path d="M32.2436 35.8135C42.0502 35.8135 49.9999 27.8638 49.9999 18.0572C49.9999 8.25067 42.0502 0.300903 32.2436 0.300903C22.4371 0.300903 14.4873 8.25067 14.4873 18.0572C14.4873 27.8638 22.4371 35.8135 32.2436 35.8135Z" fill="url(#paint0_linear_2080_5854)"/>
<path d="M47.734 27.0097C47.734 17.7229 41.159 6.91309 22.6226 6.91309C10.847 6.91309 1.263 15.3455 1.263 25.7467C1.263 27.9012 2.08024 30.0186 2.45171 30.9101L0.0371471 40.5312C0 40.6427 0 40.7169 0 40.8284C0 41.4227 0.26003 41.9428 0.705795 42.3514C1.52303 43.0572 2.82318 43.0572 3.60327 42.9829C3.71471 43.0944 3.789 43.243 3.789 43.3544V45.8804C3.789 46.0661 3.82615 46.2519 3.93759 46.4376L4.64339 47.812C4.86627 48.2578 5.08915 49.1493 5.08915 49.6322V50.8952C5.08915 54.2013 8.24666 55.9101 11.367 55.9101C12.2585 55.9101 13.7816 55.4272 15.5275 54.7957C16.3447 57.4331 16.3819 58.4361 16.3819 58.4361C16.3819 59.1419 16.9391 59.6991 17.6449 59.6991H39.0045C39.3759 59.6991 39.7474 59.5134 40.0074 59.2162C40.2303 58.919 40.3418 58.5104 40.2303 58.1389C40.2303 58.1018 39.0045 53.2355 39.0045 49.6694C39.0045 46.6605 40.6389 44.2459 42.5334 41.4599C44.948 37.7452 47.734 33.6219 47.734 27.0097ZM34.1048 28.2541C34.0416 28.2467 33.9822 28.2355 33.9153 28.2355C33.8484 28.2355 33.789 28.2467 33.7259 28.2541C33.1129 28.1649 32.6523 27.6523 32.6523 27.0097C32.6523 26.3039 33.2095 25.7467 33.9153 25.7467C34.6211 25.7467 35.1783 26.3039 35.1783 27.0097C35.1783 27.6523 34.7177 28.1649 34.1048 28.2541ZM36.4413 49.6322C36.4413 52.2325 36.9985 55.3529 37.37 57.1731H35.1783V30.5424C36.6308 30.026 37.6672 28.6479 37.6672 27.0097C37.6672 24.9294 35.9955 23.2578 33.9153 23.2578C31.8351 23.2578 30.1634 24.9294 30.1634 27.0097C30.1634 28.6441 31.1999 30.026 32.6523 30.5424V57.1731H30.1634V39.5654C30.1634 39.3425 30.0892 39.1196 29.9777 38.9339L26.3744 32.9532V23.0498C27.8455 22.5446 28.9004 21.1553 28.9004 19.506C28.9004 17.4257 27.2288 15.7541 25.1486 15.7541C23.0683 15.7541 21.3967 17.4257 21.3967 19.506C21.3967 21.1293 22.4146 22.4963 23.8484 23.0238V33.2875C23.8484 33.5104 23.9227 33.7333 24.0342 33.919L27.6374 39.8997V57.1731H18.685C18.5364 56.4673 18.2764 55.3901 17.7935 53.8299C20.6909 52.604 23.5141 51.1924 24.4428 50.7467C24.8514 50.5238 25.1486 50.1152 25.1486 49.6322V42.0914C25.1486 41.8314 25.0743 41.6085 24.9257 41.3856L16.8425 29.2645C17.318 28.6367 17.6077 27.8603 17.6077 27.0097C17.6077 24.9294 15.9361 23.2578 13.8559 23.2578C11.7756 23.2578 10.104 24.9294 10.104 27.0097C10.104 29.0899 11.7756 30.7615 13.8559 30.7615C14.1716 30.7615 14.4762 30.7169 14.7697 30.6427L22.6597 42.4629V48.8522C18.6107 50.8581 12.8158 53.3841 11.367 53.3841C10.0669 53.3841 7.61516 52.864 7.61516 50.8581V49.6322C7.61516 48.7407 7.31798 47.4777 6.90936 46.6976L6.35215 45.5832V43.3544C6.35215 42.1285 5.46062 40.9027 4.30906 40.4941C4.12333 40.4198 3.93759 40.4198 3.71471 40.4569C3.41753 40.4941 3.00892 40.5312 2.71174 40.4941L5.05201 31.0958C5.1263 30.7987 5.08915 30.5015 4.94056 30.2415C4.94056 30.2043 3.82615 27.9383 3.82615 25.7838C3.82615 16.7942 12.2957 9.43909 22.6597 9.43909C33.0238 9.43909 45.2823 14.0453 45.2823 27.0097C45.2823 32.8418 42.8306 36.4822 40.4532 40.0112C38.373 43.0201 36.4413 45.8432 36.4413 49.6322ZM25.1486 20.7318C24.4428 20.7318 23.8856 20.1746 23.8856 19.4688C23.8856 18.763 24.4428 18.2058 25.1486 18.2058C25.8172 18.2058 26.4116 18.763 26.4116 19.4688C26.4116 20.1746 25.8544 20.7318 25.1486 20.7318ZM13.8559 28.2727C13.1501 28.2727 12.5929 27.7155 12.5929 27.0097C12.5929 26.3039 13.1501 25.7467 13.8559 25.7467C14.5245 25.7467 15.0817 26.3039 15.1189 27.0097C15.1189 27.7155 14.5617 28.2727 13.8559 28.2727Z" fill="currentColor"/>
</g>
<defs>
<linearGradient id="paint0_linear_2080_5854" x1="16.8647" y1="26.9354" x2="47.5928" y2="9.19763" gradientUnits="userSpaceOnUse">
<stop stop-color="#0033B0"/>
<stop offset="1" stop-color="#6390FF"/>
</linearGradient>
<clipPath id="clip0_2080_5854">
<rect width="50" height="59.3982" fill="currentColor" transform="translate(0 0.300903)"/>
</clipPath>
</defs>
</svg>
