<svg width="51" height="64" viewBox="0 0 51 64" fill="none" xmlns="http://www.w3.org/2000/svg">
<g clip-path="url(#clip0_2080_6114)">
<path d="M25.5303 63.2599C35.9237 63.2599 44.3492 54.8344 44.3492 44.441C44.3492 34.0476 35.9237 25.6221 25.5303 25.6221C15.1369 25.6221 6.71143 34.0476 6.71143 44.441C6.71143 54.8344 15.1369 63.2599 25.5303 63.2599Z" fill="url(#paint0_linear_2080_6114)"/>
<path d="M48.8768 52.2362H27.8926C27.6288 51.7795 27.2469 51.3977 26.7902 51.1339V46.3701C26.7902 46.3701 26.7863 46.3347 26.7863 46.315C36.9831 46.1181 47.4201 43.8189 47.3414 39.0079V8.77954C47.3886 8.55907 47.4201 8.33466 47.4201 8.10238C47.4201 3.02364 35.9634 0.740173 25.3335 0.740173C14.7036 0.740173 3.24688 3.02364 3.24688 8.10238V38.9685C3.24688 43.815 13.6878 46.1142 23.8807 46.315C23.8807 46.3347 23.8768 46.3504 23.8768 46.3701V51.1339C23.4201 51.3977 23.0382 51.7795 22.7744 52.2362H1.79019C0.963417 52.2362 0.333496 52.9055 0.333496 53.6929C0.333496 54.5197 1.00279 55.1496 1.79019 55.1496H22.7626C23.2744 56.0473 24.239 56.6457 25.3335 56.6457C26.428 56.6457 27.3925 56.0473 27.9044 55.1496H48.8768C49.7036 55.1496 50.3335 54.4803 50.3335 53.6929C50.3335 52.9055 49.7036 52.2362 48.8768 52.2362ZM44.428 18.378C44.428 19.6772 37.9319 22.7874 25.2941 22.7874C12.6563 22.7874 6.16027 19.7166 6.16027 18.378V12.0197C10.239 14.374 17.9831 15.4646 25.3335 15.4646C32.6839 15.4646 40.3256 14.3858 44.428 12.0669V18.378ZM6.16027 22.2953C10.239 24.6496 17.9831 25.7402 25.3335 25.7402C32.6839 25.7402 40.3611 24.6575 44.428 22.3268V28.6929C44.428 29.9921 37.9319 33.1024 25.2941 33.1024C12.6563 33.1024 6.16027 30.0315 6.16027 28.6929V22.2953ZM25.3335 3.69293C37.5382 3.69293 44.0107 6.55513 44.4437 7.95671C44.4398 8.00395 44.428 8.0512 44.428 8.10238V8.27954C43.9004 9.66143 37.4359 12.5118 25.3335 12.5118C13.2311 12.5118 6.19964 9.44096 6.19964 8.10238C6.19964 6.7638 12.6957 3.69293 25.3335 3.69293ZM6.16027 39.0079V32.6103C10.239 34.9646 17.9831 36.0551 25.3335 36.0551C32.6839 36.0551 40.3611 34.9528 44.428 32.626V39.0079C44.428 40.3071 37.9319 43.4173 25.2941 43.4173C12.6563 43.4173 6.16027 40.3465 6.16027 39.0079Z" fill="currentColor"/>
</g>
<defs>
<linearGradient id="paint0_linear_2080_6114" x1="9.23111" y1="53.8504" x2="41.798" y2="35.0512" gradientUnits="userSpaceOnUse">
<stop stop-color="#0033B0"/>
<stop offset="1" stop-color="#6390FF"/>
</linearGradient>
<clipPath id="clip0_2080_6114">
<rect width="50" height="62.5197" fill="currentColor" transform="translate(0.333496 0.740173)"/>
</clipPath>
</defs>
</svg>
