<svg xmlns="http://www.w3.org/2000/svg" width="50" height="51" viewBox="0 0 50 51" fill="none">
  <g clip-path="url(#clip0_2080_6118)">
    <path d="M33.9919 32.435C42.8329 32.435 50 25.2679 50 16.4269C50 7.58593 42.8329 0.418884 33.9919 0.418884C25.1509 0.418884 17.9839 7.58593 17.9839 16.4269C17.9839 25.2679 25.1509 32.435 33.9919 32.435Z" fill="url(#paint0_linear_2080_6118)"/>
    <path d="M43.0006 24.9768V21.4838C43.0006 19.6419 41.4936 18.1014 39.6182 18.1014H36.7615C35.8104 16.7384 34.655 15.5294 33.3355 14.5214L36.8519 10.1175C37.0227 10.1443 37.1935 10.161 37.371 10.161C39.2464 10.161 40.7535 8.58699 40.7535 6.74506C40.7535 4.90313 39.2464 3.36261 37.371 3.36261C35.4956 3.36261 33.9885 4.93662 33.9885 6.77855C33.9885 7.61914 34.3033 8.3961 34.8258 8.99222L31.4132 13.2621C29.1426 11.9962 26.5405 11.2662 23.7742 11.2662C21.008 11.2662 18.4192 11.9862 16.1553 13.242L12.7461 8.94868C13.2518 8.34587 13.5599 7.5756 13.5599 6.74506C13.5599 4.90313 12.0528 3.36261 10.1774 3.36261C8.30201 3.36261 6.79498 4.93662 6.79498 6.77855C6.79498 8.62048 8.30201 10.161 10.1774 10.161C10.3717 10.161 10.5626 10.1409 10.7501 10.1074L14.2464 14.4812C12.9135 15.4959 11.7447 16.7149 10.7869 18.098H7.90013C6.0582 18.098 4.51768 19.6051 4.51768 21.4805V24.9802C1.94568 25.5093 -0.00341797 27.8 -0.00341797 30.5227V37.3211C-0.00341797 40.0471 1.94568 42.3345 4.51768 42.8636V42.9808C4.51768 47.368 8.06758 50.9179 12.4547 50.9179H35.0937C39.4808 50.9179 43.0307 47.368 42.9973 42.9808V42.8703C45.586 42.3546 47.5518 40.0572 47.5518 37.3211V30.5227C47.5518 27.7866 45.586 25.4892 42.9973 24.9735L43.0006 24.9768ZM37.3743 5.64325C37.9772 5.64325 38.513 6.1456 38.513 6.7819C38.513 7.4182 38.0107 7.92055 37.3743 7.92055C36.738 7.92055 36.2357 7.4182 36.2357 6.7819C36.2357 6.1456 36.738 5.64325 37.3743 5.64325ZM9.04213 6.7819C9.04213 6.1456 9.54447 5.64325 10.1808 5.64325C10.8171 5.64325 11.3194 6.1456 11.3194 6.7819C11.3194 7.4182 10.8171 7.92055 10.1808 7.92055C9.54447 7.92055 9.04213 7.4182 9.04213 6.7819ZM23.7776 13.5468C27.7896 13.5468 31.4031 15.3151 33.8981 18.1014H13.657C16.152 15.3151 19.7655 13.5468 23.7776 13.5468ZM2.27723 37.3244V30.526C2.27723 29.0558 3.22498 27.8167 4.52103 27.3479V40.5227C3.21159 40.0639 2.27723 38.8013 2.27723 37.3244ZM40.7568 42.9842C40.7568 46.0987 38.2116 48.6439 35.0971 48.6439H12.4581C9.34353 48.6439 6.79832 46.0987 6.79832 42.9842V21.4838C6.79832 20.8475 7.30067 20.3452 7.93697 20.3452H39.6182C40.2545 20.3452 40.7568 20.8475 40.7568 21.4838V42.9842ZM45.2779 37.3244C45.2779 38.808 44.3134 40.0572 43.0006 40.516V27.3345C44.3268 27.7966 45.2779 29.0659 45.2779 30.526V37.3244Z" fill="currentColor"/>
    <path d="M27.7963 42.013C27.7963 42.013 25.72 43.0177 23.7776 43.0177C21.8352 43.0177 19.7923 42.013 19.7588 42.013C19.223 41.7116 18.5197 41.946 18.2518 42.5153C17.9839 43.0512 18.1848 43.7545 18.7541 44.0224C18.8546 44.0559 21.2659 45.2615 23.7776 45.2615C26.2893 45.2615 28.7006 44.0559 28.801 44.0224C29.3704 43.7545 29.5713 43.0847 29.3034 42.5153C29.0355 41.9795 28.3657 41.7451 27.7963 42.013Z" fill="currentColor"/>
    <path d="M22.639 31.6647C22.639 27.9138 19.5915 24.8663 15.8406 24.8663C12.0898 24.8663 9.04224 27.9138 9.04224 31.6647C9.04224 35.4155 12.0898 38.4631 15.8406 38.4631C19.5915 38.4631 22.639 35.4155 22.639 31.6647ZM15.8406 36.1858C13.3624 36.1858 11.3195 34.1764 11.3195 31.6647C11.3195 29.1529 13.3289 27.1436 15.8406 27.1436C18.3523 27.1436 20.3952 29.1864 20.3617 31.6647C20.3617 34.1429 18.3523 36.1858 15.8406 36.1858Z" fill="currentColor"/>
    <path d="M16.2081 33.9111C17.4496 33.7096 18.2926 32.5399 18.0911 31.2984C17.8896 30.0569 16.7198 29.2139 15.4783 29.4154C14.2369 29.6169 13.3938 30.7867 13.5954 32.0281C13.7969 33.2696 14.9666 34.1127 16.2081 33.9111Z" fill="currentColor"/>
    <path d="M31.7147 24.8663C27.9638 24.8663 24.9163 27.9138 24.9163 31.6647C24.9163 35.4155 27.9638 38.4631 31.7147 38.4631C35.4655 38.4631 38.513 35.4155 38.513 31.6647C38.513 27.9138 35.4655 24.8663 31.7147 24.8663ZM31.7147 36.1858C29.2364 36.1858 27.1936 34.1764 27.1936 31.6647C27.1936 29.1529 29.2029 27.1436 31.7147 27.1436C34.2264 27.1436 36.2357 29.1864 36.2357 31.6647C36.2357 34.1429 34.2264 36.1858 31.7147 36.1858Z" fill="currentColor"/>
    <path d="M31.7145 29.3875C30.4419 29.3875 29.4373 30.4256 29.4373 31.6647C29.4373 32.9039 30.4754 33.942 31.7145 33.942C32.9537 33.942 33.9584 32.9374 33.9918 31.6647C33.9918 30.3921 32.9537 29.3875 31.7145 29.3875Z" fill="currentColor"/>
  </g>
  <defs>
    <linearGradient id="paint0_linear_2080_6118" x1="20.1272" y1="24.4309" x2="47.8298" y2="8.43965" gradientUnits="userSpaceOnUse">
      <stop stop-color="#0033B0"/>
      <stop offset="1" stop-color="#6390FF"/>
    </linearGradient>
    <clipPath id="clip0_2080_6118">
      <rect width="50" height="50.5023" fill="currentColor" transform="translate(0 0.418884)"/>
    </clipPath>
  </defs>
</svg>