<svg xmlns="http://www.w3.org/2000/svg" width="215" height="30">
  <g fill="#FFF" fill-rule="nonzero">
    <path d="M8.88 14.888a2.183 2.183 0 004.356.248 2.182 2.182 0 00-4.357-.248zm-8.135-.556a.703.703 0 10-.08 1.406.705.705 0 10.08-1.406zM8.74 2.244a.703.703 0 00.313-.946.705.705 0 10-.312.946zM10.954 6.1c.538-.271.754-.926.483-1.462a1.091 1.091 0 00-1.464-.483 1.088 1.088 0 10.981 1.944zM3.506 8.75a.898.898 0 00.985-1.499.898.898 0 00-.985 1.499zm1.326 5.19a1.09 1.09 0 10-.125 2.177 1.09 1.09 0 00.125-2.178zm-1.207 7.314a.896.896 0 10.807 1.601.896.896 0 00-.807-1.601zM7.86 11.69a1.282 1.282 0 001.406-2.142 1.283 1.283 0 00-1.775.369 1.277 1.277 0 00.369 1.773zm13.436-5.677c.503.33 1.179.189 1.51-.314a1.091 1.091 0 00-1.824-1.194c-.33.503-.19 1.178.314 1.508zm2.236-3.843a.706.706 0 10.775-1.18.706.706 0 00-.775 1.18zm-2.065 10.644a2.182 2.182 0 00-2.302 2.052 2.184 2.184 0 002.054 2.3l.126.003c1.155 0 2.11-.903 2.177-2.055a2.163 2.163 0 00-.551-1.575 2.163 2.163 0 00-1.504-.725zm-9.796-1.274a2.184 2.184 0 002.93.965 2.18 2.18 0 10-1.963-3.893 2.18 2.18 0 00-.967 2.927zm17.105-2.792a.899.899 0 00.398-1.205.899.899 0 00-1.604.807.9.9 0 001.206.398zm-5.534.694a1.279 1.279 0 00-.568 1.72 1.283 1.283 0 002.291-1.152 1.284 1.284 0 00-1.723-.568zm-7.123-7.6A.897.897 0 1016.221.05a.897.897 0 00-.102 1.792zm-.011 5.641a1.282 1.282 0 10.148-2.56 1.282 1.282 0 00-.148 2.56zM9.16 20.56a1.281 1.281 0 10-1.155-2.287 1.28 1.28 0 00-.568 1.72c.319.631 1.09.885 1.722.567zm7.778-11.208a2.18 2.18 0 001.822 3.375 2.18 2.18 0 10.004-4.36c-.74 0-1.422.369-1.826.985zm3.792 9.111a2.172 2.172 0 00-1.95-1.2c-.337 0-.677.08-.98.234-.52.262-.907.71-1.09 1.264a2.153 2.153 0 00.124 1.663 2.18 2.18 0 002.93.965 2.18 2.18 0 00.967-2.926zm3.812-.152a1.285 1.285 0 00-1.776.369 1.283 1.283 0 002.145 1.405 1.28 1.28 0 00-.37-1.774zm4.178-3.273a1.092 1.092 0 00-2.178-.124 1.09 1.09 0 002.177.124zm3.017-.775a.705.705 0 10-.082 1.408.705.705 0 00.082-1.408zm-2.842 6.988a.896.896 0 10-.984 1.5.897.897 0 10.984-1.5zM8.87 27.831a.704.704 0 10.202.976.704.704 0 00-.203-.976zm14.79-.073a.703.703 0 10.636 1.257.704.704 0 10-.636-1.257zm-8.196-7.108c.32-.488.43-1.07.312-1.64a2.183 2.183 0 00-4.273.888 2.18 2.18 0 003.961.751zm-4.359 3.339a1.09 1.09 0 10-1.196 1.823 1.09 1.09 0 001.196-1.823zm5.085 4.171a.897.897 0 10-.103 1.791.897.897 0 00.103-1.791zm.01-5.641a1.28 1.28 0 10-.145 2.557 1.28 1.28 0 10.145-2.557zm5.247 1.383a1.09 1.09 0 10.98 1.942 1.09 1.09 0 00-.98-1.942zM45.518 9.853c2.112 0 3.59 1.16 3.59 3.312h2.768c0-3.776-2.789-5.59-6.4-5.59-4.437 0-7.014 2.405-7.014 7.49 0 5.21 2.577 7.489 7.013 7.489 3.655 0 6.401-1.772 6.401-5.549h-2.662c0 2.11-1.457 3.27-3.696 3.27-2.937 0-4.288-1.624-4.288-5v-.422c0-3.312 1.372-5 4.288-5zm13.674-2.025L53.55 22.3h2.789l1.161-3.144h6.634l1.182 3.144h2.916l-5.64-14.473h-3.401zm-.846 9.05l1.48-3.966c.295-.78.823-2.468.929-2.764h.105c.106.296.634 2.005.93 2.764l1.478 3.967h-4.922zm24.974-4.662c0-2.68-1.542-4.388-4.732-4.388H70.94V22.3h2.704v-5.59h4.5l2.745 5.59h2.958l-3.105-6.012c1.71-.675 2.576-2.11 2.576-4.072zm-4.943 2.215h-4.732v-4.304h4.732c1.457 0 2.218.78 2.218 2.089 0 1.372-.824 2.215-2.218 2.215zm14.43-6.603h-5.788V22.3h5.788c4.372 0 7.034-2.279 7.034-7.237s-2.662-7.236-7.034-7.236zm4.267 7.447c-.021 3.165-1.521 4.726-4.267 4.726h-3.085v-9.873h3.085c2.746 0 4.267 1.56 4.267 4.725v.422zm9.846-7.447l-5.64 14.473h2.788l1.162-3.144h6.633l1.183 3.144h2.915l-5.64-14.473h-3.401zm-.845 9.05l1.479-3.966c.296-.78.823-2.468.93-2.764h.105c.105.296.633 2.005.93 2.764l1.478 3.967h-4.922zm22.248-.443c0 .275.042 1.013.042 1.14l-.105.042c-.063-.084-.486-.823-.719-1.16l-6.295-8.63h-2.577v14.474h2.599v-8.672c0-.358-.043-1.054-.043-1.16l.106-.063c.063.084.38.696.718 1.182l6.337 8.713h2.535V7.828h-2.598v8.607zm13.367-8.861c-4.541 0-7.287 2.406-7.287 7.49 0 5.085 2.746 7.49 7.288 7.49S149 20.149 149 15.064c0-5.084-2.767-7.49-7.31-7.49zm4.543 7.722c0 3.313-1.585 4.98-4.542 4.98-2.936 0-4.52-1.667-4.52-4.98v-.443c0-3.312 1.605-5 4.52-5 2.936 0 4.542 1.688 4.542 5v.443zM163.888 22c3.339 0 5.775-1.994 5.775-6.72v-.965c0-4.767-2.436-6.72-5.775-6.72H159.1V22h4.788zm0-1.406h-3.234V9.002h3.234c2.52 0 4.2 1.449 4.2 5.208v1.176c0 3.864-1.743 5.208-4.2 5.208zm15.528 1.617c3.234 0 5.67-1.89 5.67-6.825V14.21c0-4.935-2.436-6.825-5.712-6.825h-.126c-3.17 0-5.67 1.848-5.67 6.825v1.176c0 4.977 2.457 6.825 5.712 6.825h.126zm-.084-1.407c-2.499 0-4.2-1.344-4.2-5.292v-1.428c0-3.97 1.743-5.292 4.2-5.292 2.5 0 4.2 1.344 4.2 5.292v1.428c0 3.99-1.764 5.292-4.2 5.292zm15.445 1.407c2.961 0 5.334-1.701 5.334-5.586h-1.512c0 3.024-1.638 4.179-3.948 4.179-2.478 0-4.053-1.344-4.053-5.292v-1.428c0-3.97 1.596-5.292 4.074-5.292 2.247 0 3.885 1.155 3.885 4.2h1.554c0-3.97-2.394-5.607-5.355-5.607h-.168c-3.276 0-5.565 1.89-5.565 6.825v1.176c0 4.977 2.289 6.825 5.586 6.825h.168zm14.227 0c3.024 0 5.27-1.176 5.27-4.326 0-5.292-8.714-3.13-8.714-6.825 0-1.575 1.449-2.268 3.444-2.268 1.89 0 3.36.798 3.36 2.352v.399h1.512v-.252c0-2.688-2.058-3.906-4.914-3.906-2.71 0-4.935 1.113-4.935 3.8 0 5.188 8.715 2.878 8.715 6.952 0 1.91-1.596 2.667-3.78 2.667-2.163 0-3.76-.756-3.76-2.688 0-.19 0-.336.022-.525h-1.533c-.021.147-.021.273-.021.399 0 3.003 2.226 4.22 5.334 4.22z"/>
  </g>
</svg>
