<?xml version="1.0" encoding="UTF-8"?>
<svg width="182px" height="28px" viewBox="0 0 182 28" version="1.1" xmlns="http://www.w3.org/2000/svg" xmlns:xlink="http://www.w3.org/1999/xlink">
    <!-- Generator: Sketch 63.1 (92452) - https://sketch.com -->
    <title>cardano-docs-logo-web@1x</title>
    <desc>Created with Sketch.</desc>
    <g id="Page-1" stroke="none" stroke-width="1" fill="none" fill-rule="evenodd">
        <g id="Artboard" transform="translate(-1243.000000, -146.000000)" fill="#FFFFFF">
            <g id="cardano-docs-logo-web" transform="translate(1242.000000, 145.000000)">
                <g id="Logo/White">
                    <path d="M16.4900314,27.3216487 C16.9637985,27.3478028 17.3255111,27.7448339 17.2987549,28.2077418 C17.2721998,28.671043 16.8662286,29.024615 16.3924615,28.9986575 C15.9186943,28.9723068 15.5567805,28.575669 15.5839391,28.1123678 C15.6108966,27.6494599 16.0164654,27.2954946 16.4900314,27.3216487 Z M8.55126337,27.2044469 C8.75565718,26.8998401 9.17410118,26.8146918 9.48572126,27.0144855 C9.79734134,27.2144759 9.88424895,27.6229125 9.67945279,27.9279126 C9.47546134,28.2321261 9.05701733,28.3178643 8.74539725,28.1176773 C8.43397835,27.9180802 8.34686957,27.5092503 8.55126337,27.2044469 Z M23.6371757,26.9452657 C23.9701203,26.7812618 24.3758903,26.9122289 24.5436703,27.237287 C24.7114502,27.5627384 24.5770653,27.9591795 24.2449254,28.1231834 C23.9113772,28.2871873 23.5058084,28.1562202 23.3384308,27.8311621 C23.1706509,27.5057107 23.3044322,27.1088763 23.6371757,26.9452657 Z M10.1809821,23.7096299 C10.497028,23.2392493 11.1432021,23.1076923 11.6250162,23.4166253 C12.106428,23.725165 12.2412153,24.3571896 11.9253705,24.8279634 C11.6095258,25.2989339 10.9627481,25.4300977 10.480934,25.1217546 C9.99932105,24.8126249 9.86513732,24.1806003 10.1809821,23.7096299 Z M21.5188029,23.33482 C22.0338109,23.0815382 22.6608734,23.2836916 22.9199868,23.7867156 C23.1786979,24.2895429 22.9722923,24.9026894 22.4576867,25.155578 C21.9434833,25.4090564 21.3160185,25.2072962 21.0573075,24.7042722 C20.7977917,24.2012483 21.005002,23.5886917 21.5188029,23.33482 Z M16.3743089,22.0389607 L16.4998889,22.0397004 C17.1764405,22.07726 17.6940637,22.6441944 17.6554381,23.3055195 C17.6170137,23.9668446 17.0374285,24.4726216 16.3604747,24.4348654 C15.6837219,24.3973057 15.1667022,23.8301747 15.2049254,23.1688496 C15.2433499,22.5077211 15.8235386,22.0023374 16.4998889,22.0397004 Z M4.46841668,20.8554899 C4.89249359,20.6468471 5.40890982,20.8134074 5.62215533,21.2269568 C5.83580318,21.6412928 5.66520678,22.1462833 5.24173339,22.3549261 C4.81846119,22.5633723 4.30184378,22.3972053 4.0883971,21.9832626 C3.87495042,21.5691232 4.0449433,21.0639361 4.46841668,20.8554899 Z M27.4560808,21.0946131 C27.7153954,20.7070212 28.2485091,20.5984718 28.6452262,20.8529335 C29.0421445,21.1071986 29.1523884,21.6273309 28.8928727,22.0153161 C28.6319487,22.4033014 28.0998408,22.5112608 27.7033249,22.2571924 C27.3064066,22.0027307 27.1957603,21.4822051 27.4560808,21.0946131 Z M14.0503821,17.1294156 C14.4573591,17.1294156 14.8528692,17.2450442 15.194062,17.4641094 C15.6603856,17.7630134 15.9796504,18.221595 16.0933142,18.7550994 C16.2069781,19.288407 16.1009589,19.8335135 15.7949717,20.2891455 C15.4077098,20.8665022 14.754897,21.2110284 14.0477668,21.2110284 C13.640991,21.2110284 13.2458833,21.0955964 12.9044893,20.8765312 C12.4381656,20.5778238 12.1189009,20.1192422 12.0054382,19.5859345 C11.8915731,19.0522335 11.9975924,18.5069304 12.3031772,18.0514951 C12.6906402,17.4739417 13.3438555,17.1294156 14.0503821,17.1294156 Z M18.968105,17.1186 C19.7615393,17.1186 20.4767164,17.5486677 20.833802,18.2416531 C21.3518277,19.2463245 20.9368036,20.4761571 19.9087994,20.9819342 C19.6183027,21.1254868 19.2940085,21.2008027 18.9705191,21.2008027 C18.1770849,21.2008027 17.462109,20.7707349 17.1054257,20.0781429 C16.8541581,19.5910473 16.8123137,19.0380749 16.9871348,18.5208923 C17.1619559,18.0027265 17.5321179,17.5826877 18.0298248,17.3372718 C18.3201204,17.1941125 18.645018,17.1186 18.968105,17.1186 Z M8.65909318,18.0634906 C9.26422759,17.7651765 10.0021375,18.0031198 10.3071188,18.5946351 C10.6116978,19.1861504 10.3684772,19.9072563 9.76314159,20.2055704 C9.15800718,20.5032945 8.42049962,20.2655478 8.11551832,19.6740325 C7.81073819,19.0823206 8.05415994,18.3614113 8.65909318,18.0634906 Z M22.7811761,18.4449865 C23.1525451,17.8916208 23.9137913,17.7368593 24.4798978,18.0998703 C25.0470101,18.4632747 25.2047313,19.2067984 24.8331611,19.7603607 C24.4615909,20.3147097 23.7009482,20.4688812 23.1342382,20.1058701 C22.5681317,19.7426625 22.4096058,18.9989421 22.7811761,18.4449865 Z M11.5483166,12.969924 L11.6980428,12.9732734 C12.8475567,13.0371838 13.7293068,14.0031157 13.6639249,15.1263654 C13.6009571,16.2059595 12.6860132,17.0515432 11.5811601,17.0515432 C11.5413274,17.0515432 11.5012936,17.0501667 11.4608574,17.0482002 C10.3121482,16.9838965 9.43019696,16.0179646 9.49537766,14.8947148 C9.56055837,13.775988 10.5420912,12.9073965 11.6980428,12.9732734 Z M21.3889909,12.9489093 L21.5387192,12.9522321 C22.0955716,12.9829091 22.6067573,13.2238021 22.9775229,13.6308622 C23.3486907,14.0371357 23.5361858,14.5608076 23.5039978,15.1055208 C23.4414324,16.1847216 22.5264885,17.029912 21.4218366,17.029912 C21.3820039,17.029912 21.3415677,17.0287321 21.3015339,17.026569 C20.1524223,16.9628552 19.2706722,15.9967267 19.3360541,14.8734769 C19.4008325,13.7555366 20.3827677,12.8865519 21.5387192,12.9522321 Z M5.62356355,14.0058687 C6.19872288,14.037529 6.63829027,14.5191184 6.60569992,15.0813332 C6.57310957,15.6437447 6.08023081,16.0734192 5.5048703,16.041759 C4.93011331,16.0091155 4.49014358,15.5279194 4.52293511,14.9657045 C4.55572663,14.4032931 5.04860539,13.9736186 5.62356355,14.0058687 Z M27.3806874,13.9579676 L27.4945052,13.9582801 C28.0696645,13.9903336 28.5098355,14.4723163 28.4768428,15.0345311 C28.4444536,15.5963527 27.9511725,16.0266171 27.3762143,15.9945636 C26.8008538,15.9623134 26.3610852,15.4809207 26.3938768,14.9189025 C26.4268695,14.3562943 26.9193459,13.9264232 27.4945052,13.9582801 Z M1.71292266,14.373206 C2.08509642,14.3940506 2.3693567,14.7053434 2.3484345,15.0693377 C2.32731112,15.432742 2.00804639,15.7113914 1.63587263,15.6905468 C1.26410123,15.6700954 0.979438599,15.358016 1.0011655,14.9944151 C1.0220877,14.6306174 1.34115126,14.3523614 1.71292266,14.373206 Z M31.363704,14.3094923 C31.736079,14.329747 32.0207416,14.6418263 31.9988135,15.005624 C31.9778913,15.3692249 31.659029,15.647481 31.2872575,15.6266364 C30.9146814,15.6063817 30.6300188,15.2943023 30.6513434,14.9305047 C30.6728691,14.566707 30.9913291,14.2888443 31.363704,14.3094923 Z M14.0288564,8.79923632 C14.8230953,8.79923632 15.5376689,9.22910747 15.8947545,9.92189615 C16.4127802,10.9267642 15.9977561,12.1562036 14.9697519,12.6627672 C14.6794563,12.8055332 14.354961,12.8812424 14.0320752,12.8812424 C13.2378363,12.8812424 12.5230615,12.4507813 12.1663782,11.7585826 C11.6483525,10.7533212 12.0633766,9.52388188 13.0911797,9.0175149 C13.3816764,8.87494556 13.7059705,8.79923632 14.0288564,8.79923632 Z M18.9522122,8.78861736 C19.3589881,8.78861736 19.754297,8.90444266 20.0954898,9.12350783 C21.0581122,9.73960404 21.3276867,11.0077829 20.6963995,11.9487406 C20.3089364,12.525704 19.6561236,12.8704268 18.9489934,12.8704268 C18.5422176,12.8704268 18.1469087,12.7547982 17.8055147,12.535733 C16.8432947,11.9184569 16.5737202,10.6514579 17.2052085,9.71030358 C17.5922692,9.1333402 18.2452833,8.78861736 18.9522122,8.78861736 Z M8.16681794,10.2390884 C8.53838817,9.68572266 9.29862851,9.53096118 9.8653385,9.89436552 C10.4320485,10.2573766 10.590172,11.0009003 10.2184006,11.5544626 C9.84723274,12.1088116 9.08638888,12.2631797 8.5196789,11.899972 C7.95296891,11.5367644 7.79484536,10.7934373 8.16681794,10.2390884 Z M23.2366363,9.79466531 C23.8417707,9.49654789 24.5796806,9.73429456 24.8846619,10.3258099 C25.189442,10.9173251 24.9460203,11.6386277 24.341087,11.9367451 C23.7355503,12.2346659 22.9980427,11.9969192 22.6930614,11.4054039 C22.3882813,10.8138886 22.6315019,10.0925861 23.2366363,9.79466531 Z M4.10710638,7.98472291 C4.36742683,7.59673765 4.89953471,7.48877825 5.29685535,7.74304329 C5.6931701,7.9971117 5.80381635,8.51763728 5.54409942,8.9050326 C5.28377897,9.29282122 4.75146991,9.40117392 4.35435045,9.14690887 C3.9580357,8.89264382 3.8469871,8.37231488 4.10710638,7.98472291 Z M27.7580445,7.64491626 C28.181719,7.43647004 28.6979341,7.60263707 28.9117831,8.01677643 C29.1252298,8.43111244 28.9544322,8.93590624 28.53116,9.1445491 C28.1072843,9.35279867 27.5912704,9.18643499 27.3778237,8.77249228 C27.1639747,8.35854956 27.3343699,7.85336247 27.7580445,7.64491626 Z M16.550585,5.56497703 C17.2275389,5.60234003 17.7447598,6.16927439 17.7067378,6.83079615 C17.667911,7.4919246 17.0881246,7.99750499 16.4117743,7.96033864 C15.7350216,7.9223857 15.2178006,7.35564798 15.2562251,6.69451952 C15.2948507,6.03280112 15.8744358,5.52722073 16.550585,5.56497703 Z M10.5420912,4.84387112 C11.0560933,4.5909826 11.6835582,4.79293945 11.9426716,5.29576678 C12.2019862,5.79839745 11.9949771,6.41154395 11.4805726,6.66462912 C10.9661681,6.91830423 10.3393068,6.71575743 10.0799922,6.2133234 C9.82047647,5.71049608 10.0276867,5.09715293 10.5420912,4.84387112 Z M21.0748097,5.17187893 C21.3904533,4.70071183 22.0372309,4.56935139 22.5186427,4.87828441 C23.0004568,5.18741407 23.1346405,5.81924207 22.8187958,6.28962258 C22.502951,6.76059303 21.8565757,6.89215012 21.3747616,6.5836104 C20.8931487,6.27467738 20.7587637,5.64265274 21.0748097,5.17187893 Z M8.75505365,1.87665895 C9.08819946,1.7124584 9.49356709,1.8436222 9.66154822,2.1686803 C9.82932817,2.4941317 9.69514444,2.89076944 9.36280334,3.05477335 C9.02965753,3.21877725 8.62408872,3.08800675 8.45650995,2.76255536 C8.28872999,2.43730061 8.42271255,2.04046621 8.75505365,1.87665895 Z M23.3199227,2.07192979 C23.5245177,1.76732302 23.9431629,1.68217471 24.2543806,1.88236173 C24.5660007,2.08195881 24.6527071,2.49059204 24.4487157,2.79559211 C24.2443219,3.10019889 23.8256767,3.18515055 23.5142578,2.98555347 C23.2026377,2.7855631 23.1153277,2.37673322 23.3199227,2.07192979 Z M16.5192017,1.00138151 C16.9927677,1.02773226 17.3546815,1.42456665 17.3279252,1.88727791 C17.3009678,2.35038247 16.8951978,2.70415109 16.4214307,2.67799699 C15.9478647,2.65164624 15.5859509,2.25481185 15.612506,1.79190394 C15.6396646,1.32879938 16.0454346,0.975030763 16.5192017,1.00138151 Z" id="Combined-Shape-Copy"></path>
                    <path d="M45.3626786,9.01606671 C46.4726729,9.01606671 47.5878531,9.28960748 48.7084188,9.83689241 L48.7084188,9.83689241 L47.926536,11.8454342 C47.4992929,11.6383974 47.0692574,11.4577995 46.6368284,11.3034371 C46.2041999,11.1494814 45.7793503,11.0724019 45.3626786,11.0724019 C44.4505485,11.0724019 43.7444605,11.4220053 43.2442151,12.1203986 C42.7531449,12.8061826 42.5046178,13.7585926 42.4954427,14.9739679 L42.4954427,14.9739679 C42.4936475,16.2229001 42.7437702,17.1966646 43.2442151,17.8954647 C43.7444605,18.5940614 44.4505485,18.9434615 45.3626786,18.9434615 C45.7793503,18.9434615 46.2041999,18.8665853 46.6368284,18.7126297 C47.0692574,18.5582672 47.4992929,18.3774659 47.926536,18.1704291 L47.926536,18.1704291 L48.7084188,20.1791743 C47.5878531,20.7264592 46.4726729,21 45.3626786,21 C44.2734281,21 43.3236001,20.7569656 42.5131946,20.2706935 C41.7027891,19.7844214 41.0812721,19.0858247 40.648843,18.1742933 C40.2162145,17.2629652 40,16.201749 40,14.9900346 L40,14.9900346 L40.0003989,14.9739679 L40.009174,14.6214061 C40.0524978,13.5768131 40.2650423,12.6500712 40.648843,11.8417734 C41.0812721,10.930242 41.7027891,10.2314419 42.5131946,9.74516982 C43.3236001,9.25910108 44.2734281,9.01606671 45.3626786,9.01606671 Z M123.574691,9 C125.330935,9 126.674298,9.51535489 127.604379,10.546268 C128.53486,11.5773846 129,13.0599959 129,14.9941021 C129,16.9229205 128.53107,18.4053285 127.592611,19.4417328 C126.654551,20.4779337 125.310192,20.9961359 123.559133,20.9961359 C121.807875,20.9961359 120.463316,20.4779337 119.525456,19.4417328 C118.587196,18.4053285 118.118266,16.9178361 118.118266,14.9780354 C118.118266,13.0384381 118.588593,11.5572504 119.529445,10.5342689 C120.469898,9.51149075 121.818447,9 123.574691,9 Z M69.4879506,9.18344519 C71.0411448,9.18344519 72.1902332,9.47162904 72.9356148,10.0479967 C73.6805975,10.6247712 74.053388,11.5001017 74.053388,12.6745983 C74.053388,13.3599756 73.8682892,13.9694936 73.4984906,14.5035591 C73.1280936,15.0376246 72.6045114,15.4561725 71.9269461,15.7589994 C73.6468888,18.3788896 74.767255,20.071385 75.2884437,20.8364857 L72.5993254,20.8364857 L69.8711131,16.3648566 L68.5814054,16.3648566 L68.5814054,20.8364857 L66.1579678,20.8364857 L66.1579678,9.18344519 L69.4879506,9.18344519 Z M82.2681436,9.18344519 C84.1336919,9.18344519 85.5825686,9.68558064 86.6143746,10.6900549 C87.64638,11.6941224 88.1621833,13.0970104 88.1621833,14.898312 C88.1621833,16.8167582 87.626833,18.2859467 86.5557334,19.3060809 C85.4848332,20.3264185 83.9382212,20.8364857 81.9162963,20.8364857 L78.6798602,20.8364857 L78.6798602,9.18344519 L82.2681436,9.18344519 Z M107.706859,9.18344519 L112.623745,17.8287574 L112.608386,9.18344519 L114.789081,9.18344519 L114.789081,20.8364857 L111.709022,20.8364857 L106.815672,12.1596502 L106.815672,20.8364857 L104.650136,20.8364857 L104.650136,9.18344519 L107.706859,9.18344519 Z M58.5968423,9.13565182 L62.6456786,20.8364857 L60.0273686,20.8364857 L59.1854484,18.0628432 L55.0454589,18.0628432 L54.2035387,20.8364857 L51.5850293,20.8364857 L53.5868088,15.0518609 L55.6260867,9.13565182 L58.5968423,9.13565182 Z M97.2330207,9.13565182 L101.281857,20.8364857 L98.663547,20.8364857 L98.3617642,19.8265202 L97.8216268,18.0628432 L93.6814379,18.0628432 L93.1438935,19.8181818 L92.8397172,20.8364857 L90.2212077,20.8364857 L92.2227877,15.0518609 L94.2622651,9.13565182 L97.2330207,9.13565182 Z M123.574691,11.0565385 C122.610502,11.0565385 121.883271,11.3874314 121.393597,12.0488103 C120.903923,12.7103925 120.658986,13.6920887 120.658986,14.9941021 C120.658986,16.2959121 120.901131,17.276388 121.385818,17.935123 C121.870506,18.5940614 122.594944,18.9235306 123.559133,18.9235306 C125.492498,18.9235306 126.45928,17.6137889 126.45928,14.9941021 C126.45928,12.3691275 125.497684,11.0565385 123.574691,11.0565385 Z M82.3932049,11.2080537 L81.1032978,11.2080537 L81.1032978,18.7960138 L82.1430822,18.7960138 C84.4775608,18.7960138 85.6449995,17.5179988 85.6449995,14.9621721 C85.6449995,12.4592231 84.5611345,11.2080537 82.3932049,11.2080537 Z M57.1154537,11.3044539 L55.6801403,15.9902379 L58.5505676,15.9902379 L57.1154537,11.3044539 Z M95.7516321,11.3044539 L94.3163187,15.9902379 L97.186746,15.9902379 L95.7516321,11.3044539 Z M69.3162156,11.2080537 L68.5814054,11.2080537 L68.5814054,14.3563148 L69.3630887,14.3563148 C70.1292142,14.3563148 70.6944835,14.2261542 71.0594951,13.9658328 C71.4239083,13.7053081 71.6064141,13.2961155 71.6064141,12.7380517 C71.6064141,12.1856823 71.4201186,11.7923531 71.0477269,11.558674 C70.6749364,11.3249949 70.0978989,11.2080537 69.3162156,11.2080537 Z" id="Combined-Shape-Copy-2"></path>
                </g>
                <path d="M140.875354,20.8300283 C143.577904,20.8300283 145.549575,19.2152975 145.549575,15.3909348 L145.549575,14.6090652 C145.549575,10.7507082 143.577904,9.16997167 140.875354,9.16997167 L137,9.16997167 L137,20.8300283 L140.875354,20.8300283 Z M140.875354,19.6912181 L138.25779,19.6912181 L138.25779,10.3087819 L140.875354,10.3087819 C142.915014,10.3087819 144.274788,11.4815864 144.274788,14.5240793 L144.274788,15.4759207 C144.274788,18.6033994 142.864023,19.6912181 140.875354,19.6912181 Z M153.615675,21 C156.233239,21 158.20491,19.470255 158.20491,15.4759207 L158.20491,14.5240793 C158.20491,10.529745 156.233239,9 153.581681,9 L153.479698,9 C150.913126,9 148.890463,10.4957507 148.890463,14.5240793 L148.890463,15.4759207 C148.890463,19.5042493 150.879131,21 153.513692,21 L153.615675,21 Z M153.547686,19.8611898 C151.525024,19.8611898 150.148253,18.7733711 150.148253,15.5779037 L150.148253,14.4220963 C150.148253,11.2096317 151.559018,10.1388102 153.547686,10.1388102 C155.570349,10.1388102 156.94712,11.2266289 156.94712,14.4220963 L156.94712,15.5779037 C156.94712,18.8073654 155.519358,19.8611898 153.547686,19.8611898 Z M166.220019,21 C168.616619,21 170.537299,19.6232295 170.537299,16.4787535 L169.313503,16.4787535 C169.313503,18.9263456 167.987724,19.8611898 166.118036,19.8611898 C164.11237,19.8611898 162.837583,18.7733711 162.837583,15.5779037 L162.837583,14.4220963 C162.837583,11.2096317 164.129367,10.1388102 166.135033,10.1388102 C167.95373,10.1388102 169.279509,11.0736544 169.279509,13.5382436 L170.537299,13.5382436 C170.537299,10.325779 168.599622,9 166.203022,9 L166.067044,9 C163.415486,9 161.562795,10.529745 161.562795,14.5240793 L161.562795,15.4759207 C161.562795,19.5042493 163.415486,21 166.084042,21 L166.220019,21 Z M178.31728,21 C180.764873,21 182.583569,20.0481586 182.583569,17.4985836 C182.583569,13.2152975 175.529745,14.9660057 175.529745,11.9745042 C175.529745,10.6997167 176.70255,10.1388102 178.31728,10.1388102 C179.847025,10.1388102 181.036827,10.7847025 181.036827,12.0424929 L181.036827,12.3654391 L182.260623,12.3654391 L182.260623,12.1614731 C182.260623,9.98583569 180.594901,9 178.283286,9 C176.090652,9 174.288952,9.90084986 174.288952,12.0764873 C174.288952,16.2747875 181.342776,14.4050992 181.342776,17.7025496 C181.342776,19.2492918 180.050992,19.8611898 178.283286,19.8611898 C176.532578,19.8611898 175.240793,19.2492918 175.240793,17.6855524 C175.240793,17.5325779 175.240793,17.4135977 175.25779,17.2606232 L174.016997,17.2606232 C174,17.3796034 174,17.4815864 174,17.5835694 C174,20.0141643 175.8017,21 178.31728,21 Z" id="DOCS" fill-rule="nonzero"></path>
            </g>
        </g>
    </g>
</svg>