<svg xmlns="http://www.w3.org/2000/svg" width="16" height="18">
  <path d="M13.905 0a1.85 1.85 0 011.845 1.854V18l-1.935-1.71-1.089-1.008-1.152-1.071.477 1.665H1.845A1.85 1.85 0 010 14.022V1.854A1.85 1.85 0 011.845 0h12.06zm-3.474 11.754c1.989-.063 2.754-1.368 2.754-1.368 0-2.898-1.296-5.247-1.296-5.247-1.296-.972-2.529-.945-2.529-.945l-.126.144c1.53.468 2.241 1.143 2.241 1.143a7.336 7.336 0 00-4.527-.846l-.153.018c-.315.027-1.08.144-2.043.567-.333.153-.531.261-.531.261s.747-.711 2.367-1.179l-.09-.108s-1.233-.027-2.529.945c0 0-1.296 2.349-1.296 5.247 0 0 .756 1.305 2.745 1.368 0 0 .333-.405.603-.747-1.143-.342-1.575-1.062-1.575-1.062l.252.153.036.027.035.02.01.005.036.02c.225.126.45.225.657.306.369.144.81.288 1.323.387a6.305 6.305 0 002.331.009 5.924 5.924 0 001.305-.387 5.15 5.15 0 001.035-.531s-.45.738-1.629 1.071c.27.342.594.729.594.729zM6.246 7.551c-.513 0-.918.45-.918.999 0 .549.414.999.918.999.513 0 .918-.45.918-.999.009-.549-.405-.999-.918-.999zm3.285 0c-.513 0-.918.45-.918.999 0 .549.414.999.918.999.513 0 .918-.45.918-.999 0-.549-.405-.999-.918-.999z" fill="#FFF" fill-rule="evenodd"/>
</svg>
