<svg xmlns="http://www.w3.org/2000/svg" width="18" height="15">
  <path d="M18 1.918a7.362 7.362 0 01-2.121.581A3.7 3.7 0 0017.503.456a7.404 7.404 0 01-2.345.896A3.687 3.687 0 0012.462.186c-2.384 0-4.136 2.224-3.598 4.534A10.482 10.482 0 011.254.862a3.696 3.696 0 001.142 4.93A3.679 3.679 0 01.724 5.33c-.04 1.711 1.185 3.312 2.962 3.668-.52.14-1.09.174-1.668.063a3.695 3.695 0 003.45 2.564A7.428 7.428 0 010 13.155a10.452 10.452 0 005.661 1.659c6.857 0 10.73-5.79 10.496-10.985A7.492 7.492 0 0018 1.918z" fill="#FFF" fill-rule="nonzero"/>
</svg>
