<?xml version="1.0" encoding="UTF-8"?>
<svg width="203px" height="63px" viewBox="0 0 203 63" version="1.1" xmlns="http://www.w3.org/2000/svg" xmlns:xlink="http://www.w3.org/1999/xlink">
    <!-- Generator: Sketch 63.1 (92452) - https://sketch.com -->
    <title>Group 23 Copy@1x</title>
    <desc>Created with Sketch.</desc>
    <defs>
        <polygon id="path-1" points="0 62.9925611 202.847912 62.9925611 202.847912 0.195018066 0 0.195018066"></polygon>
    </defs>
    <g id="UI-Examples" stroke="none" stroke-width="1" fill="none" fill-rule="evenodd">
        <g id="Prism-UI---Info-Panels" transform="translate(-49.000000, -46.000000)">
            <g id="Group-23-Copy" transform="translate(49.000000, 46.000000)">
                <polygon id="Fill-1" fill="#000000" points="0 39.0985982 5.25642721 42.1282815 0 45.1577491 0 63.0133357 5.25685866 59.9834367 5.25685866 3.24569171 0 0.216008395"></polygon>
                <polygon id="Fill-2" fill="#000000" points="10.5139115 56.9536023 15.7707701 53.9237033 15.7707701 9.30533879 10.5139115 6.27565547"></polygon>
                <polygon id="Fill-3" fill="#000000" points="21.0276935 50.8938474 26.2845522 47.8641641 26.2845522 15.36518 21.0276935 12.335281"></polygon>
                <polygon id="Fill-4" fill="#000000" points="31.5414756 44.8342866 36.7983342 47.8404556 36.7983342 15.3889317 31.5414756 18.418615"></polygon>
                <polygon id="Fill-5" fill="#000000" points="47.3121594 53.9001242 47.3121594 42.1284972 42.0553007 39.0985982 42.0553007 50.8937395"></polygon>
                <polygon id="Fill-6" fill="#000000" points="47.3121594 9.32913358 42.0553007 12.3353026 42.0553007 39.0985119 47.3121594 36.0683971"></polygon>
                <polygon id="Fill-7" fill="#000000" points="104.979584 9.33966111 98.3034511 9.33966111 98.3034511 10.5751351 100.972869 10.5751351 100.972869 19.9849725 102.310166 19.9849725 102.310166 10.5751351 104.979584 10.5751351"></polygon>
                <polygon id="Fill-8" fill="#000000" points="121.918219 9.33966111 120.580921 9.33966111 120.580921 19.9849725 124.587637 19.9849725 124.587637 18.7494985 121.918219 18.7494985"></polygon>
                <polygon id="Fill-9" fill="#000000" points="85.7408145 19.750433 93.7451843 19.750433 92.9741726 18.4131355 88.0553596 18.4131355 91.8761173 11.7833842 96.4683182 19.750433 98.0118516 19.750433 91.8761173 9.10512168"></polygon>
                <polygon id="Fill-10" fill="#000000" points="105.348673 19.9849078 113.353043 19.9849078 112.582031 18.6473945 107.663218 18.6473945 111.484191 12.0176431 116.076177 19.9849078 117.619926 19.9849078 111.484191 9.33959639"></polygon>
                <polygon id="Fill-11" fill="#000000" points="138.27605 19.9849078 139.819583 19.9849078 133.68428 9.33959639 127.548546 19.9849078 135.552916 19.9849078 134.78212 18.6473945 129.863091 18.6473945 133.68428 12.0176431"></polygon>
                <g id="Group-22" transform="translate(0.000000, 0.020710)">
                    <path d="M81.7843854,17.5385312 C81.4832292,17.5385312 81.2306118,17.6444537 81.0127266,17.8623389 C80.7946256,18.0804399 80.6887032,18.3293899 80.6887032,18.6234271 C80.6887032,18.9463718 80.791174,19.2058926 81.0017244,19.4162273 C81.2129221,19.6272092 81.4687755,19.72968 81.7843854,19.72968 C82.0926607,19.72968 82.3450624,19.6272092 82.5558286,19.4162273 C82.7739295,19.1981264 82.879852,18.9424887 82.879852,18.6339978 C82.879852,18.3330573 82.7739295,18.0806556 82.5558286,17.8623389 C82.3377276,17.6444537 82.0855417,17.5385312 81.7843854,17.5385312" id="Fill-12" fill="#000000"></path>
                    <mask id="mask-2" fill="white">
                        <use xlink:href="#path-1"></use>
                    </mask>
                    <g id="Clip-15"></g>
                    <polygon id="Fill-14" fill="#E42527" mask="url(#mask-2)" points="63.0829511 19.9641116 64.4202487 19.9641116 64.4202487 9.31880021 63.0829511 9.31880021"></polygon>
                    <path d="M75.7600315,17.4896473 C74.9937658,18.2602275 74.0441313,18.6500479 72.9348582,18.6500479 C71.9071303,18.6500479 70.9905022,18.2684252 70.21043,17.5157504 C69.4228072,16.7600554 69.0228476,15.7858279 69.0228476,14.6202498 C69.0228476,13.5073094 69.4081377,12.5578906 70.1681473,11.7978811 C70.9266468,11.030321 71.8706723,10.6400692 72.9719634,10.6400692 C74.0782164,10.6400692 75.0207318,11.0309682 75.7731909,11.8013327 C76.5262971,12.5637153 76.9089985,13.5211159 76.9089985,14.6448428 C76.9089985,15.7562732 76.5221983,16.7132424 75.7600315,17.4896473 M72.9943991,9.31895122 C71.4978944,9.31895122 70.2520655,9.82850064 69.1859379,10.8769385 C68.1163588,11.9238662 67.5968859,13.1399247 67.5968859,14.5952254 C67.5968859,16.257625 68.1648976,17.5621319 69.3334959,18.583388 C70.3866797,19.4993689 71.5897945,19.9642626 72.9087552,19.9642626 C74.4251069,19.9642626 75.6830166,19.456439 76.7541058,18.4121 C77.8176446,17.3753115 78.3349603,16.1476037 78.3349603,14.6592966 C78.3349603,13.1789714 77.8191547,11.9456547 76.7582047,10.889235 C75.7013535,9.83238374 74.470194,9.31895122 72.9943991,9.31895122" id="Fill-16" fill="#E42527" mask="url(#mask-2)"></path>
                    <path d="M68.9013928,32.7431234 L74.0255787,32.7431234 C76.417786,32.7431234 78.1351962,33.2198821 79.1281919,34.1587302 C80.1250708,35.101677 80.60938,36.4678821 80.60938,38.3375963 C80.60938,40.1445336 80.1237764,41.4895973 79.1253875,42.4491553 C78.1313131,43.4011627 76.4162759,43.8839618 74.0255787,43.8839618 L68.9013928,43.8839618 L68.9013928,32.7431234 Z M74.4015926,27.6316654 L63.0827785,27.6316654 L63.0827785,62.375083 L68.9013928,62.375083 L68.9013928,48.9956356 L74.4015926,48.9956356 C78.2516893,48.9956356 81.2602312,48.0509629 83.3452419,46.1857791 C85.4526882,44.2981595 86.5214045,41.6570022 86.5214045,38.3375963 C86.5214045,35.0537854 85.488499,32.4171584 83.4528901,30.5010628 C81.4306563,28.5970479 78.3854406,27.6316654 74.4015926,27.6316654 L74.4015926,27.6316654 Z" id="Fill-17" fill="#F83633" mask="url(#mask-2)"></path>
                    <path d="M111.009008,38.5258621 C111.009008,42.3744487 108.93241,44.1677951 104.472451,44.1677951 L98.9722509,44.1677951 L98.9722509,32.8837133 L104.472451,32.8837133 C108.93241,32.8837133 111.009008,34.6770597 111.009008,38.5258621 M114.45936,45.3307845 C116.092852,43.5447728 116.921032,41.1756485 116.921032,38.28964 C116.921032,35.1046325 115.8905,32.5010119 113.859205,30.5536357 C111.837187,28.6151044 108.805994,27.6316006 104.848896,27.6316006 L93.1536367,27.6316006 L93.1536367,62.375234 L98.9722509,62.375234 L98.9722509,48.8072404 L102.450864,48.8072404 L111.119676,62.375234 L117.814146,62.375234 L108.625214,48.4499949 C111.092063,47.917794 113.05152,46.8717292 114.45936,45.3307845" id="Fill-18" fill="#F83633" mask="url(#mask-2)"></path>
                    <polygon id="Fill-19" fill="#F83633" mask="url(#mask-2)" points="123.791169 62.3751477 129.609783 62.3751477 129.609783 27.6315143 123.791169 27.6315143"></polygon>
                    <path d="M155.549235,44.3861118 C154.228765,43.7479885 152.460874,43.0693084 150.292161,42.3671139 C148.568063,41.8122616 147.200564,41.3087526 146.228278,40.8665103 C145.333654,40.4626676 144.576665,39.8976761 143.97651,39.1862053 C143.416911,38.5226261 143.144878,37.6588514 143.144878,36.5469896 C143.144878,35.1328929 143.566195,34.0822978 144.432558,33.3335061 C145.335811,32.5547282 146.529218,32.1765571 148.080087,32.1765571 C149.782396,32.1765571 151.077411,32.6041299 152.038479,33.4845156 C153.021982,34.3843169 153.6079,35.3870204 153.829021,36.5484997 L153.947887,37.1702276 L160.068304,37.1702276 L159.957852,36.3077473 C159.617649,33.6698259 158.401159,31.4665964 156.340741,29.7614827 C154.290031,28.0665082 151.510808,27.207048 148.080087,27.207048 C145.873837,27.207048 143.918263,27.5957898 142.268376,28.3624869 C140.584619,29.1457951 139.271483,30.2710321 138.363484,31.710369 C137.457211,33.1453913 136.997495,34.8205188 136.997495,36.6889386 C136.997495,38.8561416 137.498846,40.6406431 138.48688,41.9932574 C139.455283,43.3176113 140.645886,44.323335 142.023956,44.985404 C143.328679,45.6146825 145.063994,46.2858121 147.189993,46.9806718 C148.928976,47.529268 150.323442,48.0493881 151.334558,48.5218323 C152.264777,48.9595443 153.05542,49.5650927 153.686209,50.3227292 C154.280324,51.0357101 154.569615,51.9549269 154.569615,53.1310757 C154.569615,54.5031054 154.149592,55.5897271 153.286465,56.4535018 C152.436065,57.3041171 151.159603,57.7344944 149.49332,57.7344944 C148.186872,57.7344944 147.070264,57.4760523 146.173699,56.964777 C145.270877,56.4506973 144.569761,55.7944529 144.091061,55.0143807 C143.604379,54.2222276 143.316813,53.4046187 143.234405,52.5824795 L143.165804,51.8936601 L137.068469,51.8936601 L137.141817,52.7259386 C137.309869,54.6480746 137.952522,56.3879205 139.051656,57.8928387 C140.146691,59.3906378 141.624859,60.5816718 143.445387,61.4322871 C145.250815,62.2766463 147.333452,62.7055135 149.634406,62.7055135 C152.014533,62.7055135 154.056182,62.2451501 155.704128,61.338014 C157.363076,60.4248376 158.62077,59.2141724 159.442046,57.7435549 C160.256635,56.2830767 160.669754,54.6838854 160.669754,52.9891267 C160.669754,50.7291607 160.161715,48.8758419 159.160306,47.480082 C158.177018,46.1065422 156.961822,45.0660863 155.549235,44.3861118" id="Fill-20" fill="#F83633" mask="url(#mask-2)"></path>
                    <polygon id="Fill-21" fill="#F83633" mask="url(#mask-2)" points="196.437491 28.1981022 185.540857 54.4014976 174.464521 28.1981022 168.056969 28.1981022 168.056969 62.375234 173.875584 62.375234 173.875584 39.600403 183.051788 62.375234 187.901783 62.375234 197.030743 39.534606 197.030743 62.375234 202.847847 62.375234 202.847847 28.1981022"></polygon>
                </g>
            </g>
        </g>
    </g>
</svg>