<svg width="170" height="24" viewBox="0 0 170 24" fill="none" xmlns="http://www.w3.org/2000/svg">
<g id="Group">
<path id="Vector" d="M7.0212 11.7718C7.01221 12.2186 7.17679 12.6514 7.48034 12.9792C7.78388 13.3071 8.20274 13.5045 8.64883 13.5299C9.09492 13.5553 9.53348 13.4067 9.87228 13.1154C10.2111 12.8241 10.4237 12.4128 10.4655 11.9679C10.4915 11.5111 10.3349 11.0626 10.0303 10.7212C9.72564 10.3798 9.29784 10.1734 8.84099 10.1474C8.38415 10.1214 7.93568 10.2779 7.59426 10.5825C7.25283 10.8872 7.04641 11.315 7.02041 11.7718H7.0212ZM0.588877 11.3322C0.51588 11.3281 0.44278 11.3383 0.37375 11.3624C0.304721 11.3865 0.241114 11.424 0.18656 11.4727C0.0763848 11.571 0.00977642 11.709 0.00138818 11.8564C-0.00700006 12.0039 0.043519 12.1486 0.141832 12.2588C0.240144 12.3689 0.378197 12.4355 0.525621 12.4439C0.60072 12.452 0.676665 12.4446 0.748846 12.4224C0.821026 12.4002 0.887937 12.3635 0.945516 12.3146C1.0031 12.2657 1.05014 12.2057 1.0838 12.1381C1.11746 12.0705 1.13703 11.9967 1.14132 11.9213C1.14561 11.8459 1.13453 11.7704 1.10876 11.6994C1.08299 11.6284 1.04306 11.5634 0.991394 11.5083C0.93973 11.4532 0.87741 11.4092 0.808217 11.3789C0.739024 11.3487 0.664401 11.3328 0.588877 11.3322ZM6.9105 1.77427C6.97598 1.74153 7.03435 1.69618 7.08226 1.64082C7.13016 1.58547 7.16666 1.52119 7.18966 1.45169C7.21266 1.38218 7.2217 1.30882 7.21626 1.23582C7.21083 1.16281 7.19103 1.0916 7.15799 1.02627C7.10844 0.927729 7.03078 0.846105 6.93482 0.791723C6.83886 0.737342 6.72893 0.712648 6.61894 0.720766C6.50894 0.728885 6.40383 0.769451 6.3169 0.83733C6.22996 0.90521 6.16512 0.997353 6.13058 1.1021C6.09603 1.20684 6.09333 1.31948 6.12283 1.42576C6.15232 1.53204 6.21268 1.62718 6.29626 1.69914C6.37985 1.7711 6.4829 1.81665 6.59238 1.83002C6.70186 1.8434 6.81285 1.82399 6.9113 1.77427H6.9105ZM8.66111 4.8232C9.0865 4.60892 9.2573 4.09101 9.04302 3.6672C8.94001 3.46319 8.76026 3.30839 8.54323 3.23678C8.32619 3.16518 8.08962 3.18263 7.88543 3.28529C7.78451 3.33622 7.6946 3.40653 7.62084 3.49221C7.54709 3.57789 7.49093 3.67726 7.45558 3.78464C7.42022 3.89202 7.40637 4.00531 7.4148 4.11805C7.42323 4.23078 7.45378 4.34076 7.50471 4.44168C7.55564 4.54261 7.62596 4.63252 7.71164 4.70628C7.79731 4.78003 7.89668 4.83619 8.00406 4.87154C8.11144 4.9069 8.22474 4.92075 8.33747 4.91232C8.45021 4.90389 8.56018 4.87413 8.66111 4.8232ZM2.77199 6.91854C2.92903 7.01063 3.11544 7.03887 3.29272 6.99745C3.46999 6.95603 3.62458 6.8481 3.72455 6.69596C3.82452 6.54382 3.86224 6.35909 3.82991 6.17993C3.79758 6.00078 3.69767 5.84089 3.55083 5.73329C3.39379 5.64121 3.20738 5.61296 3.03011 5.65438C2.85284 5.69581 2.69825 5.80374 2.59828 5.95588C2.4983 6.10802 2.46059 6.29274 2.49291 6.4719C2.52524 6.65105 2.62515 6.81094 2.77199 6.91854ZM3.82046 11.0223C3.59219 11.0092 3.36807 11.0873 3.19739 11.2394C3.02672 11.3915 2.92347 11.6053 2.91037 11.8335C2.89726 12.0618 2.97537 12.2859 3.12751 12.4566C3.27965 12.6273 3.49336 12.7305 3.72162 12.7436C3.94999 12.7567 4.17421 12.6786 4.34496 12.5264C4.51571 12.3741 4.619 12.1603 4.63211 11.932C4.64522 11.7036 4.56707 11.4794 4.41485 11.3086C4.26264 11.1379 4.04883 11.0354 3.82046 11.0223ZM2.86609 16.8054C2.78297 16.8473 2.70891 16.9052 2.64815 16.9757C2.58739 17.0462 2.54112 17.128 2.51197 17.2164C2.4531 17.3949 2.46756 17.5896 2.55218 17.7574C2.6368 17.9253 2.78463 18.0527 2.96317 18.1115C3.1417 18.1704 3.33631 18.1559 3.50418 18.0713C3.67205 17.9867 3.79943 17.8389 3.8583 17.6603C3.91717 17.4818 3.9027 17.2872 3.81809 17.1193C3.73347 16.9515 3.58563 16.8241 3.4071 16.7652C3.22856 16.7063 3.03396 16.7208 2.86609 16.8054ZM6.21469 9.24319C6.43919 9.37888 6.70754 9.42226 6.96335 9.36421C7.21916 9.30616 7.44251 9.1512 7.58645 8.93191C7.7304 8.71262 7.78373 8.44606 7.73523 8.18827C7.68674 7.93048 7.5402 7.70152 7.32641 7.54952C7.10154 7.40232 6.82745 7.35037 6.56431 7.40507C6.30117 7.45977 6.07049 7.61666 5.92292 7.84129C5.84966 7.95238 5.79908 8.07686 5.77409 8.20756C5.7491 8.33827 5.7502 8.47262 5.77731 8.60291C5.80443 8.73319 5.85703 8.85682 5.93209 8.96671C6.00715 9.07659 6.10319 9.17056 6.21469 9.24319ZM16.8385 4.75441C17.2362 5.01534 17.7707 4.90385 18.0325 4.50613C18.1463 4.315 18.182 4.08727 18.1319 3.8705C18.0818 3.65373 17.95 3.46468 17.7638 3.34284C17.5777 3.22099 17.3517 3.17577 17.133 3.21661C16.9143 3.25746 16.7198 3.38121 16.5902 3.56203C16.3293 3.95975 16.44 4.49347 16.8385 4.75441ZM18.6065 1.71576C18.6677 1.75766 18.7367 1.78693 18.8094 1.80187C18.8821 1.81681 18.957 1.8171 19.0298 1.80274C19.1026 1.78838 19.1718 1.75965 19.2334 1.71823C19.2949 1.67681 19.3476 1.62353 19.3884 1.56151C19.4291 1.49949 19.4571 1.42998 19.4706 1.35702C19.4842 1.28407 19.483 1.20915 19.4673 1.13664C19.4515 1.06413 19.4215 0.995481 19.3789 0.934715C19.3363 0.873948 19.2821 0.822281 19.2193 0.782732C19.0956 0.7048 18.9462 0.678518 18.8033 0.709537C18.6604 0.740556 18.5354 0.826399 18.4552 0.948613C18.3749 1.07083 18.3458 1.21966 18.3741 1.36311C18.4024 1.50656 18.4858 1.63318 18.6065 1.71576ZM16.9737 10.1319C16.5173 10.106 16.0692 10.2623 15.7279 10.5666C15.3866 10.8708 15.18 11.298 15.1535 11.7544C15.1285 12.2108 15.2854 12.6585 15.5898 12.9993C15.8942 13.3402 16.3214 13.5465 16.7776 13.5731L16.8772 13.5754C17.7905 13.5754 18.5456 12.8614 18.5986 11.9505C18.6121 11.7245 18.5805 11.4979 18.5057 11.2842C18.4309 11.0704 18.3144 10.8736 18.1629 10.7052C18.0126 10.5356 17.83 10.3976 17.6259 10.2992C17.4217 10.2008 17.2 10.1439 16.9737 10.1319ZM9.22804 9.12459C9.4345 9.53258 9.79435 9.84204 10.2287 9.98508C10.663 10.1281 11.1363 10.0931 11.5448 9.88761C11.7484 9.78658 11.93 9.64628 12.0792 9.47478C12.2283 9.30329 12.3421 9.10398 12.4139 8.88834C12.4858 8.6727 12.5143 8.44498 12.4978 8.21829C12.4812 7.99159 12.42 7.77041 12.3177 7.56746C12.2154 7.36451 12.0739 7.1838 11.9015 7.03573C11.729 6.88767 11.529 6.77517 11.3129 6.70472C11.0968 6.63427 10.8689 6.60725 10.6423 6.62522C10.4157 6.64319 10.1949 6.70579 9.99264 6.80943C9.58439 7.01498 9.27449 7.37427 9.1311 7.80829C8.98772 8.2423 9.02259 8.71549 9.22804 9.1238V9.12459ZM22.7529 6.91696C22.9207 6.83208 23.0481 6.68415 23.1071 6.50557C23.1661 6.32699 23.1519 6.13231 23.0676 5.96417C22.9774 5.80595 22.8299 5.68839 22.6556 5.63574C22.4812 5.5831 22.2933 5.59938 22.1306 5.68124C21.9679 5.76309 21.8428 5.90427 21.7812 6.07565C21.7196 6.24703 21.7261 6.43553 21.7993 6.60226C21.8844 6.77015 22.0325 6.89751 22.2112 6.95649C22.3899 7.01547 22.5847 7.00125 22.7529 6.91696ZM18.3772 7.46571C18.2583 7.52537 18.1523 7.60791 18.0653 7.70861C17.9784 7.8093 17.9121 7.92616 17.8704 8.0525C17.8287 8.17884 17.8123 8.31217 17.8222 8.44485C17.8321 8.57753 17.8681 8.70695 17.9281 8.82571C18.0545 9.05601 18.2653 9.22829 18.5162 9.30629C18.7671 9.38428 19.0384 9.36192 19.2731 9.2439C19.5078 9.12588 19.6876 8.9214 19.7746 8.67351C19.8616 8.42562 19.8491 8.15364 19.7396 7.91482C19.6183 7.67478 19.4067 7.49267 19.1513 7.40847C18.8959 7.32427 18.6175 7.34485 18.3772 7.46571ZM12.7451 1.45641C12.8381 1.4617 12.9313 1.44862 13.0193 1.41791C13.1072 1.3872 13.1883 1.33946 13.2578 1.27742C13.3274 1.21537 13.384 1.14024 13.4245 1.05632C13.465 0.972387 13.4886 0.881304 13.4939 0.788267C13.4991 0.69523 13.4861 0.602061 13.4554 0.51408C13.4246 0.426098 13.3769 0.345027 13.3149 0.275496C13.2528 0.205964 13.1777 0.149334 13.0938 0.108837C13.0098 0.0683412 12.9188 0.0447725 12.8257 0.0394768C12.7327 0.0341812 12.6395 0.0472624 12.5515 0.0779736C12.4635 0.108685 12.3825 0.156424 12.3129 0.218467C12.2434 0.280509 12.1868 0.35564 12.1463 0.439568C12.1058 0.523496 12.0822 0.614579 12.0769 0.707616C12.0716 0.800653 12.0847 0.893822 12.1154 0.981803C12.1461 1.06978 12.1939 1.15086 12.2559 1.22039C12.318 1.28992 12.3931 1.34655 12.477 1.38705C12.5609 1.42754 12.652 1.45111 12.7451 1.45641ZM12.7364 5.91673C13.0048 5.93225 13.2684 5.8405 13.4692 5.66167C13.6699 5.48284 13.7915 5.23157 13.807 4.96315C13.8225 4.69473 13.7307 4.43113 13.5519 4.23035C13.3731 4.02958 13.1218 3.90806 12.8534 3.89254C12.585 3.87703 12.3214 3.96877 12.1206 4.14761C11.9198 4.32644 11.7983 4.5777 11.7828 4.84613C11.7673 5.11455 11.859 5.37814 12.0378 5.57892C12.2167 5.7797 12.4679 5.90121 12.7364 5.91673ZM7.2426 16.2567C7.4824 16.1356 7.66426 15.9242 7.74819 15.669C7.83212 15.4138 7.81124 15.1357 7.69013 14.8959C7.56903 14.6561 7.35762 14.4742 7.10242 14.3903C6.84723 14.3064 6.56914 14.3272 6.32934 14.4484C6.21049 14.5081 6.10459 14.5907 6.01768 14.6914C5.93078 14.7921 5.86457 14.9089 5.82286 15.0353C5.78115 15.1616 5.76475 15.2949 5.77459 15.4275C5.78443 15.5602 5.82033 15.6896 5.88023 15.8084C6.13246 16.3073 6.74288 16.5081 7.2426 16.2567ZM13.3926 7.39454C13.2223 7.65445 13.1254 7.95558 13.1122 8.26606C13.0989 8.57654 13.1699 8.88482 13.3175 9.15828C13.4651 9.43173 13.6839 9.6602 13.9508 9.81948C14.2176 9.97877 14.5225 10.063 14.8333 10.0631C15.2905 10.0636 15.7291 9.88236 16.0526 9.5594C16.3762 9.23643 16.5582 8.79817 16.5586 8.34101C16.559 7.88385 16.3778 7.44525 16.0548 7.12169C15.7319 6.79813 15.2936 6.61613 14.8365 6.61571C14.2513 6.61571 13.7121 6.90747 13.3926 7.39454ZM16.391 14.5986C16.2478 14.3125 16.0276 14.0721 15.7552 13.9045C15.4828 13.7369 15.169 13.6486 14.8491 13.6498C14.5826 13.6498 14.3138 13.713 14.0742 13.8348C13.6631 14.0419 13.3571 14.3962 13.2124 14.8342C13.1404 15.0489 13.1121 15.2758 13.1289 15.5016C13.1457 15.7273 13.2074 15.9475 13.3104 16.1491C13.4123 16.3515 13.5531 16.5317 13.7247 16.6796C13.8964 16.8274 14.0955 16.94 14.3106 17.0109C14.5258 17.0817 14.7528 17.1095 14.9787 17.0926C15.2046 17.0756 15.425 17.0143 15.6272 16.9122C16.0352 16.7066 16.3449 16.3475 16.4883 15.9136C16.6317 15.4798 16.597 15.0068 16.3918 14.5986H16.391ZM19.4051 14.4784C19.1801 14.3314 18.9059 14.2795 18.6427 14.3342C18.3795 14.3889 18.1487 14.5457 18.0008 14.7702C17.8654 14.995 17.8223 15.2635 17.8807 15.5194C17.9391 15.7753 18.0943 15.9985 18.3139 16.1424C18.5334 16.2862 18.8002 16.3393 19.0581 16.2906C19.3159 16.2418 19.5449 16.0951 19.6969 15.8811C19.7699 15.7698 19.8203 15.6453 19.8451 15.5145C19.8699 15.3837 19.8687 15.2494 19.8416 15.1191C19.8144 14.9888 19.7618 14.8651 19.6867 14.7552C19.6117 14.6453 19.5165 14.5512 19.4051 14.4784ZM22.7086 11.8904C22.7107 11.6686 22.6273 11.4544 22.4756 11.2924C22.324 11.1304 22.1158 11.033 21.8943 11.0204C21.6728 11.0078 21.4549 11.0809 21.2859 11.2247C21.1168 11.3684 21.0096 11.5717 20.9865 11.7924C20.9735 12.0207 21.0517 12.2447 21.2039 12.4153C21.3561 12.586 21.5699 12.6891 21.7982 12.7021C22.0264 12.7151 22.2505 12.6369 22.4211 12.4847C22.5917 12.3325 22.6956 12.1187 22.7086 11.8904ZM25.0942 11.2777C25.0211 11.2734 24.9479 11.2836 24.8787 11.3076C24.8095 11.3317 24.7458 11.3691 24.6911 11.4178C24.5806 11.5161 24.5137 11.6543 24.5051 11.8019C24.4965 11.9495 24.5469 12.0945 24.6452 12.205C24.7435 12.3155 24.8817 12.3824 25.0293 12.391C25.177 12.3996 25.322 12.3492 25.4324 12.2508C25.5429 12.1525 25.6098 12.0144 25.6184 11.8667C25.627 11.7191 25.5766 11.5741 25.4783 11.4636C25.38 11.3531 25.2418 11.2863 25.0942 11.2777ZM22.847 16.8031C22.7691 16.752 22.682 16.7167 22.5905 16.6993C22.499 16.6819 22.4049 16.6827 22.3137 16.7017C22.1296 16.7399 21.9681 16.8498 21.865 17.0071C21.7618 17.1643 21.7253 17.3562 21.7636 17.5403C21.8018 17.7245 21.9117 17.8859 22.069 17.9891C22.1468 18.041 22.2342 18.077 22.326 18.095C22.4179 18.113 22.5124 18.1126 22.6041 18.0939C22.6958 18.0753 22.7829 18.0386 22.8604 17.9861C22.9378 17.9336 23.0041 17.8663 23.0555 17.788C23.1068 17.7098 23.1421 17.6221 23.1594 17.5302C23.1768 17.4382 23.1757 17.3437 23.1563 17.2521C23.1369 17.1606 23.0996 17.0738 23.0465 16.9967C22.9935 16.9196 22.9257 16.8538 22.847 16.8031ZM7.0133 22.0058C6.92126 21.9455 6.81341 21.9138 6.70337 21.9148C6.59333 21.9157 6.48604 21.9492 6.39505 22.0111C6.30406 22.073 6.23346 22.1605 6.19216 22.2625C6.15087 22.3645 6.14073 22.4764 6.16303 22.5842C6.18533 22.692 6.23908 22.7907 6.31747 22.8679C6.39586 22.9452 6.49538 22.9974 6.60346 23.0181C6.71154 23.0388 6.82333 23.027 6.92471 22.9842C7.02608 22.9414 7.11249 22.8695 7.17302 22.7776C7.21324 22.7164 7.241 22.6479 7.25471 22.5759C7.26841 22.504 7.26779 22.4301 7.25288 22.3584C7.23797 22.2867 7.20906 22.2187 7.16781 22.1582C7.12657 22.0977 7.07458 22.0459 7.0133 22.0058ZM18.7077 21.9481C18.6425 21.9811 18.5843 22.0267 18.5367 22.0822C18.489 22.1376 18.4528 22.202 18.43 22.2715C18.4072 22.341 18.3983 22.4143 18.4038 22.4872C18.4093 22.5601 18.4292 22.6313 18.4622 22.6965C18.4952 22.7618 18.5408 22.8199 18.5963 22.8675C18.6517 22.9152 18.7161 22.9515 18.7856 22.9743C18.855 22.9971 18.9284 23.006 19.0013 23.0004C19.0742 22.9949 19.1453 22.975 19.2106 22.942C19.2759 22.909 19.334 22.8635 19.3816 22.808C19.4293 22.7525 19.4656 22.6882 19.4883 22.6187C19.5111 22.5492 19.52 22.4759 19.5145 22.4029C19.509 22.33 19.4891 22.2589 19.4561 22.1936C19.4231 22.1284 19.3775 22.0703 19.3221 22.0226C19.2666 21.9749 19.2023 21.9387 19.1328 21.9159C19.0633 21.8931 18.99 21.8842 18.917 21.8897C18.8441 21.8953 18.773 21.9151 18.7077 21.9481ZM12.2272 16.3278C12.4802 15.942 12.5672 15.4818 12.4739 15.0311C12.3701 14.5938 12.1 14.2142 11.7207 13.973C11.3415 13.7317 10.8832 13.648 10.4431 13.7394C10.0031 13.8309 9.61609 14.0903 9.36437 14.4627C9.11265 14.835 9.01609 15.2908 9.0952 15.7332C9.16414 16.0677 9.33089 16.3742 9.5743 16.6138C9.81771 16.8534 10.1268 17.0152 10.4623 17.0788C10.7979 17.1425 11.1448 17.105 11.459 16.9711C11.7732 16.8373 12.0406 16.6139 12.2272 16.3278ZM8.7805 18.968C8.68586 18.9059 8.57991 18.863 8.4687 18.8419C8.3575 18.8207 8.24322 18.8217 8.13239 18.8447C8.02155 18.8677 7.91634 18.9124 7.82275 18.976C7.72917 19.0397 7.64904 19.1212 7.58695 19.2159C7.52485 19.3105 7.48201 19.4165 7.46086 19.5277C7.43971 19.6389 7.44068 19.7531 7.46369 19.864C7.48671 19.9748 7.53134 20.08 7.59502 20.1736C7.65869 20.2672 7.74018 20.3473 7.83483 20.4094C8.02598 20.5348 8.25911 20.5792 8.48295 20.5327C8.70678 20.4862 8.90298 20.3527 9.02839 20.1615C9.15379 19.9704 9.19813 19.7373 9.15164 19.5134C9.10515 19.2896 8.97165 19.0934 8.7805 18.968ZM12.8012 22.266C12.7079 22.26 12.6142 22.2725 12.5257 22.3028C12.4373 22.3332 12.3556 22.3807 12.2856 22.4427C12.2156 22.5047 12.1585 22.5799 12.1176 22.6641C12.0768 22.7483 12.053 22.8397 12.0476 22.9331C12.0423 23.0264 12.0554 23.12 12.0863 23.2083C12.1173 23.2965 12.1653 23.3778 12.2278 23.4475C12.2903 23.5171 12.3659 23.5737 12.4503 23.6139C12.5348 23.6542 12.6263 23.6774 12.7198 23.6821C12.9068 23.6916 13.09 23.6267 13.2294 23.5017C13.3688 23.3766 13.453 23.2015 13.4638 23.0145C13.4746 22.8275 13.4109 22.6439 13.2868 22.5037C13.1627 22.3634 12.9881 22.278 12.8012 22.266ZM12.8091 17.8057C12.6764 17.7981 12.5434 17.8168 12.4179 17.8607C12.2924 17.9045 12.1767 17.9727 12.0775 18.0612C11.8772 18.24 11.7561 18.4911 11.7409 18.7592C11.7257 19.0273 11.8176 19.2905 11.9964 19.4908C12.1753 19.6912 12.4263 19.8123 12.6945 19.8275C12.9626 19.8427 13.2257 19.7507 13.4261 19.5719C13.6264 19.3931 13.7475 19.142 13.7627 18.8739C13.7779 18.6058 13.686 18.3426 13.5071 18.1423C13.3283 17.9419 13.0772 17.8209 12.8091 17.8057ZM16.9579 18.8992C16.8493 18.9453 16.7513 19.0132 16.6701 19.0987C16.5888 19.1841 16.5259 19.2854 16.4853 19.3962C16.4448 19.507 16.4274 19.6249 16.4342 19.7426C16.4411 19.8604 16.4721 19.9755 16.5252 20.0808C16.5783 20.1861 16.6525 20.2794 16.7432 20.3549C16.8339 20.4304 16.9391 20.4864 17.0523 20.5196C17.1655 20.5528 17.2843 20.5624 17.4013 20.5478C17.5184 20.5332 17.6312 20.4947 17.7328 20.4347C17.9212 20.3235 18.0602 20.1448 18.1217 19.9349C18.1832 19.725 18.1626 19.4995 18.0641 19.3043C17.9655 19.109 17.7964 18.9585 17.591 18.8832C17.3856 18.808 17.1593 18.8137 16.9579 18.8992ZM35.9908 7.79068C37.6607 7.79068 38.8294 8.70789 38.8294 10.4095H41.018C41.018 7.4238 38.8128 5.98947 35.9576 5.98947C32.4492 5.98947 30.4116 7.8911 30.4116 11.9118C30.4116 16.0313 32.4492 17.8333 35.9568 17.8333C38.8468 17.8333 41.018 16.4322 41.018 13.4457H38.9132C38.9132 15.1141 37.7612 16.0313 35.9908 16.0313C33.6685 16.0313 32.6003 14.7472 32.6003 12.0778V11.7442C32.6003 9.12538 33.6851 7.79068 35.9908 7.79068ZM46.8028 6.18952L42.3417 17.6325H44.5469L45.4649 15.1465H50.7104L51.645 17.6325H53.9507L49.4912 6.18873H46.802L46.8028 6.18952ZM46.1339 13.3453L47.3041 10.2094C47.5373 9.59268 47.9548 8.25799 48.0386 8.02394H48.1217C48.2055 8.25799 48.623 9.60929 48.857 10.2094L50.0257 13.3461L46.1339 13.3453ZM65.8807 9.6591C65.8807 7.54003 64.6615 6.18952 62.1392 6.18952H56.0919V17.6325H58.2299V13.2125H61.7881L63.9586 17.6325H66.2974L63.8423 12.8788C65.1944 12.3451 65.8792 11.2104 65.8792 9.6591H65.8807ZM61.9723 11.4105H58.2307V8.00733H61.9723C63.1244 8.00733 63.7261 8.62408 63.7261 9.6591C63.7261 10.7439 63.0746 11.4105 61.9723 11.4105ZM73.3821 6.18952H68.8055V17.6325H73.3821C76.839 17.6325 78.9439 15.8305 78.9439 11.9102C78.9439 7.98994 76.839 6.18952 73.3821 6.18952ZM76.756 12.0778C76.7394 14.5804 75.5533 15.8147 73.3821 15.8147H70.9428V8.00812H73.3821C75.5533 8.00812 76.756 9.24161 76.756 11.7442V12.0778ZM84.5412 6.18952L80.0817 17.6333H82.2861L83.2049 15.1473H88.4496L89.385 17.6333H91.6899L87.2304 6.18952H84.5412ZM83.8731 13.3453L85.0425 10.2094C85.2766 9.59268 85.6933 8.25799 85.7779 8.02394H85.8609C85.9439 8.25799 86.3614 9.60929 86.5962 10.2094L87.7649 13.3461L83.8731 13.3453ZM101.465 12.9951C101.465 13.2125 101.498 13.796 101.498 13.8964L101.415 13.9297C101.365 13.8632 101.03 13.2789 100.846 13.0124L95.8687 6.18873H93.8311V17.6333H95.8861V10.7764C95.8861 10.4933 95.8521 9.94296 95.8521 9.85915L95.936 9.80933C95.9858 9.87575 96.2364 10.3597 96.5037 10.7439L101.514 17.6333H103.519V6.18952H101.465V12.9951ZM112.034 5.98868C108.443 5.98868 106.272 7.8911 106.272 11.911C106.272 15.9317 108.443 17.8333 112.035 17.8333C115.626 17.8333 117.814 15.9317 117.814 11.911C117.814 7.8911 115.626 5.98868 112.034 5.98868ZM115.626 12.0944C115.626 14.714 114.373 16.0321 112.035 16.0321C109.713 16.0321 108.461 14.714 108.461 12.0944V11.7442C108.461 9.12538 109.73 7.79068 112.035 7.79068C114.356 7.79068 115.626 9.12538 115.626 11.7442V12.0944ZM129.586 17.3953C132.226 17.3953 134.152 15.8186 134.152 12.0818V11.3188C134.152 7.54952 132.226 6.00529 129.586 6.00529H125.8V17.3953H129.586ZM129.586 16.2836H127.029V7.1178H129.586C131.578 7.1178 132.907 8.26352 132.907 11.2358V12.1656C132.907 15.2209 131.528 16.2836 129.586 16.2836ZM141.864 17.5621C144.421 17.5621 146.347 16.0677 146.347 12.1656V11.2358C146.347 7.33366 144.421 5.83924 141.83 5.83924H141.731C139.224 5.83924 137.248 7.30045 137.248 11.2358V12.1656C137.248 16.1009 139.19 17.5621 141.764 17.5621H141.864ZM141.797 16.4496C139.821 16.4496 138.476 15.3869 138.476 12.2652V11.1361C138.476 7.99705 139.854 6.95175 141.797 6.95175C143.774 6.95175 145.118 8.01445 145.118 11.1361V12.2652C145.118 15.4201 143.723 16.4496 141.797 16.4496ZM154.01 17.5621C156.351 17.5621 158.227 16.2171 158.227 13.1453H157.032C157.032 15.5364 155.736 16.4496 153.91 16.4496C151.951 16.4496 150.705 15.3869 150.705 12.2652V11.1361C150.705 7.99705 151.967 6.95175 153.927 6.95175C155.703 6.95175 156.998 7.86501 156.998 10.2727H158.227C158.227 7.13361 156.334 5.83924 153.993 5.83924H153.86C151.27 5.83924 149.46 7.33366 149.46 11.2358V12.1656C149.46 16.1009 151.27 17.5621 153.877 17.5621H154.01ZM165.259 17.5621C167.65 17.5621 169.426 16.6323 169.426 14.1416C169.426 9.95719 162.536 11.6667 162.536 8.74506C162.536 7.49971 163.681 6.95175 165.259 6.95175C166.753 6.95175 167.916 7.58273 167.916 8.81147V9.12696H169.111V8.92771C169.111 6.80231 167.484 5.83924 165.226 5.83924C163.083 5.83924 161.323 6.71929 161.323 8.84389C161.323 12.946 168.214 11.1195 168.214 14.3408C168.214 15.8511 166.952 16.4496 165.226 16.4496C163.515 16.4496 162.253 15.8518 162.253 14.3242C162.253 14.174 162.253 14.0585 162.27 13.9091H161.058C161.041 14.0253 161.041 14.125 161.041 14.2246C161.041 16.5991 162.801 17.5613 165.259 17.5613V17.5621Z" fill="#1342B2"/>
</g>
</svg>
