<svg xmlns="http://www.w3.org/2000/svg" viewBox="0 0 640 591.37"><path style="fill-opacity: .1;" d="M269.04 250.97c-16.4 0-31.14-9.09-38.53-23.73-10.67-21.22-2.11-47.2 19.12-57.89a43.3 43.3 0 0119.36-4.61c16.4 0 31.12 9.07 38.5 23.68 10.69 21.22 2.13 47.2-19.07 57.89-6.02 3-12.71 4.66-19.38 4.66m-50.58 88.04c-.83 0-1.65-.03-2.48-.05-23.7-1.36-41.94-21.73-40.56-45.46 1.33-23.62 21.57-42 45.49-40.58 23.73 1.31 41.92 21.76 40.56 45.49-1.33 22.79-20.21 40.6-43.01 40.6m50.93 87.86c-8.37 0-16.56-2.4-23.6-7.07-9.6-6.29-16.19-16-18.56-27.25-2.35-11.25-.16-22.77 6.11-32.4 8-12.21 21.52-19.52 36.1-19.52 8.4 0 16.56 2.45 23.6 7.09 9.63 6.29 16.19 16.03 18.59 27.28 2.35 11.25.16 22.77-6.19 32.42-7.97 12.15-21.46 19.45-36.05 19.45m101.62-.24c-16.4 0-31.14-9.09-38.5-23.68-5.17-10.32-6.05-21.92-2.43-32.9 3.57-10.93 11.25-19.76 21.54-25.01a42.967 42.967 0 0119.39-4.64c16.35 0 31.17 9.12 38.42 23.78 10.75 21.14 2.19 47.17-19.07 57.86-5.97 3.07-12.68 4.59-19.35 4.59m50.63-88.07c-.83 0-1.68 0-2.56-.05-23.65-1.36-41.92-21.78-40.53-45.49 1.33-23.62 21.65-41.97 45.41-40.58 11.55.67 22.08 5.73 29.7 14.32 7.68 8.59 11.6 19.65 10.93 31.14-1.27 22.85-20.15 40.66-42.95 40.66m-51.08-87.86c-8.4 0-16.61-2.4-23.62-7.07-19.89-13.07-25.44-39.78-12.4-59.67 8.03-12.19 21.52-19.44 36.1-19.44 8.35 0 16.56 2.45 23.57 7.04 19.86 12.99 25.41 39.76 12.43 59.67-7.98 12.19-21.42 19.47-36.08 19.47M225.9 90.72c5.41 10.61 1.12 23.6-9.52 28.93-10.61 5.39-23.6 1.07-28.93-9.55-5.36-10.59-1.04-23.57 9.55-28.9 10.61-5.31 23.57-1.07 28.9 9.52M95.49 274.7c11.89.67 20.96 10.83 20.26 22.69-.67 11.89-10.83 20.96-22.74 20.32-11.87-.67-20.96-10.88-20.26-22.74.68-11.87 10.87-20.94 22.74-20.27m94.04 204.89c6.53-9.89 19.86-12.72 29.81-6.11 9.97 6.48 12.75 19.84 6.19 29.78-6.51 9.97-19.89 12.77-29.81 6.21-9.92-6.52-12.67-19.88-6.19-29.88m224.57 21.06c-5.36-10.56-1.07-23.57 9.49-28.88 10.61-5.41 23.6-1.09 28.9 9.49 5.44 10.56 1.15 23.6-9.44 28.93-10.66 5.34-23.62 1.1-28.95-9.54m130.49-183.93c-11.92-.69-20.96-10.88-20.34-22.77.67-11.87 10.85-20.96 22.72-20.26 11.89.69 20.93 10.83 20.29 22.74-.64 11.87-10.88 20.93-22.67 20.29M450.5 111.73c-6.51 9.97-19.86 12.75-29.86 6.21-9.89-6.53-12.69-19.89-6.16-29.81 6.53-10 19.89-12.75 29.78-6.21 9.97 6.53 12.74 19.86 6.24 29.81M178.81 24.67c3.49 6.91.69 15.31-6.19 18.72-6.85 3.49-15.2.69-18.69-6.16-3.44-6.88-.69-15.25 6.16-18.75 6.88-3.44 15.26-.67 18.72 6.19M14.72 282.46c7.65.43 13.55 7.04 13.12 14.72s-6.99 13.6-14.69 13.09c-7.71-.4-13.6-7.01-13.12-14.69.45-7.68 6.98-13.57 14.69-13.12m141.16 271.02c4.21-6.45 12.85-8.21 19.33-3.97 6.4 4.21 8.19 12.8 3.97 19.28-4.19 6.43-12.83 8.27-19.31 4.03-6.42-4.28-8.18-12.92-3.99-19.34m305.31 13.25c-3.49-6.93-.69-15.28 6.16-18.69 6.88-3.47 15.28-.69 18.75 6.11 3.41 6.85.67 15.28-6.19 18.72s-15.2.74-18.72-6.14m164.06-257.77c-7.65-.45-13.57-7.04-13.09-14.72.45-7.71 7.01-13.55 14.72-13.15 7.68.43 13.57 7.01 13.09 14.72-.42 7.66-7.01 13.55-14.72 13.15M484.12 37.92c-4.27 6.43-12.85 8.27-19.31 4-6.43-4.24-8.27-12.85-4.03-19.33 4.21-6.4 12.83-8.21 19.33-3.95 6.44 4.24 8.22 12.85 4.01 19.28M183.05 187.88c11.71 7.63 14.96 23.36 7.31 35.01-7.71 11.73-23.38 14.99-35.12 7.33-11.71-7.71-14.93-23.38-7.28-35.06 7.71-11.71 23.36-14.99 35.09-7.28M158.12 360.4c12.45-6.29 27.7-1.25 34.02 11.25 6.29 12.51 1.28 27.7-11.25 34-12.48 6.35-27.7 1.28-34.02-11.23-6.27-12.5-1.23-27.76 11.25-34.02m135.16 107.83c.8-14 12.77-24.66 26.72-23.86 13.97.77 24.69 12.8 23.86 26.74-.8 13.97-12.77 24.66-26.74 23.86-13.95-.8-24.66-12.72-23.84-26.74m163.67-64.69c-11.65-7.65-14.99-23.38-7.28-35.06 7.68-11.68 23.41-14.99 35.04-7.31 11.71 7.65 14.99 23.41 7.33 35.04-7.65 11.73-23.36 14.98-35.09 7.33M481.91 231c-12.56 6.29-27.76 1.28-34.05-11.23-6.29-12.45-1.28-27.73 11.25-34 12.56-6.32 27.73-1.31 34.08 11.2 6.21 12.51 1.2 27.73-11.28 34.03M344.93 123.17c-.77 13.92-12.77 24.61-26.77 23.81-13.97-.8-24.61-12.75-23.81-26.69.8-14 12.77-24.66 26.72-23.86 13.94.76 24.61 12.74 23.86 26.74M88.69 142.42c8.24 5.36 10.48 16.37 5.15 24.53-5.41 8.19-16.37 10.48-24.58 5.12-8.19-5.36-10.48-16.37-5.12-24.53 5.37-8.19 16.36-10.51 24.55-5.12M71.62 419.38c8.75-4.43 19.44-.88 23.84 7.81 4.4 8.77.83 19.44-7.89 23.81-8.75 4.45-19.41.93-23.78-7.81-4.43-8.72-.94-19.44 7.83-23.81m229.5 153.21c.53-9.71 8.91-17.2 18.72-16.67 9.79.56 17.23 8.96 16.67 18.69a17.709 17.709 0 01-18.69 16.72c-9.82-.55-17.26-8.87-16.7-18.74m250.22-123.64c-8.21-5.33-10.48-16.37-5.12-24.58 5.33-8.19 16.37-10.45 24.53-5.01 8.24 5.36 10.48 16.32 5.09 24.53-5.35 8.15-16.34 10.47-24.5 5.06m17.09-276.91c-8.8 4.4-19.44.88-23.81-7.87-4.43-8.72-.91-19.41 7.84-23.81 8.72-4.4 19.41-.91 23.76 7.87 4.37 8.72.9 19.39-7.79 23.81M337.12 18.75c-.61 9.79-8.93 17.28-18.72 16.69-9.79-.56-17.28-8.93-16.72-18.67.59-9.81 8.93-17.31 18.72-16.75 9.79.57 17.25 8.94 16.72 18.73" fill="#0033ad"/></svg>