<svg width="170" height="24" viewBox="0 0 170 24" fill="none" xmlns="http://www.w3.org/2000/svg">
<g id="Group">
<path id="Vector" d="M7.02145 11.9114C7.01245 12.3582 7.17703 12.791 7.48058 13.1188C7.78413 13.4467 8.20299 13.6441 8.64908 13.6695C9.09517 13.6949 9.53372 13.5463 9.87252 13.255C10.2113 12.9637 10.424 12.5524 10.4657 12.1075C10.4917 11.6507 10.3352 11.2022 10.0305 10.8608C9.72589 10.5194 9.29808 10.313 8.84124 10.287C8.38439 10.261 7.93593 10.4175 7.5945 10.7221C7.25308 11.0268 7.04666 11.4546 7.02066 11.9114H7.02145ZM0.589121 11.4718C0.516124 11.4677 0.443024 11.4779 0.373995 11.502C0.304965 11.5261 0.241358 11.5636 0.186804 11.6123C0.0766289 11.7106 0.0100206 11.8486 0.00163232 11.9961C-0.00675592 12.1435 0.0437631 12.2882 0.142076 12.3984C0.240388 12.5085 0.378442 12.5752 0.525865 12.5835C0.600964 12.5916 0.676909 12.5842 0.74909 12.562C0.821271 12.5398 0.888181 12.5031 0.94576 12.4542C1.00334 12.4054 1.05039 12.3453 1.08405 12.2777C1.1177 12.2101 1.13727 12.1363 1.14156 12.0609C1.14585 11.9855 1.13478 11.91 1.109 11.839C1.08323 11.768 1.0433 11.703 0.991638 11.6479C0.939974 11.5928 0.877655 11.5488 0.808461 11.5185C0.739268 11.4883 0.664645 11.4724 0.589121 11.4718ZM6.91075 1.91387C6.97623 1.88113 7.0346 1.83578 7.0825 1.78043C7.13041 1.72507 7.16691 1.66079 7.1899 1.59129C7.2129 1.52179 7.22194 1.44843 7.21651 1.37542C7.21107 1.30242 7.19127 1.2312 7.15824 1.16587C7.10869 1.06733 7.03102 0.985708 6.93506 0.931326C6.83911 0.876945 6.72918 0.852251 6.61918 0.860369C6.50919 0.868487 6.40407 0.909053 6.31714 0.976933C6.23021 1.04481 6.16537 1.13696 6.13082 1.2417C6.09628 1.34644 6.09358 1.45908 6.12307 1.56536C6.15256 1.67164 6.21292 1.76678 6.29651 1.83874C6.38009 1.9107 6.48314 1.95625 6.59262 1.96963C6.7021 1.983 6.81309 1.9636 6.91154 1.91387H6.91075ZM8.66135 4.9628C9.08675 4.74852 9.25754 4.23061 9.04326 3.8068C8.94026 3.60279 8.7605 3.44799 8.54347 3.37639C8.32644 3.30478 8.08986 3.32223 7.88568 3.42489C7.78475 3.47582 7.69484 3.54614 7.62109 3.63181C7.54733 3.71749 7.49117 3.81686 7.45582 3.92424C7.42047 4.03162 7.40661 4.14491 7.41504 4.25765C7.42347 4.37039 7.45403 4.48036 7.50496 4.58129C7.55589 4.68222 7.6262 4.77212 7.71188 4.84588C7.79756 4.91963 7.89692 4.97579 8.00431 5.01114C8.11169 5.0465 8.22498 5.06035 8.33772 5.05192C8.45045 5.04349 8.56042 5.01373 8.66135 4.9628ZM2.77224 7.05815C2.92928 7.15023 3.11569 7.17848 3.29296 7.13705C3.47023 7.09563 3.62482 6.9877 3.72479 6.83556C3.82476 6.68342 3.86248 6.49869 3.83015 6.31954C3.79782 6.14038 3.69792 5.98049 3.55107 5.87289C3.39403 5.78081 3.20762 5.75256 3.03035 5.79399C2.85308 5.83541 2.69849 5.94334 2.59852 6.09548C2.49855 6.24762 2.46083 6.43235 2.49316 6.6115C2.52549 6.79065 2.62539 6.95055 2.77224 7.05815ZM3.8207 11.1619C3.59244 11.1488 3.36831 11.2269 3.19764 11.379C3.02696 11.5311 2.92372 11.7449 2.91061 11.9731C2.8975 12.2014 2.97561 12.4255 3.12775 12.5962C3.27989 12.7669 3.4936 12.8701 3.72186 12.8832C3.95023 12.8963 4.17446 12.8182 4.34521 12.666C4.51596 12.5137 4.61925 12.2999 4.63235 12.0716C4.64546 11.8432 4.56731 11.619 4.4151 11.4482C4.26288 11.2775 4.04907 11.175 3.8207 11.1619ZM2.86633 16.945C2.78321 16.9869 2.70916 17.0448 2.6484 17.1153C2.58764 17.1858 2.54136 17.2676 2.51221 17.356C2.45334 17.5345 2.46781 17.7292 2.55242 17.897C2.63704 18.0649 2.78488 18.1923 2.96341 18.2511C3.14195 18.31 3.33655 18.2955 3.50442 18.2109C3.67229 18.1263 3.79967 17.9785 3.85854 17.7999C3.91741 17.6214 3.90295 17.4268 3.81833 17.2589C3.73371 17.0911 3.58588 16.9637 3.40734 16.9048C3.22881 16.8459 3.0342 16.8604 2.86633 16.945ZM6.21493 9.3828C6.43943 9.51848 6.70778 9.56186 6.96359 9.50381C7.21941 9.44576 7.44275 9.29081 7.5867 9.07151C7.73064 8.85222 7.78397 8.58567 7.73548 8.32787C7.68698 8.07008 7.54044 7.84112 7.32666 7.68912C7.10179 7.54192 6.82769 7.48997 6.56455 7.54467C6.30141 7.59937 6.07074 7.75626 5.92317 7.98089C5.84991 8.09198 5.79933 8.21646 5.77434 8.34717C5.74935 8.47787 5.75044 8.61223 5.77756 8.74251C5.80467 8.87279 5.85727 8.99643 5.93233 9.10631C6.00739 9.2162 6.10344 9.31016 6.21493 9.3828ZM16.8387 4.89401C17.2365 5.15494 17.771 5.04345 18.0327 4.64573C18.1466 4.4546 18.1822 4.22688 18.1321 4.01011C18.0821 3.79334 17.9502 3.60429 17.7641 3.48244C17.5779 3.36059 17.3519 3.31537 17.1332 3.35621C16.9145 3.39706 16.7201 3.52082 16.5905 3.70164C16.3295 4.09936 16.4402 4.63308 16.8387 4.89401ZM18.6067 1.85536C18.668 1.89726 18.737 1.92654 18.8096 1.94147C18.8823 1.95641 18.9573 1.9567 19.03 1.94234C19.1028 1.92798 19.1721 1.89925 19.2336 1.85783C19.2952 1.81641 19.3479 1.76314 19.3886 1.70112C19.4293 1.6391 19.4573 1.56958 19.4708 1.49663C19.4844 1.42367 19.4833 1.34875 19.4675 1.27624C19.4518 1.20373 19.4218 1.13508 19.3792 1.07432C19.3366 1.01355 19.2823 0.961883 19.2195 0.922335C19.0958 0.844403 18.9465 0.818121 18.8036 0.84914C18.6607 0.880159 18.5357 0.966001 18.4554 1.08822C18.3751 1.21043 18.346 1.35926 18.3743 1.50271C18.4026 1.64616 18.4861 1.77278 18.6067 1.85536ZM16.974 10.2715C16.5175 10.2456 16.0694 10.4019 15.7281 10.7062C15.3869 11.0104 15.1803 11.4376 15.1538 11.8941C15.1287 12.3504 15.2856 12.7981 15.59 13.1389C15.8945 13.4798 16.3216 13.6861 16.7779 13.7127L16.8775 13.715C17.7907 13.715 18.5459 13.001 18.5988 12.0901C18.6123 11.8641 18.5807 11.6376 18.5059 11.4238C18.4311 11.21 18.3146 11.0132 18.1632 10.8448C18.0128 10.6752 17.8303 10.5372 17.6261 10.4388C17.422 10.3404 17.2003 10.2835 16.974 10.2715ZM9.22828 9.26419C9.43475 9.67218 9.79459 9.98164 10.2289 10.1247C10.6632 10.2677 11.1365 10.2327 11.545 10.0272C11.7486 9.92618 11.9302 9.78588 12.0794 9.61438C12.2286 9.44289 12.3424 9.24358 12.4142 9.02794C12.486 8.8123 12.5145 8.58458 12.498 8.35789C12.4815 8.1312 12.4203 7.91001 12.318 7.70706C12.2156 7.50411 12.0742 7.3234 11.9017 7.17534C11.7293 7.02727 11.5292 6.91478 11.3131 6.84432C11.097 6.77387 10.8691 6.74685 10.6425 6.76482C10.416 6.78279 10.1952 6.8454 9.99289 6.94903C9.58463 7.15459 9.27473 7.51388 9.13135 7.94789C8.98796 8.3819 9.02283 8.85509 9.22828 9.2634V9.26419ZM22.7532 7.05657C22.921 6.97169 23.0483 6.82376 23.1073 6.64518C23.1663 6.46659 23.1521 6.27191 23.0679 6.10378C22.9777 5.94555 22.8302 5.82799 22.6558 5.77535C22.4815 5.7227 22.2936 5.73898 22.1309 5.82084C21.9682 5.90269 21.8431 6.04388 21.7814 6.21525C21.7198 6.38663 21.7263 6.57514 21.7996 6.74187C21.8846 6.90975 22.0327 7.03712 22.2114 7.09609C22.3901 7.15507 22.5849 7.14086 22.7532 7.05657ZM18.3774 7.60531C18.2585 7.66497 18.1525 7.74752 18.0656 7.84821C17.9786 7.9489 17.9124 8.06577 17.8707 8.19211C17.8289 8.31844 17.8126 8.45177 17.8224 8.58445C17.8323 8.71713 17.8683 8.84656 17.9283 8.96531C18.0547 9.19561 18.2656 9.36789 18.5164 9.44589C18.7673 9.52389 19.0387 9.50152 19.2734 9.3835C19.5081 9.26548 19.6879 9.061 19.7749 8.81311C19.8619 8.56522 19.8493 8.29324 19.7398 8.05443C19.6185 7.81438 19.407 7.63227 19.1515 7.54807C18.8961 7.46387 18.6177 7.48445 18.3774 7.60531ZM12.7453 1.59601C12.8383 1.6013 12.9315 1.58822 13.0195 1.55751C13.1075 1.5268 13.1885 1.47906 13.2581 1.41702C13.3276 1.35498 13.3842 1.27985 13.4247 1.19592C13.4652 1.11199 13.4888 1.02091 13.4941 0.92787C13.4994 0.834833 13.4863 0.741664 13.4556 0.653683C13.4249 0.565701 13.3771 0.48463 13.3151 0.415099C13.2531 0.345567 13.1779 0.288936 13.094 0.24844C13.0101 0.207944 12.919 0.184375 12.826 0.17908C12.7329 0.173784 12.6398 0.186865 12.5518 0.217576C12.4638 0.248287 12.3827 0.296027 12.3132 0.35807C12.2437 0.420112 12.187 0.495242 12.1465 0.579171C12.106 0.663099 12.0825 0.754182 12.0772 0.847219C12.0719 0.940256 12.085 1.03342 12.1157 1.12141C12.1464 1.20939 12.1941 1.29046 12.2562 1.35999C12.3182 1.42952 12.3933 1.48615 12.4773 1.52665C12.5612 1.56714 12.6523 1.59071 12.7453 1.59601ZM12.7366 6.05633C13.005 6.07185 13.2686 5.9801 13.4694 5.80127C13.6702 5.62244 13.7917 5.37118 13.8072 5.10275C13.8227 4.83433 13.731 4.57073 13.5522 4.36996C13.3733 4.16918 13.1221 4.04767 12.8536 4.03215C12.5852 4.01663 12.3216 4.10838 12.1208 4.28721C11.9201 4.46604 11.7985 4.71731 11.783 4.98573C11.7675 5.25415 11.8593 5.51775 12.0381 5.71852C12.2169 5.9193 12.4682 6.04081 12.7366 6.05633ZM7.24284 16.3963C7.48264 16.2752 7.66451 16.0638 7.74844 15.8086C7.83237 15.5534 7.81148 15.2753 7.69038 15.0355C7.56927 14.7957 7.35787 14.6138 7.10267 14.5299C6.84747 14.446 6.56938 14.4669 6.32959 14.588C6.21074 14.6477 6.10483 14.7303 6.01793 14.831C5.93102 14.9317 5.86482 15.0485 5.82311 15.1749C5.78139 15.3012 5.76499 15.4345 5.77483 15.5671C5.78468 15.6998 5.82057 15.8292 5.88047 15.948C6.1327 16.4469 6.74312 16.6477 7.24284 16.3963ZM13.3929 7.53415C13.2225 7.79406 13.1256 8.09519 13.1124 8.40566C13.0992 8.71614 13.1701 9.02442 13.3178 9.29788C13.4654 9.57134 13.6842 9.7998 13.951 9.95909C14.2178 10.1184 14.5228 10.2026 14.8335 10.2028C15.2907 10.2032 15.7293 10.022 16.0529 9.699C16.3764 9.37604 16.5584 8.93777 16.5588 8.48061C16.5593 8.02345 16.3781 7.58485 16.0551 7.26129C15.7321 6.93774 15.2939 6.75573 14.8367 6.75531C14.2516 6.75531 13.7123 7.04708 13.3929 7.53415ZM16.3912 14.7382C16.2481 14.4521 16.0279 14.2117 15.7555 14.0441C15.483 13.8765 15.1692 13.7882 14.8494 13.7894C14.5829 13.7894 14.3141 13.8526 14.0745 13.9744C13.6633 14.1815 13.3573 14.5358 13.2126 14.9738C13.1407 15.1885 13.1123 15.4154 13.1292 15.6412C13.146 15.8669 13.2077 16.0871 13.3107 16.2887C13.4126 16.4911 13.5534 16.6713 13.725 16.8192C13.8966 16.967 14.0957 17.0796 14.3109 17.1505C14.526 17.2213 14.7531 17.2491 14.979 17.2322C15.2049 17.2152 15.4252 17.1539 15.6274 17.0518C16.0354 16.8462 16.3452 16.4871 16.4886 16.0532C16.6319 15.6194 16.5972 15.1464 16.392 14.7382H16.3912ZM19.4054 14.618C19.1803 14.471 18.9061 14.4191 18.6429 14.4738C18.3797 14.5285 18.1489 14.6853 18.0011 14.9098C17.8656 15.1346 17.8226 15.4031 17.8809 15.659C17.9393 15.9149 18.0946 16.1382 18.3141 16.282C18.5337 16.4258 18.8004 16.4789 19.0583 16.4302C19.3162 16.3814 19.5452 16.2347 19.6971 16.0207C19.7702 15.9094 19.8205 15.7849 19.8454 15.6541C19.8702 15.5233 19.869 15.389 19.8418 15.2587C19.8146 15.1284 19.762 15.0047 19.687 14.8948C19.612 14.7849 19.5168 14.6908 19.4054 14.618ZM22.7089 12.0301C22.7109 11.8082 22.6275 11.594 22.4759 11.432C22.3243 11.27 22.1161 11.1726 21.8946 11.16C21.673 11.1474 21.4552 11.2205 21.2861 11.3643C21.1171 11.508 21.0099 11.7113 20.9867 11.932C20.9737 12.1603 21.052 12.3844 21.2042 12.555C21.3564 12.7256 21.5701 12.8287 21.7984 12.8417C22.0267 12.8547 22.2507 12.7765 22.4213 12.6243C22.5919 12.4721 22.6959 12.2583 22.7089 12.0301ZM25.0944 11.4173C25.0213 11.413 24.9481 11.4232 24.8789 11.4472C24.8098 11.4713 24.746 11.5087 24.6913 11.5574C24.5808 11.6557 24.514 11.7939 24.5054 11.9415C24.4968 12.0891 24.5472 12.2341 24.6455 12.3446C24.7438 12.4551 24.882 12.522 25.0296 12.5306C25.1772 12.5392 25.3222 12.4888 25.4327 12.3904C25.5432 12.2921 25.6101 12.154 25.6187 12.0063C25.6273 11.8587 25.5769 11.7137 25.4785 11.6032C25.3802 11.4928 25.2421 11.4259 25.0944 11.4173ZM22.8473 16.9427C22.7694 16.8916 22.6822 16.8563 22.5907 16.8389C22.4992 16.8215 22.4052 16.8223 22.314 16.8413C22.1298 16.8795 21.9684 16.9894 21.8652 17.1467C21.762 17.3039 21.7256 17.4958 21.7638 17.6799C21.8021 17.8641 21.9119 18.0255 22.0692 18.1287C22.1471 18.1806 22.2345 18.2166 22.3263 18.2346C22.4181 18.2526 22.5126 18.2522 22.6043 18.2336C22.696 18.2149 22.7831 18.1782 22.8606 18.1257C22.9381 18.0732 23.0044 18.0059 23.0557 17.9276C23.107 17.8494 23.1424 17.7617 23.1597 17.6698C23.177 17.5778 23.1759 17.4833 23.1566 17.3917C23.1372 17.3002 23.0999 17.2134 23.0468 17.1363C22.9937 17.0592 22.9259 16.9934 22.8473 16.9427ZM7.01354 22.1454C6.92151 22.0851 6.81366 22.0534 6.70362 22.0544C6.59358 22.0553 6.48628 22.0888 6.3953 22.1507C6.30431 22.2126 6.2337 22.3001 6.19241 22.4021C6.15111 22.5041 6.14097 22.616 6.16328 22.7238C6.18558 22.8316 6.23932 22.9303 6.31771 23.0075C6.3961 23.0848 6.49563 23.137 6.60371 23.1577C6.71179 23.1784 6.82358 23.1666 6.92495 23.1238C7.02632 23.081 7.11273 23.0091 7.17326 22.9172C7.21349 22.856 7.24125 22.7875 7.25495 22.7155C7.26866 22.6436 7.26803 22.5697 7.25312 22.498C7.23821 22.4263 7.20931 22.3583 7.16806 22.2978C7.12681 22.2373 7.07482 22.1855 7.01354 22.1454ZM18.708 22.0877C18.6427 22.1207 18.5846 22.1663 18.5369 22.2218C18.4893 22.2773 18.453 22.3416 18.4302 22.4111C18.4074 22.4806 18.3985 22.5539 18.4041 22.6268C18.4096 22.6997 18.4294 22.7709 18.4624 22.8361C18.4955 22.9014 18.541 22.9595 18.5965 23.0072C18.652 23.0548 18.7163 23.0911 18.7858 23.1139C18.8553 23.1367 18.9286 23.1456 19.0015 23.14C19.0745 23.1345 19.1456 23.1146 19.2108 23.0816C19.2761 23.0486 19.3342 23.0031 19.3819 22.9476C19.4295 22.8921 19.4658 22.8278 19.4886 22.7583C19.5114 22.6888 19.5203 22.6155 19.5147 22.5425C19.5092 22.4696 19.4894 22.3985 19.4564 22.3332C19.4233 22.268 19.3778 22.2099 19.3223 22.1622C19.2668 22.1145 19.2025 22.0783 19.133 22.0555C19.0635 22.0327 18.9902 22.0238 18.9173 22.0293C18.8443 22.0349 18.7732 22.0547 18.708 22.0877ZM12.2274 16.4674C12.4804 16.0816 12.5674 15.6214 12.4741 15.1707C12.3704 14.7334 12.1002 14.3538 11.721 14.1126C11.3418 13.8714 10.8834 13.7876 10.4434 13.879C10.0033 13.9705 9.61633 14.2299 9.36461 14.6023C9.1129 14.9746 9.01633 15.4304 9.09545 15.8728C9.16439 16.2073 9.33114 16.5138 9.57454 16.7534C9.81795 16.993 10.127 17.1548 10.4626 17.2184C10.7981 17.2821 11.145 17.2446 11.4592 17.1107C11.7734 16.9769 12.0408 16.7535 12.2274 16.4674ZM8.78075 19.1076C8.6861 19.0455 8.58015 19.0026 8.46895 18.9815C8.35774 18.9604 8.24346 18.9613 8.13263 18.9843C8.0218 19.0073 7.91659 19.052 7.823 19.1157C7.72941 19.1793 7.64928 19.2608 7.58719 19.3555C7.5251 19.4501 7.48225 19.5561 7.4611 19.6673C7.43996 19.7785 7.44092 19.8928 7.46394 20.0036C7.48696 20.1144 7.53158 20.2196 7.59526 20.3132C7.65894 20.4068 7.74043 20.4869 7.83507 20.549C8.02622 20.6744 8.25936 20.7188 8.48319 20.6723C8.70703 20.6258 8.90323 20.4923 9.02863 20.3011C9.15404 20.11 9.19837 19.8769 9.15189 19.653C9.1054 19.4292 8.9719 19.233 8.78075 19.1076ZM12.8014 22.4056C12.7081 22.3996 12.6145 22.4121 12.526 22.4424C12.4375 22.4728 12.3559 22.5203 12.2858 22.5823C12.2158 22.6443 12.1587 22.7196 12.1179 22.8037C12.077 22.8879 12.0532 22.9793 12.0479 23.0727C12.0425 23.166 12.0557 23.2596 12.0866 23.3479C12.1175 23.4361 12.1656 23.5174 12.2281 23.5871C12.2905 23.6567 12.3662 23.7133 12.4506 23.7535C12.535 23.7938 12.6266 23.817 12.72 23.8217C12.907 23.8312 13.0902 23.7663 13.2296 23.6413C13.369 23.5162 13.4533 23.3411 13.464 23.1541C13.4748 22.9671 13.4112 22.7835 13.287 22.6433C13.1629 22.503 12.9883 22.4176 12.8014 22.4056ZM12.8094 17.9453C12.6766 17.9377 12.5437 17.9564 12.4181 18.0003C12.2926 18.0441 12.1769 18.1123 12.0777 18.2008C11.8774 18.3796 11.7563 18.6307 11.7411 18.8988C11.7259 19.1669 11.8178 19.4301 11.9967 19.6304C12.1755 19.8308 12.4266 19.9519 12.6947 19.9671C12.9628 19.9823 13.226 19.8904 13.4263 19.7115C13.6266 19.5327 13.7477 19.2816 13.7629 19.0135C13.7781 18.7454 13.6862 18.4822 13.5074 18.2819C13.3286 18.0815 13.0775 17.9605 12.8094 17.9453ZM16.9581 19.0388C16.8496 19.0849 16.7516 19.1528 16.6703 19.2383C16.589 19.3238 16.5261 19.425 16.4856 19.5358C16.445 19.6466 16.4276 19.7645 16.4345 19.8822C16.4413 20 16.4723 20.1151 16.5254 20.2204C16.5786 20.3257 16.6528 20.419 16.7434 20.4945C16.8341 20.57 16.9393 20.626 17.0525 20.6592C17.1657 20.6924 17.2845 20.702 17.4016 20.6874C17.5186 20.6728 17.6314 20.6343 17.733 20.5743C17.9214 20.4631 18.0604 20.2844 18.122 20.0745C18.1835 19.8646 18.1629 19.6392 18.0643 19.4439C17.9658 19.2486 17.7966 19.0981 17.5912 19.0228C17.3858 18.9476 17.1595 18.9533 16.9581 19.0388ZM35.991 7.93029C37.661 7.93029 38.8296 8.84749 38.8296 10.5491H41.0183C41.0183 7.5634 38.813 6.12908 35.9578 6.12908C32.4495 6.12908 30.4119 8.0307 30.4119 12.0514C30.4119 16.1709 32.4495 17.9729 35.957 17.9729C38.847 17.9729 41.0183 16.5718 41.0183 13.5854H38.9134C38.9134 15.2537 37.7614 16.1709 35.991 16.1709C33.6688 16.1709 32.6005 14.8868 32.6005 12.2174V11.8838C32.6005 9.26498 33.6854 7.93029 35.991 7.93029ZM46.803 6.32912L42.3419 17.7721H44.5472L45.4652 15.2861H50.7107L51.6453 17.7721H53.9509L49.4914 6.32833H46.8022L46.803 6.32912ZM46.1341 13.4849L47.3043 10.349C47.5376 9.73228 47.9551 8.39759 48.0389 8.16354H48.1219C48.2057 8.39759 48.6232 9.74889 48.8573 10.349L50.0259 13.4857L46.1341 13.4849ZM65.881 9.7987C65.881 7.67963 64.6617 6.32912 62.1394 6.32912H56.0921V17.7721H58.2302V13.3521H61.7883L63.9588 17.7721H66.2977L63.8426 13.0184C65.1947 12.4847 65.8794 11.3501 65.8794 9.7987H65.881ZM61.9726 11.5501H58.231V8.14694H61.9726C63.1246 8.14694 63.7263 8.76368 63.7263 9.7987C63.7263 10.8835 63.0748 11.5501 61.9726 11.5501ZM73.3823 6.32912H68.8058V17.7721H73.3823C76.8393 17.7721 78.9441 15.9701 78.9441 12.0498C78.9441 8.12954 76.8393 6.32912 73.3823 6.32912ZM76.7562 12.2174C76.7396 14.72 75.5536 15.9543 73.3823 15.9543H70.943V8.14773H73.3823C75.5536 8.14773 76.7562 9.38122 76.7562 11.8838V12.2174ZM84.5415 6.32912L80.0819 17.7729H82.2864L83.2052 15.2869H88.4499L89.3853 17.7729H91.6901L87.2306 6.32912H84.5415ZM83.8733 13.4849L85.0427 10.349C85.2768 9.73228 85.6935 8.39759 85.7781 8.16354H85.8611C85.9441 8.39759 86.3616 9.74889 86.5965 10.349L87.7651 13.4857L83.8733 13.4849ZM101.465 13.1347C101.465 13.3521 101.498 13.9356 101.498 14.0361L101.415 14.0693C101.365 14.0028 101.031 13.4185 100.846 13.1521L95.869 6.32833H93.8314V17.7729H95.8864V10.916C95.8864 10.6329 95.8524 10.0826 95.8524 9.99875L95.9362 9.94894C95.986 10.0154 96.2367 10.4993 96.5039 10.8835L101.515 17.7729H103.519V6.32912H101.465V13.1347ZM112.034 6.12829C108.443 6.12829 106.272 8.0307 106.272 12.0506C106.272 16.0713 108.443 17.9729 112.035 17.9729C115.626 17.9729 117.814 16.0713 117.814 12.0506C117.814 8.0307 115.626 6.12829 112.034 6.12829ZM115.626 12.2341C115.626 14.8536 114.373 16.1717 112.035 16.1717C109.713 16.1717 108.461 14.8536 108.461 12.2341V11.8838C108.461 9.26498 109.73 7.93029 112.035 7.93029C114.356 7.93029 115.626 9.26498 115.626 11.8838V12.2341ZM129.586 17.5349C132.226 17.5349 134.152 15.9582 134.152 12.2214V11.4584C134.152 7.68912 132.226 6.14489 129.586 6.14489H125.8V17.5349H129.586ZM129.586 16.4232H127.029V7.2574H129.586C131.578 7.2574 132.907 8.40312 132.907 11.3754V12.3052C132.907 15.3605 131.529 16.4232 129.586 16.4232ZM141.864 17.7017C144.421 17.7017 146.347 16.2073 146.347 12.3052V11.3754C146.347 7.47326 144.421 5.97884 141.831 5.97884H141.731C139.225 5.97884 137.248 7.44005 137.248 11.3754V12.3052C137.248 16.2405 139.191 17.7017 141.764 17.7017H141.864ZM141.797 16.5892C139.822 16.5892 138.477 15.5265 138.477 12.4048V11.2757C138.477 8.13666 139.855 7.09136 141.797 7.09136C143.774 7.09136 145.118 8.15405 145.118 11.2757V12.4048C145.118 15.5597 143.724 16.5892 141.797 16.5892ZM154.01 17.7017C156.351 17.7017 158.227 16.3567 158.227 13.2849H157.032C157.032 15.676 155.737 16.5892 153.91 16.5892C151.951 16.5892 150.705 15.5265 150.705 12.4048V11.2757C150.705 8.13666 151.967 7.09136 153.927 7.09136C155.703 7.09136 156.999 8.00461 156.999 10.4123H158.227C158.227 7.27322 156.334 5.97884 153.993 5.97884H153.86C151.27 5.97884 149.46 7.47326 149.46 11.3754V12.3052C149.46 16.2405 151.27 17.7017 153.877 17.7017H154.01ZM165.259 17.7017C167.65 17.7017 169.426 16.7719 169.426 14.2812C169.426 10.0968 162.536 11.8063 162.536 8.88466C162.536 7.63931 163.682 7.09136 165.259 7.09136C166.753 7.09136 167.916 7.72233 167.916 8.95108V9.26656H169.111V9.06731C169.111 6.94191 167.484 5.97884 165.226 5.97884C163.083 5.97884 161.324 6.85889 161.324 8.98349C161.324 13.0856 168.215 11.2591 168.215 14.4804C168.215 15.9907 166.953 16.5892 165.226 16.5892C163.516 16.5892 162.253 15.9914 162.253 14.4638C162.253 14.3136 162.253 14.1981 162.27 14.0487H161.058C161.041 14.1649 161.041 14.2646 161.041 14.3642C161.041 16.7387 162.802 17.7009 165.259 17.7009V17.7017Z" fill="white"/>
</g>
</svg>
