<svg width="24" height="25" viewBox="0 0 24 25" fill="none" xmlns="http://www.w3.org/2000/svg">
<path d="M16.627 13.4201H5.25C5.03717 13.4201 4.859 13.3482 4.7155 13.2046C4.57183 13.0611 4.5 12.8829 4.5 12.6701C4.5 12.4572 4.57183 12.2791 4.7155 12.1356C4.859 11.9919 5.03717 11.9201 5.25 11.9201H16.627L11.4577 6.7508C11.3091 6.60213 11.2357 6.42813 11.2375 6.2288C11.2395 6.02947 11.318 5.85222 11.473 5.69705C11.6282 5.55222 11.8038 5.47722 12 5.47205C12.1962 5.46688 12.3718 5.54188 12.527 5.69705L18.8673 12.0373C18.9609 12.131 19.0269 12.2297 19.0652 12.3336C19.1038 12.4374 19.123 12.5496 19.123 12.6701C19.123 12.7906 19.1038 12.9027 19.0652 13.0066C19.0269 13.1104 18.9609 13.2091 18.8673 13.3028L12.527 19.6431C12.3885 19.7816 12.217 19.8524 12.0125 19.8556C11.808 19.8587 11.6282 19.7879 11.473 19.6431C11.318 19.4879 11.2405 19.3097 11.2405 19.1086C11.2405 18.9072 11.318 18.729 11.473 18.5738L16.627 13.4201Z" fill="currentColor"/>
</svg>
