<svg width="24" height="24" viewBox="0 0 24 24" fill="none" xmlns="http://www.w3.org/2000/svg">
<g id="chevron/down">
<path id="Vector" d="M12 14.677C11.8795 14.677 11.7673 14.6577 11.6635 14.6192C11.5597 14.5807 11.4609 14.5147 11.3673 14.4212L6.873 9.927C6.73467 9.7885 6.66384 9.61441 6.6605 9.40475C6.65734 9.19525 6.72817 9.018 6.873 8.873C7.018 8.72816 7.19367 8.65575 7.4 8.65575C7.60634 8.65575 7.782 8.72816 7.927 8.873L12 12.9462L16.073 8.873C16.2115 8.73466 16.3856 8.66383 16.5953 8.6605C16.8048 8.65733 16.982 8.72816 17.127 8.873C17.2718 9.018 17.3443 9.19366 17.3443 9.4C17.3443 9.60633 17.2718 9.782 17.127 9.927L12.6328 14.4212C12.5391 14.5147 12.4403 14.5807 12.3365 14.6192C12.2327 14.6577 12.1205 14.677 12 14.677Z" fill="#ffffff"/>
</g>
</svg>
