<svg xmlns="http://www.w3.org/2000/svg" width="24" height="25" viewBox="0 0 24 25" fill="none">
<path d="M11.9995 13.1271L6.92652 18.2004C6.78802 18.3387 6.61394 18.4096 6.40427 18.4129C6.19477 18.4161 6.01752 18.3452 5.87252 18.2004C5.72769 18.0554 5.65527 17.8797 5.65527 17.6734C5.65527 17.4671 5.72769 17.2914 5.87252 17.1464L10.9458 12.0734L5.87252 7.00039C5.73419 6.86189 5.66336 6.68781 5.66002 6.47814C5.65686 6.26864 5.72769 6.09139 5.87252 5.94639C6.01752 5.80156 6.19319 5.72914 6.39952 5.72914C6.60586 5.72914 6.78152 5.80156 6.92652 5.94639L11.9995 11.0196L17.0725 5.94639C17.211 5.80806 17.3851 5.73722 17.5948 5.73389C17.8043 5.73072 17.9815 5.80156 18.1265 5.94639C18.2714 6.09139 18.3438 6.26706 18.3438 6.47339C18.3438 6.67973 18.2714 6.85539 18.1265 7.00039L13.0533 12.0734L18.1265 17.1464C18.2649 17.2849 18.3357 17.459 18.339 17.6686C18.3422 17.8781 18.2714 18.0554 18.1265 18.2004C17.9815 18.3452 17.8059 18.4176 17.5995 18.4176C17.3932 18.4176 17.2175 18.3452 17.0725 18.2004L11.9995 13.1271Z" fill="currentColor"/>
</svg>