<svg width="25" height="24" viewBox="0 0 25 24" fill="none" xmlns="http://www.w3.org/2000/svg">
<g id="copy">
<path id="Vector" d="M9.39173 17.5C8.88657 17.5 8.45898 17.325 8.10898 16.975C7.75898 16.625 7.58398 16.1974 7.58398 15.6923V4.30775C7.58398 3.80258 7.75898 3.375 8.10898 3.025C8.45898 2.675 8.88657 2.5 9.39173 2.5H17.7762C18.2814 2.5 18.709 2.675 19.059 3.025C19.409 3.375 19.584 3.80258 19.584 4.30775V15.6923C19.584 16.1974 19.409 16.625 19.059 16.975C18.709 17.325 18.2814 17.5 17.7762 17.5H9.39173ZM9.39173 16H17.7762C17.8532 16 17.9237 15.9679 17.9877 15.9038C18.0519 15.8398 18.084 15.7692 18.084 15.6923V4.30775C18.084 4.23075 18.0519 4.16025 17.9877 4.09625C17.9237 4.03208 17.8532 4 17.7762 4H9.39173C9.31473 4 9.24423 4.03208 9.18023 4.09625C9.11607 4.16025 9.08398 4.23075 9.08398 4.30775V15.6923C9.08398 15.7692 9.11607 15.8398 9.18023 15.9038C9.24423 15.9679 9.31473 16 9.39173 16ZM5.89173 21C5.38657 21 4.95898 20.825 4.60898 20.475C4.25898 20.125 4.08398 19.6974 4.08398 19.1923V7.05775C4.08398 6.84492 4.15582 6.66667 4.29948 6.523C4.44298 6.3795 4.62115 6.30775 4.83398 6.30775C5.04682 6.30775 5.22507 6.3795 5.36873 6.523C5.51223 6.66667 5.58398 6.84492 5.58398 7.05775V19.1923C5.58398 19.2693 5.61607 19.3398 5.68023 19.4038C5.74423 19.4679 5.81473 19.5 5.89173 19.5H15.0262C15.2391 19.5 15.4173 19.5718 15.561 19.7153C15.7045 19.8589 15.7762 20.0372 15.7762 20.25C15.7762 20.4628 15.7045 20.641 15.561 20.7845C15.4173 20.9282 15.2391 21 15.0262 21H5.89173Z" fill="currentColor"/>
</g>
</svg>
