<svg width="18" height="19" viewBox="0 0 18 19" fill="none" xmlns="http://www.w3.org/2000/svg">
<g id="svgexport-13 1">
<g id="Group">
<path id="Vector" d="M2.57449 17.3227H11.1291C11.0911 17.6206 10.8699 17.993 11.1655 18.3662C11.351 18.5896 11.6839 18.7006 11.9803 18.5524L13.0914 18.0303L14.239 18.5524C14.5354 18.6641 14.8318 18.5896 15.0537 18.3662C15.1654 18.2172 15.2391 17.9938 15.2019 17.8068L14.7208 15.4972C16.0539 14.9013 16.9795 13.5227 16.9795 11.9586C16.9795 10.0586 15.6093 8.49377 13.8316 8.15862V1.6021C13.8338 1.39192 13.7942 1.18341 13.7151 0.988679C13.636 0.79395 13.519 0.616895 13.3708 0.467814C13.2227 0.318733 13.0463 0.200601 12.8521 0.120291C12.6579 0.0399814 12.4496 -0.000903403 12.2394 1.51405e-05H2.61173C1.72253 1.51405e-05 1.01953 0.707575 1.01953 1.6021V15.7579C1.01953 16.6151 1.72329 17.3235 2.57449 17.3235V17.3227ZM13.9798 15.7579L14.4244 17.8441L13.2388 17.3227C13.1286 17.2855 13.0177 17.2855 12.9432 17.3227L11.7956 17.8441L12.2767 15.7579C12.5358 15.7959 12.8695 15.8696 13.2023 15.8323C13.425 15.8323 13.7206 15.8323 13.9798 15.7579ZM16.202 11.9959C16.202 13.7089 14.8318 15.1248 13.1286 15.1248C12.7187 15.1243 12.3129 15.0429 11.9346 14.8852C11.5562 14.7276 11.2127 14.4968 10.9237 14.2061C10.6347 13.9154 10.4059 13.5706 10.2505 13.1913C10.0951 12.812 10.016 12.4057 10.0179 11.9959C10.0179 10.2821 11.4247 8.86618 13.1286 8.86618C14.8318 8.86618 16.202 10.2821 16.202 11.9959ZM1.75977 1.6021C1.75977 1.11722 2.13065 0.744815 2.57449 0.744815H12.2029C12.684 0.744815 13.0541 1.11722 13.0541 1.6021V8.12138C8.98053 8.15862 7.79569 13.8586 11.5729 15.5344L11.3145 16.6151H2.57449C2.09341 16.6151 1.72329 16.2427 1.72329 15.7579V1.6021H1.75977Z" fill="currentColor"/>
<path id="Vector_2" d="M10.9945 12.1364C10.9961 12.7092 11.2244 13.258 11.6294 13.663C12.0344 14.068 12.5832 14.2963 13.156 14.2979C13.7287 14.2963 14.2776 14.068 14.6826 13.663C15.0876 13.258 15.3158 12.7092 15.3174 12.1364C15.3158 11.5637 15.0876 11.0148 14.6826 10.6098C14.2776 10.2048 13.7287 9.97661 13.156 9.975C12.5832 9.97661 12.0344 10.2048 11.6294 10.6098C11.2244 11.0148 10.9961 11.5637 10.9945 12.1364ZM14.5604 12.1364C14.5594 12.5183 14.4073 12.8842 14.1373 13.1542C13.8673 13.4243 13.5013 13.5764 13.1195 13.5774C12.7378 13.5762 12.372 13.424 12.1022 13.154C11.8323 12.884 11.6803 12.5182 11.6793 12.1364C11.6793 11.3438 12.3276 10.6955 13.1195 10.6955C13.9122 10.6955 14.5604 11.3438 14.5604 12.1364ZM3.06012 3.325H10.6168C10.8433 3.325 10.9945 3.192 10.9945 2.99212C10.9945 2.793 10.8433 2.66 10.6168 2.66H3.06012C2.83288 2.66 2.68164 2.793 2.68164 2.99288C2.68164 3.192 2.87164 3.325 3.06012 3.325ZM3.06012 5.65288H10.6168C10.8433 5.65288 10.9945 5.51988 10.9945 5.32C10.9945 5.12012 10.8433 4.98712 10.6168 4.98712H3.06012C2.83288 4.98712 2.68164 5.12012 2.68164 5.32C2.68164 5.51988 2.87164 5.65288 3.06012 5.65288ZM3.06012 7.98H10.6168C10.8433 7.98 10.9945 7.847 10.9945 7.64712C10.9945 7.448 10.8433 7.315 10.6168 7.315H3.06012C2.83288 7.315 2.68164 7.448 2.68164 7.64788C2.68164 7.847 2.87164 7.98 3.06012 7.98ZM2.90888 10.3079H7.44304C7.57908 10.3079 7.66952 10.1741 7.66952 9.975C7.66952 9.77588 7.57832 9.64212 7.44304 9.64212H2.90888C2.77208 9.64212 2.68164 9.77588 2.68164 9.975C2.68164 10.1741 2.79564 10.3079 2.90888 10.3079ZM2.90888 12.635H7.44304C7.57908 12.635 7.66952 12.502 7.66952 12.3021C7.66952 12.103 7.57832 11.97 7.44304 11.97H2.90888C2.77208 11.97 2.68164 12.103 2.68164 12.3029C2.68164 12.502 2.79564 12.635 2.90888 12.635ZM2.90888 14.9629H7.44304C7.57908 14.9629 7.66952 14.8299 7.66952 14.63C7.66952 14.4309 7.57832 14.2971 7.44304 14.2971H2.90888C2.77208 14.2971 2.68164 14.4301 2.68164 14.63C2.68164 14.8291 2.79564 14.9629 2.90888 14.9629Z" fill="currentColor"/>
</g>
</g>
</svg>
