<svg width="25" height="24" viewBox="0 0 25 24" fill="none" xmlns="http://www.w3.org/2000/svg">
<g id="download">
<path id="Vector" d="M12.666 15.4115C12.5455 15.4115 12.4333 15.3923 12.3295 15.3538C12.2257 15.3154 12.1269 15.2494 12.0333 15.1558L8.92377 12.0463C8.7751 11.8974 8.70168 11.7233 8.70352 11.524C8.70552 11.3247 8.77893 11.1474 8.92377 10.9922C9.07893 10.8373 9.2571 10.7572 9.45827 10.752C9.6596 10.7468 9.83785 10.8218 9.99302 10.977L11.916 12.9V5.25C11.916 5.03717 11.9878 4.859 12.1315 4.7155C12.275 4.57183 12.4532 4.5 12.666 4.5C12.8788 4.5 13.057 4.57183 13.2005 4.7155C13.3442 4.859 13.416 5.03717 13.416 5.25V12.9L15.339 10.977C15.4878 10.8283 15.6644 10.7549 15.8688 10.7568C16.0733 10.7588 16.2531 10.8373 16.4083 10.9922C16.5531 11.1474 16.6281 11.3231 16.6333 11.5192C16.6384 11.7154 16.5634 11.8911 16.4083 12.0463L13.2988 15.1558C13.2051 15.2494 13.1063 15.3154 13.0025 15.3538C12.8987 15.3923 12.7865 15.4115 12.666 15.4115ZM6.97377 19.5C6.4686 19.5 6.04102 19.325 5.69102 18.975C5.34102 18.625 5.16602 18.1974 5.16602 17.6923V15.7308C5.16602 15.5179 5.23785 15.3398 5.38152 15.1962C5.52502 15.0526 5.70318 14.9808 5.91602 14.9808C6.12885 14.9808 6.30702 15.0526 6.45052 15.1962C6.59418 15.3398 6.66602 15.5179 6.66602 15.7308V17.6923C6.66602 17.7692 6.6981 17.8398 6.76227 17.9038C6.82627 17.9679 6.89677 18 6.97377 18H18.3583C18.4353 18 18.5058 17.9679 18.5698 17.9038C18.6339 17.8398 18.666 17.7692 18.666 17.6923V15.7308C18.666 15.5179 18.7378 15.3398 18.8815 15.1962C19.025 15.0526 19.2032 14.9808 19.416 14.9808C19.6288 14.9808 19.807 15.0526 19.9505 15.1962C20.0942 15.3398 20.166 15.5179 20.166 15.7308V17.6923C20.166 18.1974 19.991 18.625 19.641 18.975C19.291 19.325 18.8634 19.5 18.3583 19.5H6.97377Z" fill="currentColor"/>
</g>
</svg>
