<svg width="24" height="24" viewBox="0 0 24 24" fill="none" xmlns="http://www.w3.org/2000/svg">
<g id="home/fill-0">
<path id="Vector" d="M6 19H9.34625V13.9615C9.34625 13.7055 9.43283 13.4908 9.606 13.3175C9.77933 13.1443 9.994 13.0578 10.25 13.0578H13.75C14.006 13.0578 14.2207 13.1443 14.394 13.3175C14.5672 13.4908 14.6538 13.7055 14.6538 13.9615V19H18V10.1538C18 10.1026 17.9888 10.0562 17.9663 10.0145C17.9439 9.97284 17.9135 9.93592 17.875 9.90375L12.1828 5.625C12.1314 5.58017 12.0705 5.55775 12 5.55775C11.9295 5.55775 11.8686 5.58017 11.8173 5.625L6.125 9.90375C6.0865 9.93592 6.05608 9.97284 6.03375 10.0145C6.01125 10.0562 6 10.1026 6 10.1538V19ZM4.5 19V10.1538C4.5 9.86759 4.564 9.5965 4.692 9.3405C4.82017 9.08433 4.99717 8.87342 5.223 8.70775L10.9155 4.41925C11.2313 4.17825 11.5923 4.05775 11.9985 4.05775C12.4047 4.05775 12.7667 4.17825 13.0845 4.41925L18.777 8.70775C19.0028 8.87342 19.1798 9.08433 19.308 9.3405C19.436 9.5965 19.5 9.86759 19.5 10.1538V19C19.5 19.409 19.3523 19.7613 19.0568 20.0568C18.7613 20.3523 18.409 20.5 18 20.5H14.0577C13.8016 20.5 13.5869 20.4133 13.4137 20.24C13.2404 20.0668 13.1538 19.8522 13.1538 19.596V14.5578H10.8463V19.596C10.8463 19.8522 10.7596 20.0668 10.5863 20.24C10.4131 20.4133 10.1984 20.5 9.94225 20.5H6C5.591 20.5 5.23875 20.3523 4.94325 20.0568C4.64775 19.7613 4.5 19.409 4.5 19Z" fill="currentColor"/>
</g>
</svg>
