<svg width="24" height="25" viewBox="0 0 24 25" fill="none" xmlns="http://www.w3.org/2000/svg">
<g id="radio-selected">
<path id="Vector" d="M12 17C13.2487 17 14.3108 16.5622 15.1865 15.6865C16.0622 14.8108 16.5 13.7487 16.5 12.5C16.5 11.2513 16.0622 10.1892 15.1865 9.3135C14.3108 8.43783 13.2487 8 12 8C10.7513 8 9.68917 8.43783 8.8135 9.3135C7.93783 10.1892 7.5 11.2513 7.5 12.5C7.5 13.7487 7.93783 14.8108 8.8135 15.6865C9.68917 16.5622 10.7513 17 12 17ZM12.0017 22C10.6877 22 9.45267 21.7507 8.2965 21.252C7.14033 20.7533 6.13467 20.0766 5.2795 19.2218C4.42433 18.3669 3.74725 17.3617 3.24825 16.206C2.74942 15.0503 2.5 13.8156 2.5 12.5017C2.5 11.1877 2.74933 9.95267 3.248 8.7965C3.74667 7.64033 4.42342 6.63467 5.27825 5.7795C6.13308 4.92433 7.13833 4.24725 8.294 3.74825C9.44967 3.24942 10.6844 3 11.9983 3C13.3123 3 14.5473 3.24933 15.7035 3.748C16.8597 4.24667 17.8653 4.92342 18.7205 5.77825C19.5757 6.63308 20.2528 7.63833 20.7518 8.794C21.2506 9.94967 21.5 11.1844 21.5 12.4983C21.5 13.8123 21.2507 15.0473 20.752 16.2035C20.2533 17.3597 19.5766 18.3653 18.7218 19.2205C17.8669 20.0757 16.8617 20.7528 15.706 21.2518C14.5503 21.7506 13.3156 22 12.0017 22ZM12 20.5C14.2333 20.5 16.125 19.725 17.675 18.175C19.225 16.625 20 14.7333 20 12.5C20 10.2667 19.225 8.375 17.675 6.825C16.125 5.275 14.2333 4.5 12 4.5C9.76667 4.5 7.875 5.275 6.325 6.825C4.775 8.375 4 10.2667 4 12.5C4 14.7333 4.775 16.625 6.325 18.175C7.875 19.725 9.76667 20.5 12 20.5Z" fill="white"/>
</g>
</svg>
