<svg width="20" height="19" viewBox="0 0 20 19" fill="none" xmlns="http://www.w3.org/2000/svg">
<g id="svgexport-15 1" clip-path="url(#clip0_2347_1155)">
<path id="Vector" d="M18.4177 0.431824L18.515 0.436176C18.7674 0.46116 19.0015 0.578882 19.172 0.766526C19.3425 0.95417 19.4372 1.19838 19.4377 1.45181V15.4705L19.4334 15.5684C19.4082 15.8205 19.2903 16.0543 19.1026 16.2245C18.9148 16.3947 18.6705 16.4892 18.417 16.4898H17.6526V16.9998L17.6475 17.0977C17.6223 17.3496 17.5046 17.5833 17.3169 17.7535C17.1293 17.9237 16.8852 18.0183 16.6318 18.019H15.1015L15.0035 18.0147C14.7512 17.9895 14.5173 17.8717 14.347 17.6841C14.1767 17.4965 14.0821 17.2524 14.0815 16.999V16.4898H5.91871V16.9998L5.91435 17.0977C5.88919 17.3496 5.77142 17.5833 5.58381 17.7535C5.3962 17.9237 5.1521 18.0183 4.89872 18.019H3.36837L3.27037 18.0147C3.01812 17.9895 2.78418 17.8717 2.61385 17.6841C2.44353 17.4965 2.34893 17.2524 2.34839 16.999V16.4898H1.58176L1.48448 16.4854C1.23223 16.4603 0.998291 16.3425 0.827965 16.1548C0.657639 15.9672 0.563045 15.7231 0.5625 15.4698L0.5625 1.45181L0.566856 1.3546C0.591688 1.10227 0.70942 0.868142 0.897215 0.697638C1.08501 0.527134 1.32948 0.432405 1.58321 0.431824L18.4177 0.431824ZM16.8867 16.4898H14.8467V16.9998L14.8518 17.0505C14.8642 17.1077 14.8957 17.159 14.941 17.196C14.9864 17.233 15.043 17.2536 15.1015 17.2544H16.6318L16.6827 17.2493C16.7399 17.2369 16.7912 17.2054 16.8282 17.1601C16.8653 17.1148 16.8859 17.0583 16.8867 16.9998V16.4898ZM5.15354 16.4898H3.11356V16.9998L3.11864 17.0505C3.1311 17.1077 3.16257 17.159 3.20792 17.196C3.25327 17.233 3.30982 17.2536 3.36837 17.2544H4.89872L4.94954 17.2493C5.00675 17.2369 5.05806 17.2054 5.09511 17.1601C5.13215 17.1148 5.15274 17.0583 5.15354 16.9998V16.4898ZM18.417 1.19718H1.58321C1.44528 1.19718 1.32912 1.31325 1.32912 1.45109V15.4705L1.33348 15.5213C1.34594 15.5785 1.37741 15.6297 1.42276 15.6667C1.46811 15.7038 1.52466 15.7243 1.58321 15.7251H18.4185L18.4693 15.7201C18.5264 15.7075 18.5775 15.676 18.6144 15.6306C18.6513 15.5853 18.6718 15.5289 18.6726 15.4705V1.45109L18.6682 1.40031C18.6556 1.34327 18.6241 1.29216 18.5787 1.25528C18.5334 1.21841 18.4769 1.19793 18.4185 1.19718H18.417ZM17.2613 2.09674L17.3302 2.10182C17.4523 2.11877 17.5642 2.17917 17.6453 2.27193C17.7264 2.36469 17.7712 2.48357 17.7716 2.60674V14.3148L17.7665 14.3838C17.7496 14.5058 17.6891 14.6175 17.5963 14.6986C17.5035 14.7796 17.3845 14.8244 17.2613 14.8248H3.36837L3.29941 14.8198C3.17732 14.8028 3.06546 14.7424 2.98437 14.6497C2.90329 14.5569 2.85842 14.438 2.85802 14.3148V11.7743H2.34621L2.27724 11.7685C2.18277 11.7519 2.09799 11.7004 2.03971 11.6242C1.98143 11.5481 1.95391 11.4529 1.96258 11.3574C1.97126 11.2619 2.01551 11.1732 2.08656 11.1088C2.15761 11.0444 2.25028 11.009 2.34621 11.0097H2.85802V6.16654H2.34621L2.27724 6.16074C2.18277 6.14411 2.09799 6.09263 2.03971 6.01649C1.98143 5.94035 1.95391 5.84511 1.96258 5.74964C1.97126 5.65417 2.01551 5.56545 2.08656 5.50104C2.15761 5.43664 2.25028 5.40126 2.34621 5.40191H2.85802V2.60674L2.8631 2.53782C2.88006 2.41582 2.9405 2.30404 3.03333 2.22301C3.12615 2.14198 3.24512 2.09714 3.36837 2.09674H17.2613ZM17.0057 2.8621H3.62319V14.0602H17.0057V2.8621ZM13.1349 6.43351C13.4198 6.42827 13.703 6.47984 13.9678 6.5852C14.2327 6.69056 14.4738 6.8476 14.6772 7.04715C14.8806 7.2467 15.0422 7.48475 15.1525 7.7474C15.2628 8.01005 15.3196 8.29203 15.3196 8.57687C15.3196 8.8617 15.2628 9.14368 15.1525 9.40633C15.0422 9.66898 14.8806 9.90703 14.6772 10.1066C14.4738 10.3061 14.2327 10.4632 13.9678 10.5685C13.703 10.6739 13.4198 10.7255 13.1349 10.7202C12.5659 10.7202 12.0202 10.4944 11.6179 10.0923C11.2156 9.69032 10.9896 9.14505 10.9896 8.5765C10.9896 8.00795 11.2156 7.46269 11.6179 7.06066C12.0202 6.65864 12.5659 6.43351 13.1349 6.43351ZM13.1349 7.291C12.9633 7.28692 12.7927 7.31717 12.633 7.37996C12.4733 7.44275 12.3278 7.53682 12.205 7.65663C12.0822 7.77643 11.9847 7.91956 11.9181 8.0776C11.8515 8.23563 11.8171 8.40538 11.8171 8.57687C11.8171 8.74835 11.8515 8.9181 11.9181 9.07613C11.9847 9.23417 12.0822 9.3773 12.205 9.4971C12.3278 9.61691 12.4733 9.71097 12.633 9.77377C12.7927 9.83656 12.9633 9.86681 13.1349 9.86273C13.4708 9.85476 13.7904 9.71578 14.0252 9.4755C14.26 9.23523 14.3914 8.91271 14.3914 8.57687C14.3914 8.24102 14.26 7.9185 14.0252 7.67823C13.7904 7.43795 13.4708 7.29897 13.1349 7.291Z" fill="currentColor"/>
</g>
<defs>
<clipPath id="clip0_2347_1155">
<rect width="19" height="18.1364" fill="currentColor" transform="translate(0.5 0.431824)"/>
</clipPath>
</defs>
</svg>
