<svg width="142" height="39" viewBox="0 0 142 39" fill="none" xmlns="http://www.w3.org/2000/svg">
<g id="Layer_1" clip-path="url(#clip0_2087_2208)">
<g id="Group">
<path id="Vector" d="M48.5403 24.7645V14.2831H53.8119C54.3412 14.2831 54.8178 14.3795 55.2399 14.5741C55.6619 14.7669 55.9966 15.0471 56.2403 15.4145C56.4841 15.782 56.6078 16.224 56.6078 16.7443C56.6078 17.2645 56.5205 17.6629 56.3477 18.0049C56.1748 18.3468 55.9529 18.6179 55.6837 18.8216C55.4145 19.0253 55.1253 19.1782 54.8197 19.28V19.3564C55.0434 19.4074 55.2726 19.4856 55.5073 19.5929C55.7419 19.7002 55.9602 19.8476 56.1639 20.0367C56.3677 20.2259 56.5332 20.4569 56.6605 20.7316C56.7879 21.0063 56.8515 21.3374 56.8515 21.7248C56.8515 22.3251 56.7115 22.8526 56.4313 23.3056C56.1512 23.7585 55.7819 24.1151 55.3235 24.3752C54.8651 24.6353 54.3503 24.7645 53.781 24.7645H48.5403ZM50.9378 18.4996H53.0461C53.2898 18.4996 53.4972 18.4414 53.6646 18.3232C53.8319 18.2068 53.9592 18.0485 54.0466 17.8502C54.132 17.652 54.1757 17.441 54.1757 17.2154C54.1757 16.8388 54.0811 16.5605 53.8938 16.3823C53.7046 16.204 53.4481 16.1149 53.1225 16.1149H50.9378V18.4978V18.4996ZM50.9378 22.869H53.1225C53.3771 22.869 53.5954 22.8108 53.7792 22.6926C53.9629 22.5761 54.1084 22.4142 54.2139 22.2105C54.3212 22.0068 54.374 21.7776 54.374 21.5229C54.374 21.2682 54.3176 21.039 54.2066 20.8662C54.0938 20.6934 53.9447 20.5606 53.7555 20.4697C53.5663 20.3787 53.3608 20.3314 53.137 20.3314H50.936V22.8672L50.9378 22.869Z" fill="#0033AD"/>
<path id="Vector_2" d="M60.8861 24.9172C60.0912 24.9172 59.4673 24.6953 59.0143 24.2533C58.5614 23.8094 58.334 23.1764 58.334 22.3505V16.957H60.7333V21.8466C60.7333 22.285 60.8279 22.6125 61.0153 22.8326C61.2044 23.0527 61.4864 23.1618 61.8629 23.1618C62.1067 23.1618 62.3286 23.1036 62.5269 22.9854C62.7252 22.869 62.8834 22.7052 62.9999 22.496C63.1163 22.2869 63.1763 22.0613 63.1763 21.8157V16.957H65.5756V22.8398C65.5756 23.0327 65.6229 23.1727 65.7212 23.26C65.8176 23.3474 65.9213 23.3892 66.034 23.3892C66.1359 23.3892 66.2378 23.371 66.3396 23.3364C66.4415 23.3001 66.5379 23.2619 66.6307 23.2218V24.5825C66.4979 24.6844 66.3196 24.7662 66.0959 24.8263C65.8721 24.8881 65.592 24.9172 65.2555 24.9172C64.8589 24.9172 64.5315 24.8645 64.2768 24.7571C64.0222 24.6498 63.8239 24.5006 63.6802 24.306C63.5365 24.1132 63.431 23.8931 63.36 23.6493C63.1054 24.0459 62.7597 24.3569 62.3213 24.5807C61.883 24.8044 61.4045 24.9172 60.8843 24.9172H60.8861Z" fill="#0033AD"/>
<path id="Vector_3" d="M67.9751 15.5655V13.7628H70.4199V15.5655H67.9751ZM68.006 24.7644V16.9571H70.4054V24.7644H68.006Z" fill="#0033AD"/>
<path id="Vector_4" d="M72.5137 24.7644V13.7628H74.913V24.7644H72.5137Z" fill="#0033AD"/>
<path id="Vector_5" d="M79.6498 24.9173C79.0186 24.9173 78.4656 24.7717 77.9926 24.4825C77.5197 24.1915 77.1504 23.7494 76.8848 23.1528C76.6193 22.5561 76.4883 21.8049 76.4883 20.899V20.7316C76.4883 19.8548 76.6302 19.1272 76.9158 18.5469C77.2013 17.9667 77.5797 17.5301 78.0545 17.2409C78.5274 16.9498 79.0404 16.8061 79.5898 16.8061C80.1391 16.8061 80.5775 16.9062 80.934 17.1044C81.2906 17.3027 81.5598 17.5501 81.7435 17.8448V13.7646H84.1429V24.7663H82.2474L82.0036 23.7585C81.769 24.075 81.4616 24.3461 81.0796 24.5753C80.6976 24.8045 80.221 24.9191 79.6516 24.9191L79.6498 24.9173ZM80.3829 23.3893C80.6375 23.3893 80.8667 23.3256 81.0705 23.1983C81.2742 23.0709 81.4379 22.8799 81.5598 22.6253C81.6817 22.3706 81.7435 22.0541 81.7435 21.6775V20.0276C81.7435 19.6711 81.6817 19.371 81.5598 19.1254C81.4379 18.8798 81.2742 18.6943 81.0705 18.5669C80.8667 18.4396 80.6375 18.3759 80.3829 18.3759C80.0063 18.3759 79.688 18.5215 79.4279 18.8107C79.1677 19.1017 79.0386 19.5056 79.0386 20.0258V21.6612C79.0386 22.0377 79.0968 22.3542 79.215 22.6089C79.3315 22.8635 79.4934 23.0564 79.6971 23.1892C79.9008 23.3219 80.13 23.3874 80.3847 23.3874L80.3829 23.3893Z" fill="#0033AD"/>
<path id="Vector_6" d="M89.5817 24.9173C88.8177 24.9173 88.1428 24.7663 87.5571 24.4662C86.9714 24.166 86.513 23.7276 86.1819 23.1528C85.8508 22.578 85.6853 21.8831 85.6853 21.0663V20.6534C85.6853 19.8276 85.8563 19.1272 86.1965 18.5524C86.5384 17.9776 87.0041 17.541 87.5953 17.2463C88.1865 16.9517 88.8632 16.8025 89.6272 16.8025H89.9182C90.6513 16.8025 91.2825 16.9444 91.8137 17.23C92.343 17.5156 92.7505 17.9158 93.0361 18.4287C93.3217 18.9435 93.4636 19.5365 93.4636 20.2096V21.1719H88.2374C88.2374 21.5993 88.2865 21.9813 88.383 22.3179C88.4794 22.6544 88.6376 22.9163 88.8559 23.1055C89.0742 23.2947 89.3634 23.3875 89.72 23.3875C90.0365 23.3875 90.3039 23.3256 90.5222 23.2037C90.7404 23.0819 90.9114 22.9054 91.0333 22.6762C91.1552 22.447 91.217 22.1687 91.217 21.8431H93.4472C93.4472 22.4343 93.2926 22.9618 92.9815 23.4238C92.6705 23.8877 92.2412 24.2515 91.69 24.5171C91.1406 24.7827 90.4985 24.9136 89.7654 24.9136H89.5817V24.9173ZM88.2374 20.0113H91.0952C91.0952 19.431 90.9678 19.0054 90.7132 18.7361C90.4585 18.4669 90.122 18.3305 89.7054 18.3305C89.2888 18.3305 88.9432 18.4742 88.674 18.758C88.4048 19.0436 88.2593 19.4601 88.2392 20.0113H88.2374Z" fill="#0033AD"/>
<path id="Vector_7" d="M95.0352 24.7645V16.9571H96.8378L97.1125 18.0886C97.1434 18.0486 97.2017 17.9594 97.289 17.8212C97.3763 17.6829 97.5054 17.5356 97.6782 17.3773C97.851 17.2191 98.0657 17.0845 98.3204 16.9717C98.575 16.8589 98.8752 16.8043 99.2226 16.8043C99.7429 16.8043 100.165 16.9007 100.49 17.0954C100.816 17.2882 101.058 17.5665 101.216 17.9285C101.375 18.2905 101.453 18.7198 101.453 19.22C101.453 19.3328 101.447 19.462 101.438 19.6093C101.427 19.7566 101.418 19.8913 101.407 20.0149H99.4209V19.6784C99.4209 19.5056 99.3881 19.3328 99.3208 19.1582C99.2554 18.9854 99.1498 18.8453 99.008 18.738C98.8643 18.6306 98.6714 18.5779 98.4277 18.5779C98.244 18.5779 98.0857 18.6143 97.9547 18.6852C97.8219 18.7562 97.7146 18.8508 97.6346 18.9672C97.5527 19.0836 97.4945 19.2109 97.4581 19.3492C97.4218 19.4874 97.4054 19.6275 97.4054 19.7694V24.7663H95.037L95.0352 24.7645Z" fill="#0033AD"/>
<path id="Vector_8" d="M108.696 24.9172C108.218 24.9172 107.794 24.8554 107.428 24.7335C107.061 24.6116 106.774 24.4006 106.564 24.0987C106.355 23.7985 106.251 23.3983 106.251 22.8999V18.7125H105.396V16.9552H106.328L107.168 14.465H108.651V16.9552H110.47V18.7125H108.651V22.3342C108.651 22.7817 108.742 23.0709 108.925 23.1982C109.109 23.3256 109.307 23.3892 109.522 23.3892C109.635 23.3892 109.789 23.3656 109.988 23.3201C110.186 23.2746 110.346 23.2255 110.47 23.1746V24.6116C110.326 24.6735 110.146 24.7281 109.928 24.779C109.708 24.8299 109.489 24.8663 109.271 24.8863C109.051 24.9063 108.862 24.9172 108.698 24.9172H108.696Z" fill="#0033AD"/>
<path id="Vector_9" d="M115.434 24.9173C114.701 24.9173 114.044 24.7554 113.462 24.4279C112.882 24.1023 112.425 23.6458 112.094 23.06C111.763 22.4743 111.598 21.7885 111.598 21.0045V20.7134C111.598 19.9185 111.763 19.2291 112.094 18.6434C112.425 18.0576 112.882 17.6047 113.462 17.2827C114.042 16.9626 114.699 16.8007 115.434 16.8007H115.801C116.535 16.8007 117.191 16.9607 117.773 17.2827C118.354 17.6029 118.81 18.0576 119.141 18.6434C119.472 19.2291 119.638 19.9185 119.638 20.7134V21.0045C119.638 21.7885 119.472 22.4761 119.141 23.0673C118.81 23.6585 118.354 24.1133 117.773 24.4352C117.193 24.7554 116.536 24.9173 115.801 24.9173H115.434ZM115.618 23.3893C115.892 23.3893 116.14 23.3238 116.358 23.191C116.576 23.0582 116.753 22.8672 116.886 22.618C117.018 22.3688 117.084 22.0759 117.084 21.7394V19.9822C117.084 19.6366 117.018 19.3401 116.886 19.0963C116.753 18.8526 116.578 18.6634 116.358 18.5306C116.138 18.3978 115.892 18.3323 115.618 18.3323C115.343 18.3323 115.096 18.3996 114.877 18.5306C114.657 18.6634 114.483 18.8507 114.35 19.0963C114.217 19.3401 114.152 19.6366 114.152 19.9822V21.7394C114.152 22.0759 114.217 22.3688 114.35 22.618C114.483 22.8672 114.657 23.0582 114.877 23.191C115.096 23.3238 115.343 23.3893 115.618 23.3893Z" fill="#0033AD"/>
<path id="Vector_10" d="M124.664 24.9173C123.931 24.9173 123.274 24.7554 122.692 24.4279C122.112 24.1023 121.655 23.6458 121.324 23.06C120.993 22.4743 120.828 21.7885 120.828 21.0045V20.7134C120.828 19.9185 120.993 19.2291 121.324 18.6434C121.655 18.0576 122.112 17.6047 122.692 17.2827C123.272 16.9626 123.929 16.8007 124.664 16.8007H125.031C125.765 16.8007 126.421 16.9607 127.003 17.2827C127.584 17.6029 128.04 18.0576 128.371 18.6434C128.702 19.2291 128.868 19.9185 128.868 20.7134V21.0045C128.868 21.7885 128.702 22.4761 128.371 23.0673C128.04 23.6585 127.584 24.1133 127.003 24.4352C126.423 24.7554 125.766 24.9173 125.031 24.9173H124.664ZM124.846 23.3893C125.121 23.3893 125.368 23.3238 125.586 23.191C125.805 23.0582 125.981 22.8672 126.114 22.618C126.247 22.3688 126.312 22.0759 126.312 21.7394V19.9822C126.312 19.6366 126.247 19.3401 126.114 19.0963C125.981 18.8526 125.806 18.6634 125.586 18.5306C125.366 18.3978 125.121 18.3323 124.846 18.3323C124.571 18.3323 124.324 18.3996 124.106 18.5306C123.885 18.6634 123.711 18.8507 123.578 19.0963C123.445 19.3401 123.38 19.6366 123.38 19.9822V21.7394C123.38 22.0759 123.445 22.3688 123.578 22.618C123.711 22.8672 123.885 23.0582 124.106 23.191C124.324 23.3238 124.571 23.3893 124.846 23.3893Z" fill="#0033AD"/>
<path id="Vector_11" d="M130.408 24.7644V13.7628H132.808V24.7644H130.408Z" fill="#0033AD"/>
<path id="Vector_12" d="M137.59 24.9173C137.121 24.9173 136.688 24.8609 136.291 24.7499C135.895 24.6371 135.546 24.4771 135.246 24.2679C134.945 24.0587 134.711 23.8095 134.543 23.5184C134.376 23.2274 134.291 22.9054 134.291 22.5489V22.4106C134.291 22.3706 134.296 22.3197 134.305 22.2578H136.306C136.295 22.2778 136.291 22.2978 136.291 22.3197V22.3815C136.291 22.6253 136.373 22.8217 136.535 22.9691C136.697 23.1164 136.906 23.2237 137.161 23.2892C137.416 23.3565 137.681 23.3893 137.956 23.3893C138.16 23.3893 138.382 23.3638 138.62 23.3129C138.86 23.2619 139.066 23.1801 139.238 23.0691C139.411 22.9563 139.498 22.8035 139.498 22.6107C139.498 22.3961 139.409 22.2342 139.231 22.1214C139.053 22.0086 138.816 21.9231 138.52 21.8613C138.225 21.7994 137.901 21.7412 137.55 21.6848C137.199 21.6284 136.844 21.5575 136.488 21.4702C136.131 21.3829 135.806 21.2555 135.509 21.0882C135.215 20.9208 134.976 20.6934 134.798 20.4079C134.62 20.1223 134.531 19.7512 134.531 19.2928C134.531 18.8762 134.625 18.5088 134.813 18.1922C135.002 17.8757 135.26 17.6174 135.591 17.4137C135.922 17.21 136.291 17.0572 136.699 16.9553C137.106 16.8534 137.525 16.8025 137.952 16.8025H138.303C138.691 16.8025 139.073 16.8516 139.449 16.948C139.826 17.0444 140.168 17.1845 140.473 17.3682C140.779 17.5519 141.023 17.7739 141.207 18.0322C141.39 18.2905 141.481 18.5797 141.481 18.8962C141.481 18.9581 141.479 19.0217 141.474 19.0872C141.469 19.1545 141.467 19.2073 141.467 19.2473H139.435V19.1254C139.435 19.0236 139.404 18.9217 139.344 18.8198C139.282 18.718 139.191 18.6288 139.069 18.5524C138.947 18.476 138.802 18.4142 138.634 18.3687C138.467 18.3232 138.271 18.2996 138.047 18.2996C137.863 18.2996 137.685 18.3178 137.512 18.3523C137.339 18.3887 137.188 18.436 137.061 18.4978C136.934 18.5597 136.834 18.6325 136.763 18.7198C136.692 18.8071 136.655 18.8999 136.655 19.0017C136.655 19.2055 136.744 19.3583 136.923 19.4601C137.101 19.562 137.341 19.642 137.641 19.6966C137.941 19.753 138.271 19.8039 138.627 19.8494C138.984 19.8949 139.34 19.9622 139.697 20.0477C140.053 20.135 140.379 20.2623 140.675 20.4297C140.97 20.597 141.21 20.8262 141.394 21.1173C141.578 21.4083 141.669 21.7867 141.669 22.256C141.669 22.7562 141.572 23.1746 141.378 23.5166C141.185 23.8586 140.921 24.1296 140.59 24.3334C140.259 24.5371 139.884 24.6844 139.468 24.7772C139.049 24.8682 138.616 24.9155 138.169 24.9155H137.588L137.59 24.9173Z" fill="#0033AD"/>
</g>
<g id="Layer 2">
<g id="Layer 1-2">
<path id="Vector_13" d="M11.5987 19.2037C11.515 20.7299 12.6811 22.0359 14.2072 22.1269H14.3673C15.8971 22.1269 17.1359 20.8845 17.1359 19.3547C17.1359 17.8248 15.8935 16.5861 14.3637 16.5861C12.8939 16.5861 11.6806 17.7357 11.6005 19.2037H11.5987Z" fill="#0033AD"/>
<path id="Vector_14" d="M1.27385 18.4905C0.780888 18.4632 0.358868 18.8398 0.329763 19.3346C0.302477 19.8275 0.679021 20.2496 1.1738 20.2787C1.66677 20.3059 2.08879 19.9294 2.11789 19.4364C2.147 18.9435 1.77045 18.5215 1.27749 18.4923C1.27749 18.4923 1.27567 18.4923 1.27385 18.4923V18.4905Z" fill="#0033AD"/>
<path id="Vector_15" d="M11.4225 3.12864C11.8627 2.9049 12.0373 2.36646 11.8135 1.92443C11.5898 1.48422 11.0514 1.30959 10.6093 1.53333C10.1709 1.75707 9.9945 2.29187 10.2146 2.73209C10.4365 3.17412 10.9768 3.35238 11.4188 3.13046L11.4225 3.12864Z" fill="#0033AD"/>
<path id="Vector_16" d="M14.2328 8.02731C14.9149 7.68351 15.1896 6.8522 14.8458 6.17006C14.502 5.48791 13.6707 5.21323 12.9885 5.55704C12.3064 5.90084 12.0317 6.73214 12.3755 7.41429C12.7193 8.09643 13.5506 8.37111 14.2328 8.02731Z" fill="#0033AD"/>
<path id="Vector_17" d="M4.77906 11.3963C5.30476 11.7419 6.01237 11.5945 6.35618 11.067C6.7018 10.5413 6.55445 9.83369 6.02693 9.48989C5.50122 9.14427 4.79361 9.29162 4.44981 9.81914C4.10601 10.3448 4.25335 11.0506 4.77906 11.3963Z" fill="#0033AD"/>
<path id="Vector_18" d="M6.46373 17.9958C5.69973 17.9522 5.04669 18.5361 5.00303 19.2983C4.95937 20.0605 5.54329 20.7153 6.30547 20.759C7.06947 20.8026 7.72251 20.2187 7.76617 19.4565C7.80983 18.6943 7.22591 18.0413 6.46373 17.9976V17.9958Z" fill="#0033AD"/>
<path id="Vector_19" d="M4.93572 27.2875C4.37363 27.5713 4.14807 28.2552 4.43002 28.8173C4.7138 29.3794 5.39776 29.605 5.95985 29.323C6.52193 29.0392 6.7475 28.3553 6.46554 27.7932C6.18359 27.2311 5.49963 27.0055 4.93936 27.2857C4.93936 27.2857 4.93754 27.2857 4.93572 27.2857V27.2875Z" fill="#0033AD"/>
<path id="Vector_20" d="M10.3091 15.1325C11.0604 15.6255 12.07 15.4163 12.5629 14.6632C13.0559 13.9119 12.8467 12.9024 12.0936 12.4094C11.3423 11.9164 10.3328 12.1256 9.83979 12.8769C9.34683 13.6282 9.55602 14.6359 10.3055 15.1289C10.3055 15.1289 10.3055 15.1289 10.3073 15.1289L10.3091 15.1325Z" fill="#0033AD"/>
<path id="Vector_21" d="M27.3591 7.91822C27.9976 8.33842 28.8562 8.16015 29.2764 7.51985C29.6966 6.88136 29.5183 6.02277 28.878 5.60256C28.2395 5.18236 27.3809 5.36063 26.9607 6.00094C26.5424 6.63942 26.7188 7.4962 27.3573 7.9164L27.3591 7.91822Z" fill="#0033AD"/>
<path id="Vector_22" d="M30.1968 3.03403C30.6098 3.30506 31.1646 3.18864 31.4356 2.77572C31.7067 2.36279 31.5902 1.80798 31.1773 1.53694C30.7644 1.26591 30.2114 1.38233 29.9404 1.79343C29.6693 2.20636 29.7839 2.76117 30.1968 3.03221V3.03403Z" fill="#0033AD"/>
<path id="Vector_23" d="M27.5754 16.5605C26.0492 16.4732 24.7395 17.641 24.654 19.1672C24.5667 20.6934 25.7345 22.0031 27.2607 22.0886H27.419C28.9488 22.0886 30.1876 20.848 30.1876 19.32C30.1876 17.852 29.0416 16.6387 27.5736 16.5551V16.5587L27.5754 16.5605Z" fill="#0033AD"/>
<path id="Vector_24" d="M15.1423 14.9416C15.6116 15.8766 16.5703 16.466 17.6162 16.4623C19.146 16.4623 20.3848 15.2217 20.3848 13.6919C20.3848 13.259 20.2829 12.8315 20.0883 12.4459C19.4007 11.0797 17.7344 10.5304 16.3683 11.2198C15.0022 11.9074 14.4529 13.5737 15.1423 14.9398V14.9434V14.9416Z" fill="#0033AD"/>
<path id="Vector_25" d="M36.8472 11.3944C37.4074 11.1088 37.6312 10.423 37.3456 9.86274C37.06 9.30247 36.3742 9.07873 35.8139 9.36432C35.2555 9.64809 35.0317 10.3302 35.3119 10.8905C35.5957 11.4526 36.2796 11.68 36.8435 11.3962C36.8435 11.3962 36.8453 11.3962 36.8472 11.3944Z" fill="#0033AD"/>
<path id="Vector_26" d="M29.8294 12.2748C29.0272 12.6804 28.7052 13.6591 29.109 14.4613C29.5147 15.2635 30.4933 15.5855 31.2955 15.1816C32.0977 14.7778 32.4197 13.7992 32.0159 12.997C31.6102 12.1948 30.6316 11.871 29.8294 12.2748Z" fill="#0033AD"/>
<path id="Vector_27" d="M20.7868 2.6175C21.4144 2.65206 21.9528 2.17183 21.9874 1.54426C22.0219 0.916687 21.5417 0.378248 20.9141 0.343686C20.2884 0.309124 19.7518 0.785715 19.7136 1.41329C19.6754 2.04086 20.152 2.58112 20.7795 2.61932C20.7814 2.61932 20.785 2.61932 20.7868 2.61932V2.6175Z" fill="#0033AD"/>
<path id="Vector_28" d="M20.774 9.78634C21.6708 9.83546 22.4385 9.14786 22.4876 8.25106C22.5367 7.35427 21.8491 6.58663 20.9523 6.53752C20.0555 6.4884 19.2897 7.17418 19.2387 8.07098C19.1878 8.96777 19.8736 9.73723 20.7704 9.78816C20.7704 9.78816 20.7722 9.78816 20.774 9.78816V9.78634Z" fill="#0033AD"/>
<path id="Vector_29" d="M11.9535 26.4053C12.7557 26.0014 13.0795 25.0228 12.6757 24.2206C12.2718 23.4184 11.2932 23.0946 10.491 23.4984C9.68877 23.9023 9.36498 24.8809 9.76881 25.6831C10.1726 26.4853 11.1513 26.8091 11.9553 26.4053H11.9535Z" fill="#0033AD"/>
<path id="Vector_30" d="M21.8238 12.162C20.987 13.4408 21.3454 15.1544 22.6242 15.9911C23.903 16.8279 25.6165 16.4695 26.4533 15.1908C27.29 13.912 26.9317 12.1984 25.6529 11.3616C25.2036 11.067 24.6797 10.9105 24.1431 10.9105C23.2081 10.9105 22.3368 11.3798 21.8256 12.162H21.8238Z" fill="#0033AD"/>
<path id="Vector_31" d="M26.6405 23.7404C25.9529 22.3743 24.2867 21.8231 22.9206 22.5125C21.5545 23.2001 21.0033 24.8664 21.6927 26.2325C22.3803 27.5986 24.0466 28.1498 25.4127 27.4604C25.4127 27.4604 25.4127 27.4604 25.4145 27.4604C26.777 26.7837 27.3318 25.1301 26.6533 23.7695C26.6496 23.7604 26.6442 23.7513 26.6405 23.7422V23.7404Z" fill="#0033AD"/>
<path id="Vector_32" d="M31.4738 23.5475C30.7225 23.0545 29.7129 23.2637 29.22 24.0168C28.727 24.7681 28.9362 25.7777 29.6893 26.2706C30.4406 26.7636 31.4501 26.5544 31.9431 25.8031C32.4361 25.0519 32.2269 24.0423 31.4756 23.5493L31.4738 23.5475Z" fill="#0033AD"/>
<path id="Vector_33" d="M36.7798 19.3873C36.8235 18.6233 36.2396 17.9703 35.4774 17.9266C34.7134 17.883 34.0604 18.4669 34.0167 19.2291C33.973 19.9931 34.557 20.6461 35.3191 20.6898C36.0813 20.7334 36.7344 20.1495 36.778 19.3873H36.7798Z" fill="#0033AD"/>
<path id="Vector_34" d="M40.609 18.4032C40.116 18.376 39.694 18.7525 39.6649 19.2473C39.6358 19.7421 40.0142 20.1623 40.5089 20.1914C41.0019 20.2187 41.4239 19.8421 41.453 19.3492C41.4803 18.8562 41.1038 18.4324 40.609 18.4051V18.4032Z" fill="#0033AD"/>
<path id="Vector_35" d="M37.0037 27.2821C36.478 26.9383 35.7704 27.0856 35.4266 27.6113C35.0828 28.137 35.2302 28.8446 35.7559 29.1884C36.2816 29.5323 36.9874 29.3849 37.333 28.8592C37.6786 28.3335 37.5313 27.6259 37.0056 27.2821H37.0037Z" fill="#0033AD"/>
<path id="Vector_36" d="M11.5861 35.6461C11.1732 35.375 10.6184 35.4896 10.3473 35.9025C10.0763 36.3155 10.1909 36.8703 10.6038 37.1413C11.0168 37.4124 11.5716 37.2978 11.8426 36.8848C12.1136 36.4719 11.999 35.9171 11.5861 35.6461Z" fill="#0033AD"/>
<path id="Vector_37" d="M30.3586 35.5514C29.9184 35.7751 29.7438 36.3136 29.9675 36.7556C30.1913 37.1958 30.7297 37.3704 31.1717 37.1467C31.6101 36.923 31.7866 36.3882 31.5665 35.9479C31.3446 35.5059 30.8079 35.3277 30.3659 35.5478C30.3641 35.5478 30.3623 35.5496 30.3604 35.5514H30.3586Z" fill="#0033AD"/>
<path id="Vector_38" d="M19.9592 26.518C20.7978 25.2392 20.4395 23.522 19.1607 22.6834C17.8819 21.8448 16.1647 22.2032 15.3261 23.482C14.4875 24.7608 14.8459 26.478 16.1247 27.3165C16.5758 27.6112 17.1015 27.7695 17.6399 27.7695C18.5749 27.7731 19.4481 27.302 19.9574 26.518H19.9592Z" fill="#0033AD"/>
<path id="Vector_39" d="M14.4239 30.7619C13.7854 30.3417 12.9268 30.5199 12.5066 31.1602C12.0864 31.7987 12.2647 32.6573 12.905 33.0775C13.5453 33.4977 14.4021 33.3195 14.8223 32.6791C15.2407 32.0407 15.0624 31.1821 14.4239 30.7637V30.7619Z" fill="#0033AD"/>
<path id="Vector_40" d="M20.8777 36.0626C20.2501 36.0262 19.7117 36.5065 19.6753 37.1358C19.6389 37.7634 20.1191 38.3019 20.7485 38.3382C21.3761 38.3746 21.9127 37.8962 21.9509 37.2686C21.9891 36.6411 21.5107 36.1008 20.8831 36.0626C20.8831 36.0626 20.8813 36.0626 20.8795 36.0626H20.8777Z" fill="#0033AD"/>
<path id="Vector_41" d="M20.8906 28.8937C19.9938 28.8446 19.2262 29.5322 19.177 30.429C19.1279 31.3258 19.8155 32.0934 20.7123 32.1425C21.6073 32.1917 22.3749 31.5077 22.4259 30.6109C22.4768 29.7123 21.791 28.9428 20.8924 28.8919C20.8924 28.8919 20.8924 28.8919 20.8906 28.8919V28.8937Z" fill="#0033AD"/>
<path id="Vector_42" d="M27.5501 30.6509C26.8679 30.9965 26.5969 31.8296 26.9443 32.5118C27.2899 33.1939 28.1231 33.465 28.8052 33.1175C29.4837 32.7719 29.7566 31.9442 29.4146 31.2639C29.0726 30.5799 28.2395 30.3053 27.5573 30.6472C27.5555 30.6472 27.5537 30.6491 27.5501 30.6509Z" fill="#0033AD"/>
</g>
</g>
</g>
<defs>
<clipPath id="clip0_2087_2208">
<rect width="141.34" height="38" fill="white" transform="translate(0.329834 0.340088)"/>
</clipPath>
</defs>
</svg>
