<svg width="132" height="37" viewBox="0 0 132 37" fill="none" xmlns="http://www.w3.org/2000/svg">
<g id="Layer_1" clip-path="url(#clip0_2080_11806)">
<path id="Vector" d="M47.9732 19.3245C48.5357 18.2865 49.3861 17.4294 50.4174 16.8535C51.462 16.2642 52.6473 15.9696 53.9665 15.9696C55.587 15.9696 56.9732 16.3982 58.1317 17.2553C59.2834 18.1124 60.0602 19.2776 60.4486 20.7575H56.7924C56.5178 20.1883 56.1361 19.7531 55.6339 19.4517C55.1317 19.1504 54.5692 19.0031 53.933 19.0031C52.9084 19.0031 52.0781 19.358 51.4419 20.0745C50.8058 20.791 50.491 21.7419 50.491 22.9339C50.491 24.1258 50.8058 25.0834 51.4419 25.7932C52.0781 26.5098 52.9084 26.8647 53.933 26.8647C54.5692 26.8647 55.1384 26.7174 55.6339 26.416C56.1361 26.1147 56.5178 25.6861 56.7924 25.1102H60.4486C60.0602 26.5901 59.2901 27.7553 58.1317 28.6057C56.9799 29.4562 55.587 29.8781 53.9665 29.8781C52.6406 29.8781 51.462 29.5834 50.4174 28.9941C49.3861 28.4182 48.5424 27.5678 47.9732 26.5365C47.3906 25.4852 47.0959 24.2865 47.0959 22.9339C47.0959 21.5879 47.3906 20.3825 47.9732 19.3245ZM62.4576 21.4004C62.8794 20.5566 63.4553 19.9071 64.1785 19.4584C64.9017 19.0031 65.712 18.7754 66.6093 18.7754C67.3727 18.7754 68.0424 18.9294 68.625 19.2441C69.2009 19.5589 69.6495 19.9674 69.9576 20.4696V18.9294H73.2857V29.7843H69.9576V28.2441C69.6361 28.7531 69.1808 29.1615 68.6049 29.4696C68.029 29.7776 67.3526 29.9383 66.5892 29.9383C65.7321 29.945 64.8951 29.704 64.1785 29.2486C63.4486 28.7865 62.8794 28.1303 62.4576 27.2799C62.0357 26.4294 61.8281 25.445 61.8281 24.3334C61.8281 23.2218 62.0357 22.2374 62.4576 21.3937M69.2678 22.3915C68.8058 21.9093 68.2433 21.6682 67.587 21.6682C66.9308 21.6682 66.3616 21.9026 65.9062 22.3781C65.4442 22.8535 65.2165 23.5031 65.2165 24.3334C65.2165 25.1638 65.4442 25.82 65.9062 26.3089C66.3683 26.7977 66.9308 27.0388 67.587 27.0388C68.25 27.0388 68.8125 26.7977 69.2678 26.3156C69.7299 25.8334 69.9576 25.1839 69.9576 24.3468C69.9576 23.5165 69.7299 22.8602 69.2678 22.3781M81.75 26.9651V29.7843H80.0558C78.8504 29.7843 77.9062 29.4897 77.2366 28.9004C76.5602 28.3111 76.2254 27.3468 76.2254 26.0142V21.695H74.8995V18.9294H76.2254V16.2843H79.5535V18.9294H81.7366V21.695H79.5535V26.0544C79.5535 26.3758 79.6339 26.6102 79.7879 26.7575C79.9419 26.8982 80.2031 26.9718 80.5647 26.9718H81.75V26.9651ZM83.5714 21.4004C83.9933 20.5566 84.5692 19.9071 85.2924 19.4584C86.0156 19.0031 86.8259 18.7754 87.7232 18.7754C88.4866 18.7754 89.1629 18.9294 89.7388 19.2441C90.3147 19.5589 90.7634 19.9674 91.0714 20.4696V18.9294H94.3995V29.7843H91.0714V28.2441C90.75 28.7531 90.2946 29.1615 89.7187 29.4696C89.1428 29.7776 88.4732 29.9383 87.7031 29.9383C86.8459 29.945 86.0089 29.704 85.2924 29.2486C84.5692 28.7865 83.9933 28.1303 83.5714 27.2799C83.1495 26.4294 82.9352 25.445 82.9352 24.3334C82.9352 23.2218 83.1495 22.2374 83.5714 21.3937M90.3817 22.3915C89.9196 21.9093 89.3571 21.6682 88.7008 21.6682C88.0446 21.6682 87.4754 21.9026 87.0201 22.3781C86.5647 22.8535 86.3303 23.5031 86.3303 24.3334C86.3303 25.1638 86.558 25.82 87.0201 26.3089C87.4821 26.7977 88.0379 27.0388 88.7008 27.0388C89.3638 27.0388 89.9196 26.7977 90.3817 26.3156C90.8437 25.8334 91.0714 25.1839 91.0714 24.3468C91.0714 23.5165 90.8437 22.8602 90.3817 22.3781M100.138 15.387V29.7843H96.8102V15.387H100.138ZM113.638 18.9294L106.828 34.9406H103.245L105.737 29.416L101.324 18.9294H105.04L107.551 25.7196L110.042 18.9294H113.638ZM116.732 29.4562C115.995 29.1348 115.406 28.6861 114.978 28.1236C114.556 27.5745 114.308 26.9182 114.254 26.2285H117.542C117.583 26.6035 117.757 26.9115 118.065 27.1459C118.379 27.3803 118.761 27.4941 119.216 27.4941C119.632 27.4941 119.953 27.4138 120.181 27.2531C120.408 27.0924 120.522 26.8781 120.522 26.6236C120.522 26.3089 120.362 26.0812 120.033 25.9339C119.705 25.7865 119.183 25.6191 118.46 25.4383C117.683 25.2575 117.033 25.0633 116.511 24.8624C115.989 24.6615 115.533 24.3334 115.172 23.9115C114.797 23.4763 114.609 22.887 114.609 22.1504C114.609 21.5276 114.783 20.9584 115.125 20.4495C115.466 19.9406 115.975 19.5321 116.645 19.2307C117.315 18.9294 118.105 18.7821 119.029 18.7821C120.388 18.7821 121.466 19.1169 122.25 19.7932C123.033 20.4696 123.489 21.3602 123.603 22.4785H120.529C120.475 22.1035 120.308 21.8022 120.033 21.5812C119.752 21.3602 119.391 21.2531 118.935 21.2531C118.547 21.2531 118.245 21.3267 118.038 21.474C117.837 21.6147 117.716 21.8424 117.73 22.0901C117.73 22.3982 117.897 22.6325 118.225 22.7865C118.554 22.9406 119.069 23.1013 119.772 23.2553C120.576 23.4629 121.232 23.6638 121.734 23.8714C122.243 24.0723 122.685 24.3937 123.067 24.8424C123.449 25.291 123.65 25.887 123.663 26.6437C123.663 27.2799 123.482 27.849 123.127 28.3446C122.772 28.8468 122.257 29.2352 121.587 29.5232C120.917 29.8111 120.147 29.9517 119.263 29.9517C118.319 29.9517 117.475 29.791 116.732 29.4629M131.752 26.9651V29.7843H130.058C128.853 29.7843 127.908 29.4897 127.239 28.9004C126.562 28.3111 126.228 27.3468 126.228 26.0142V21.695H124.902V18.9294H126.228V16.2843H129.556V18.9294H131.739V21.695H129.556V26.0544C129.556 26.3758 129.636 26.6102 129.79 26.7575C129.944 26.8982 130.205 26.9718 130.567 26.9718H131.752V26.9651ZM52.7142 6.60128C52.5201 6.96959 52.212 7.26423 51.7834 7.49191C51.3549 7.71959 50.8058 7.83343 50.1361 7.83343H48.6629V11.1281H47.3303V3.012H50.1294C50.7522 3.012 51.2812 3.11914 51.7098 3.33343C52.1384 3.54771 52.4665 3.83566 52.6808 4.20396C52.8951 4.57227 53.0022 4.98075 53.0022 5.42941C53.0022 5.84459 52.9017 6.23298 52.7076 6.59459M51.2678 6.40709C51.5156 6.17941 51.6428 5.85128 51.6428 5.42941C51.6428 4.54548 51.1406 4.09682 50.1361 4.09682H48.6629V6.7486H50.1361C50.6451 6.7486 51.0201 6.63477 51.2678 6.40709ZM56.4107 4.86691C56.7321 4.6861 57.1138 4.59235 57.5625 4.59235V5.97182H57.2276C56.7053 5.97182 56.3102 6.10575 56.0424 6.36691C55.7745 6.62807 55.6406 7.09012 55.6406 7.74637V11.1348H54.308V4.6928H55.6406V5.6303C55.8348 5.30218 56.0959 5.04771 56.4174 4.86691M59.9531 10.82C59.4643 10.5455 59.0625 10.1437 58.7946 9.65485C58.5134 9.15262 58.3727 8.57003 58.3727 7.90709C58.3727 7.25084 58.5134 6.67494 58.808 6.16601C59.0826 5.67048 59.491 5.26869 59.9866 5.00084C60.4821 4.72628 61.0379 4.59235 61.654 4.59235C62.2701 4.59235 62.8259 4.72628 63.3214 5.00084C63.8169 5.26869 64.2254 5.67718 64.5 6.16601C64.7879 6.67494 64.9285 7.25084 64.9285 7.90709C64.9285 8.56334 64.7812 9.13923 64.4866 9.64816C64.1986 10.1437 63.7834 10.5522 63.2745 10.82C62.7589 11.1013 62.1763 11.2419 61.587 11.2352C60.9776 11.2352 60.4285 11.0946 59.9397 10.82M62.558 9.83566C62.8593 9.67494 63.1004 9.42718 63.2879 9.09905C63.4754 8.77093 63.5692 8.37584 63.5692 7.90709C63.5692 7.43834 63.4821 7.04325 63.3013 6.72182C63.1406 6.41378 62.8928 6.15932 62.5915 5.99191C62.2968 5.83119 61.9687 5.74414 61.6339 5.74414C61.2924 5.74414 60.9776 5.8245 60.683 5.99191C60.3817 6.15932 60.1406 6.41378 59.9866 6.72182C59.8125 7.04325 59.7321 7.43834 59.7321 7.90709C59.7321 8.60351 59.9062 9.13253 60.2611 9.51423C60.616 9.88923 61.0647 10.0834 61.6004 10.0834C61.9419 10.0834 62.2634 10.0031 62.5647 9.83566M67.6071 12.387C67.6071 13.0165 67.4464 13.4718 67.1317 13.7598C66.8169 14.041 66.3616 14.1883 65.7589 14.1883H65.0692V13.07H65.5245C65.7991 13.07 65.9866 13.0165 66.1004 12.9093C66.2142 12.8022 66.2678 12.6281 66.2678 12.387V4.6928H67.6004V12.387H67.6071ZM66.3482 3.60128C66.1875 3.44057 66.1004 3.21959 66.1004 2.99191C66.1004 2.75084 66.1808 2.54994 66.3482 2.38253C66.5089 2.22182 66.7165 2.13477 66.9576 2.13477C67.1919 2.13477 67.3928 2.21512 67.5535 2.38253C67.7142 2.54325 67.8013 2.75084 67.8013 2.99191C67.8013 3.23298 67.7209 3.43387 67.5535 3.60128C67.3928 3.762 67.1919 3.84905 66.9576 3.84905C66.7299 3.84905 66.5089 3.76869 66.3482 3.60128ZM75.2343 8.40932H70.3192C70.3593 8.92494 70.5468 9.33342 70.8884 9.64816C71.2299 9.95619 71.6517 10.1169 72.1473 10.1169C72.8638 10.1169 73.366 9.81557 73.6607 9.21959H75.1004C74.9129 9.80218 74.5379 10.3111 74.0424 10.6727C73.5334 11.0477 72.8973 11.2419 72.1473 11.2419C71.5312 11.2419 70.9821 11.1013 70.4933 10.8267C70.0111 10.5522 69.616 10.1504 69.3482 9.66155C69.0736 9.15932 68.933 8.57673 68.933 7.91378C68.933 7.25084 69.0669 6.66825 69.3348 6.16601C69.6026 5.66378 69.9776 5.27539 70.4665 5.00753C70.9553 4.73298 71.5111 4.59905 72.1406 4.59905C72.75 4.59905 73.2857 4.73298 73.7611 4.99414C74.2366 5.2553 74.6049 5.6303 74.8727 6.11244C75.1406 6.59459 75.2678 7.14369 75.2678 7.76646C75.2678 8.00753 75.2544 8.22851 75.2209 8.42271M73.8884 7.33119C73.8817 6.84235 73.7076 6.44727 73.366 6.15262C73.0245 5.85798 72.6026 5.71066 72.0937 5.71066C71.6317 5.71066 71.2433 5.85798 70.9151 6.14593C70.587 6.44057 70.3928 6.83566 70.3326 7.33119H73.8951H73.8884ZM76.5736 6.15932C76.8415 5.65709 77.2098 5.26869 77.6852 5.00084C78.1607 4.72628 78.7031 4.59235 79.3192 4.59235C80.0959 4.59235 80.7388 4.77985 81.2544 5.14816C81.7634 5.51646 82.1116 6.04548 82.2857 6.72851H80.8459C80.7455 6.42718 80.5446 6.16601 80.2834 5.97851C80.029 5.79771 79.7009 5.71066 79.3125 5.71066C78.7701 5.71066 78.3348 5.90485 78.0134 6.28655C77.6919 6.67494 77.5312 7.21066 77.5312 7.90039C77.5312 8.59682 77.6919 9.13253 78.0134 9.52093C78.3348 9.90932 78.7701 10.1035 79.3125 10.1035C80.0826 10.1035 80.5915 9.762 80.8392 9.08566H82.279C82.0915 9.74191 81.7433 10.2575 81.2276 10.6459C80.712 11.0343 80.0759 11.2218 79.3125 11.2218C78.6964 11.2218 78.154 11.0812 77.6785 10.8066C77.2031 10.5321 76.8147 10.1236 76.5669 9.64146C76.2991 9.13923 76.1651 8.55664 76.1651 7.89369C76.1651 7.23075 76.2991 6.64816 76.5669 6.14593M85.1919 5.78432V9.34682C85.1919 9.58789 85.2455 9.762 85.3593 9.86914C85.4732 9.97628 85.6674 10.0232 85.9352 10.0299H86.7522V11.1415H85.7009C85.0982 11.1415 84.6428 11.0008 84.3214 10.7196C84 10.4383 83.8459 9.98298 83.8459 9.35351V5.79102H83.0892V4.70619H83.8459V3.10575H85.1852V4.70619H86.7522V5.79102H85.1852L85.1919 5.78432Z" fill="#123CD3"/>
<path id="Vector_2" d="M18.3617 27.8691C15.9711 26.7709 14.0224 24.5946 13.0313 22.1437H6.21436C8.65186 29.0678 15.2545 34.0231 23.009 34.0231C27.0469 34.0231 30.9711 32.6571 34.1184 30.1258C34.2255 30.0053 34.326 29.8847 34.4331 29.7642C33.6764 29.8647 32.9063 29.9115 32.1228 29.9115C29.5447 29.9115 27.1005 29.3624 24.8907 28.3781C24.1541 28.5388 23.4041 28.6191 22.6474 28.6191C21.7568 28.6191 20.8862 28.6727 20.0626 28.4584" fill="url(#paint0_radial_2080_11806)"/>
<path id="Vector_3" d="M18.3616 27.8691C18.9107 28.1169 19.4732 28.3178 20.0558 28.4651C20.8795 28.6727 21.75 28.6258 22.6406 28.6258C23.4107 28.6258 24.1607 28.5455 24.8839 28.3847C24.6161 28.2642 24.3482 28.137 24.0871 28.0031C21.4018 26.6437 19.1049 24.6281 17.404 22.1437H13.0312C14.0223 24.5946 15.9643 26.7709 18.3616 27.8691Z" fill="url(#paint1_radial_2080_11806)"/>
<path id="Vector_4" d="M34.1183 30.1325C31.634 32.9651 28.3393 34.9606 24.6764 35.8379C16.8081 37.7263 8.91968 34.1571 4.90182 27.5611C3.88396 25.887 3.13396 24.0522 2.6853 22.1437H6.21432C8.65182 29.0611 15.2545 34.0231 23.009 34.0231C27.0469 34.0231 30.971 32.6571 34.1183 30.1258" fill="url(#paint2_linear_2080_11806)"/>
<path id="Vector_5" d="M38.2232 22.1437C37.567 24.9428 36.2679 27.5544 34.4264 29.7642C33.6697 29.8647 32.8996 29.9115 32.1161 29.9115C29.3237 29.9115 26.5782 29.262 24.0871 28.0031C21.4018 26.6437 19.1049 24.6281 17.4041 22.1437H38.2232Z" fill="url(#paint3_linear_2080_11806)"/>
<path id="Vector_6" d="M37.6607 13.7062C35.029 8.21514 29.6518 4.27764 23.3103 3.67496C21.9509 3.4205 20.5648 3.35353 19.1853 3.47407C18.1942 3.56112 17.2099 3.74193 16.259 4.02318C13.1853 4.9138 10.4799 6.76202 8.53798 9.29996C6.54914 11.8848 5.47102 15.0589 5.47771 18.3267V19.666H2.73218V18.3267C2.73218 12.5946 5.4978 7.51202 9.78352 4.29773C12.2746 2.42273 15.2143 1.24416 18.3081 0.869158C19.0313 0.782105 19.7612 0.735229 20.5045 0.735229C28.7009 0.735229 35.5982 6.233 37.654 13.6995" fill="url(#paint4_linear_2080_11806)"/>
<path id="Vector_7" d="M11.0357 16.9874H13.8081C13.942 16.2843 14.1965 15.6146 14.5447 14.9919C15.9442 12.5008 18.8505 11.0678 21.8237 11.6437C24.5826 12.1794 26.6853 14.3088 27.221 16.9606C25.6206 14.8847 23.009 13.8535 20.4241 14.2754C19.567 14.2954 18.7433 14.5901 18.0603 15.1057C17.0491 15.8691 16.4532 17.0678 16.4532 18.3334V19.6727H8.21655V18.3334C8.22325 13.6057 10.9554 9.5075 14.9331 7.49857C16.6674 6.62134 18.5893 6.16598 20.538 6.17268C25.3795 6.17938 29.6183 8.96509 31.6139 13.0767C29.8192 9.99634 26.4777 7.92045 22.654 7.92045C20.6451 7.92045 18.7768 8.48964 17.1898 9.48072C16.1585 9.86241 15.2009 10.4115 14.3639 11.1146C12.5759 12.6013 11.3974 14.6972 11.0625 16.9941" fill="url(#paint5_linear_2080_11806)"/>
<path id="Vector_8" d="M27.3549 18.3334V19.6727H24.6495V18.3334C24.6495 16.0901 22.8147 14.2687 20.5446 14.2754C20.5044 14.2754 20.4643 14.2754 20.4241 14.2754C23.0156 13.8535 25.6205 14.8848 27.2209 16.9607C27.3147 17.416 27.3549 17.8714 27.3549 18.3334Z" fill="url(#paint6_linear_2080_11806)"/>
<path id="Vector_9" d="M38.2834 18.3334V19.6727H30.0803V18.3334C30.0669 13.0968 25.7745 8.87137 20.491 8.87807C19.3593 8.87807 18.241 9.07896 17.1763 9.47405C18.8169 8.4495 20.712 7.91378 22.6406 7.91378C26.4642 7.91378 29.8057 9.98968 31.6004 13.07C32.2031 14.3022 32.5847 15.6281 32.7388 16.9941H35.4843C34.8749 10.204 29.7522 4.887 23.3102 3.68164C29.6517 4.28432 35.0222 8.21512 37.6606 13.7129C38.0758 15.2196 38.2834 16.7799 38.2834 18.3401" fill="url(#paint7_linear_2080_11806)"/>
<g id="Group">
<g id="Group_2">
<path id="Vector_10" d="M34.5803 33.3066C38.9531 33.3066 42.5022 29.7575 42.5022 25.3848C42.5022 21.012 38.9531 17.4629 34.5803 17.4629C30.2076 17.4629 26.6584 21.012 26.6584 25.3848C26.6584 29.7575 30.2076 33.3066 34.5803 33.3066Z" fill="url(#paint8_radial_2080_11806)"/>
<path id="Vector_11" d="M10.3527 20.5432C15.9308 20.5432 20.4576 16.0164 20.4576 10.4383C20.4576 4.86018 15.9308 0.340088 10.3527 0.340088C4.77459 0.340088 0.247803 4.86687 0.247803 10.445C0.247803 16.0231 4.76789 20.5499 10.3527 20.5499" fill="url(#paint9_radial_2080_11806)"/>
</g>
</g>
</g>
<defs>
<radialGradient id="paint0_radial_2080_11806" cx="0" cy="0" r="1" gradientUnits="userSpaceOnUse" gradientTransform="translate(16.9053 24.5632) scale(20.2031 20.2031)">
<stop stop-color="#2A41EA"/>
<stop offset="0.24" stop-color="#2940E5"/>
<stop offset="1" stop-color="#161832"/>
</radialGradient>
<radialGradient id="paint1_radial_2080_11806" cx="0" cy="0" r="1" gradientUnits="userSpaceOnUse" gradientTransform="translate(22.8776 22.4168) scale(11.5647)">
<stop stop-color="#2A41EA"/>
<stop offset="1" stop-color="#161832"/>
</radialGradient>
<linearGradient id="paint2_linear_2080_11806" x1="2.67861" y1="29.2419" x2="34.1183" y2="29.2419" gradientUnits="userSpaceOnUse">
<stop stop-color="#2C4DDF"/>
<stop offset="1" stop-color="#DA67C6"/>
</linearGradient>
<linearGradient id="paint3_linear_2080_11806" x1="21.0603" y1="26.0343" x2="41.0692" y2="26.0343" gradientUnits="userSpaceOnUse">
<stop stop-color="#2C4DDF"/>
<stop offset="1" stop-color="#DA67C6"/>
</linearGradient>
<linearGradient id="paint4_linear_2080_11806" x1="2.73218" y1="10.204" x2="37.6607" y2="10.204" gradientUnits="userSpaceOnUse">
<stop stop-color="#2C4DDF"/>
<stop offset="1" stop-color="#DA67C6"/>
</linearGradient>
<linearGradient id="paint5_linear_2080_11806" x1="9.93753" y1="12.916" x2="33.3349" y2="12.916" gradientUnits="userSpaceOnUse">
<stop stop-color="#283ECD"/>
<stop offset="0.87" stop-color="#DA67C6"/>
</linearGradient>
<linearGradient id="paint6_linear_2080_11806" x1="20.4241" y1="16.9205" x2="27.3549" y2="16.9205" gradientUnits="userSpaceOnUse">
<stop stop-color="#161832"/>
<stop offset="1" stop-color="#2336C2"/>
</linearGradient>
<linearGradient id="paint7_linear_2080_11806" x1="17.1763" y1="11.6705" x2="38.2834" y2="11.6705" gradientUnits="userSpaceOnUse">
<stop stop-color="#161832"/>
<stop offset="1" stop-color="#2336C2"/>
</linearGradient>
<radialGradient id="paint8_radial_2080_11806" cx="0" cy="0" r="1" gradientUnits="userSpaceOnUse" gradientTransform="translate(34.2132 22.6183) scale(6.24777)">
<stop stop-color="white" stop-opacity="0.6"/>
<stop offset="0.99" stop-color="white" stop-opacity="0"/>
</radialGradient>
<radialGradient id="paint9_radial_2080_11806" cx="0" cy="0" r="1" gradientUnits="userSpaceOnUse" gradientTransform="translate(9.27599 9.15687) scale(10.1049)">
<stop stop-color="white" stop-opacity="0.6"/>
<stop offset="0.99" stop-color="white" stop-opacity="0"/>
</radialGradient>
<clipPath id="clip0_2080_11806">
<rect width="131.504" height="36" fill="white" transform="translate(0.247803 0.340088)"/>
</clipPath>
</defs>
</svg>
