<svg width="150" height="31" viewBox="0 0 150 31" fill="none" xmlns="http://www.w3.org/2000/svg">
<g id="Layer_1" clip-path="url(#clip0_2080_11744)">
<g id="Clip path group">
<mask id="mask0_2080_11744" style="mask-type:luminance" maskUnits="userSpaceOnUse" x="0" y="0" width="36" height="31">
<g id="clippath">
<path id="Vector" d="M35.4234 0.340088H0.960938V30.3401H35.4234V0.340088Z" fill="white"/>
</g>
</mask>
<g mask="url(#mask0_2080_11744)">
<g id="Group">
<g id="Group_2">
<path id="Vector_2" d="M9.44529 30.1901L3.28592 19.5214C3.16404 19.3151 3.31404 19.0526 3.55779 19.0526H4.40154C4.51404 19.0526 4.61717 19.1089 4.67342 19.212L10.2234 28.8307C10.2797 28.9245 10.3828 28.9901 10.4953 28.9901H16.4015C16.514 28.9901 16.6172 29.0464 16.6734 29.1495L17.0953 29.8807C17.2172 30.087 17.0672 30.3495 16.8234 30.3495H9.70779C9.59529 30.3495 9.49217 30.2932 9.43592 30.1901H9.44529Z" fill="#242232"/>
<path id="Vector_3" d="M18.4265 30.087L14.864 23.9182C14.7422 23.712 14.8922 23.4495 15.1359 23.4495H15.9797C16.0922 23.4495 16.1953 23.5057 16.2515 23.6088L19.2047 28.7276C19.2609 28.8213 19.364 28.887 19.4765 28.887H21.5953C21.7078 28.887 21.8109 28.9432 21.8672 29.0463L22.289 29.7776C22.4109 29.9838 22.2609 30.2463 22.0172 30.2463H18.689C18.5765 30.2463 18.4734 30.1901 18.4172 30.087H18.4265Z" fill="#242232"/>
<path id="Vector_4" d="M26.6016 30.2369H23.7141C23.6016 30.2369 23.4985 30.1807 23.4422 30.0775L21.9985 27.5744C21.9422 27.4807 21.9422 27.3588 21.9985 27.265L23.4422 24.7619C23.4985 24.6682 23.6016 24.6025 23.7141 24.6025H26.6016C26.7141 24.6025 26.8172 24.6588 26.8735 24.7619L28.3172 27.265C28.3735 27.3588 28.3735 27.4807 28.3172 27.5744L26.8735 30.0775C26.8172 30.1713 26.7141 30.2369 26.6016 30.2369Z" fill="#242232"/>
<path id="Vector_5" d="M35.3767 15.4245L29.2173 26.0932C29.0954 26.2995 28.7954 26.2995 28.6735 26.0932L28.2517 25.362C28.1954 25.2682 28.1954 25.1464 28.2517 25.0526L33.8017 15.4339C33.8579 15.3401 33.8579 15.2182 33.8017 15.1245L30.8485 10.0057C30.7923 9.91199 30.7923 9.79011 30.8485 9.69636L31.2704 8.96511C31.3923 8.75886 31.6923 8.75886 31.8142 8.96511L35.3767 15.1245C35.4329 15.2182 35.4329 15.3401 35.3767 15.4339V15.4245Z" fill="#242232"/>
<path id="Vector_6" d="M30.811 7.69011L27.2485 13.8589C27.1267 14.0651 26.8267 14.0651 26.7048 13.8589L26.2829 13.1276C26.2267 13.0339 26.2267 12.912 26.2829 12.8182L29.236 7.69949C29.2923 7.60574 29.2923 7.48386 29.236 7.39011L28.1767 5.55261C28.1204 5.45886 28.1204 5.33699 28.1767 5.24324L28.5985 4.51199C28.7204 4.30574 29.0204 4.30574 29.1423 4.51199L30.8017 7.39011C30.8579 7.48386 30.8579 7.60574 30.8017 7.69949L30.811 7.69011Z" fill="#242232"/>
<path id="Vector_7" d="M26.8454 0.536939L28.2892 3.04006C28.3454 3.13381 28.3454 3.25569 28.2892 3.34944L26.8454 5.85256C26.7892 5.94631 26.686 6.01194 26.5735 6.01194H23.686C23.5735 6.01194 23.4704 5.95569 23.4142 5.85256L21.9704 3.34944C21.9142 3.25569 21.9142 3.13381 21.9704 3.04006L23.4142 0.536939C23.4704 0.443188 23.5735 0.377563 23.686 0.377563H26.5735C26.686 0.377563 26.7892 0.433813 26.8454 0.536939Z" fill="#242232"/>
<path id="Vector_8" d="M9.62337 0.340088H21.9421C22.1859 0.340088 22.3359 0.602588 22.214 0.808838L21.7921 1.54009C21.7359 1.63384 21.6327 1.69946 21.5202 1.69946H10.4109C10.2984 1.69946 10.1952 1.75571 10.139 1.85884L7.18587 6.97759C7.12962 7.07134 7.02649 7.13696 6.91399 7.13696H6.07024C5.82649 7.13696 5.67649 6.87446 5.79837 6.66821L9.36087 0.499463C9.41712 0.396338 9.52024 0.340088 9.62337 0.340088Z" fill="#242232"/>
<path id="Vector_9" d="M5.21717 8.16821H12.3328C12.5765 8.16821 12.7265 8.43071 12.6047 8.63696L12.1828 9.36821C12.1265 9.46196 12.0234 9.52759 11.9109 9.52759H6.00467C5.89217 9.52759 5.78904 9.58384 5.73279 9.68696L4.67342 11.5245C4.61717 11.6182 4.51404 11.6838 4.40154 11.6838H3.55779C3.31404 11.6838 3.16404 11.4213 3.28592 11.2151L4.94529 8.33696C5.00154 8.24321 5.10467 8.17759 5.21717 8.17759V8.16821Z" fill="#242232"/>
<path id="Vector_10" d="M5.87349 12.6776L7.31723 15.1807C7.37349 15.2744 7.37349 15.3963 7.31723 15.4901L5.87349 17.9932C5.81723 18.0869 5.71411 18.1526 5.60161 18.1526H2.71411C2.60161 18.1526 2.49849 18.0963 2.44224 17.9932L0.998486 15.4901C0.942236 15.3963 0.942236 15.2744 0.998486 15.1807L2.44224 12.6776C2.49849 12.5838 2.60161 12.5182 2.71411 12.5182H5.60161C5.71411 12.5182 5.81723 12.5744 5.87349 12.6776Z" fill="#242232"/>
<path id="Vector_11" d="M9.82026 15.4714L13.814 22.3901C13.8703 22.4839 13.9734 22.5495 14.0859 22.5495H22.0734C22.1859 22.5495 22.289 22.4932 22.3453 22.3901L26.339 15.4714C26.3953 15.3776 26.3953 15.2557 26.339 15.162L22.3453 8.24324C22.289 8.14949 22.1859 8.08386 22.0734 8.08386H14.0859C13.9734 8.08386 13.8703 8.14011 13.814 8.24324L9.82026 15.162C9.76401 15.2557 9.76401 15.3776 9.82026 15.4714ZM14.114 15.0964L16.0171 11.7964C16.0734 11.7026 16.1765 11.637 16.289 11.637H20.0953C20.2078 11.637 20.3109 11.6932 20.3671 11.7964L22.2703 15.0964C22.3265 15.1901 22.3265 15.312 22.2703 15.4057L20.3671 18.7057C20.3109 18.7995 20.2078 18.8651 20.0953 18.8651H16.289C16.1765 18.8651 16.0734 18.8089 16.0171 18.7057L14.114 15.4057C14.0578 15.312 14.0578 15.1901 14.114 15.0964Z" fill="#242232"/>
</g>
</g>
</g>
</g>
<path id="Vector_12" d="M51.2859 15.8182C54.4265 15.8182 56.9203 17.412 57.8203 20.2245H54.5765C53.9296 19.0339 52.7671 18.4151 51.2765 18.4151C48.764 18.4151 47.0109 20.2057 47.0109 22.9995C47.0109 25.7932 48.7828 27.6307 51.3984 27.6307C53.5734 27.6307 54.9609 26.3839 55.3828 24.387H50.5546V22.2307H58.1578V24.687C57.5953 27.5464 55.0359 30.162 51.2953 30.162C47.2078 30.162 44.114 27.2089 44.114 22.9995C44.114 18.7901 47.2078 15.8182 51.2765 15.8182H51.2859Z" fill="#242232"/>
<path id="Vector_13" d="M74.3483 22.9807C74.3483 27.2088 71.1514 30.1807 67.167 30.1807C63.1827 30.1807 59.967 27.1994 59.967 22.9807C59.967 18.7619 63.2108 15.7994 67.167 15.7994C71.1233 15.7994 74.3483 18.7807 74.3483 22.9807ZM62.8639 22.9807C62.8639 25.8401 64.617 27.6682 67.167 27.6682C69.717 27.6682 71.4514 25.8401 71.4514 22.9807C71.4514 20.1213 69.6983 18.3307 67.167 18.3307C64.6358 18.3307 62.8639 20.1213 62.8639 22.9807Z" fill="#242232"/>
<path id="Vector_14" d="M82.6265 27.162L86.4703 15.9963H89.4703L84.3234 30.0401H80.9015L75.7546 15.9963H78.7734L82.6359 27.162H82.6265Z" fill="#242232"/>
<path id="Vector_15" d="M96.436 18.2745V16.0057H106.739V18.2745H102.999V30.0401H100.186V18.2745H96.4454H96.436Z" fill="#242232"/>
<path id="Vector_16" d="M122.902 22.9807C122.902 27.2088 119.705 30.1807 115.72 30.1807C111.736 30.1807 108.52 27.1994 108.52 22.9807C108.52 18.7619 111.764 15.7994 115.72 15.7994C119.677 15.7994 122.902 18.7807 122.902 22.9807ZM111.408 22.9807C111.408 25.8401 113.161 27.6682 115.711 27.6682C118.261 27.6682 119.995 25.8401 119.995 22.9807C119.995 20.1213 118.242 18.3307 115.711 18.3307C113.18 18.3307 111.408 20.1213 111.408 22.9807Z" fill="#242232"/>
<path id="Vector_17" d="M139.092 22.9807C139.092 27.2088 135.895 30.1807 131.911 30.1807C127.927 30.1807 124.711 27.1994 124.711 22.9807C124.711 18.7619 127.955 15.7994 131.911 15.7994C135.867 15.7994 139.092 18.7807 139.092 22.9807ZM127.608 22.9807C127.608 25.8401 129.361 27.6682 131.911 27.6682C134.461 27.6682 136.195 25.8401 136.195 22.9807C136.195 20.1213 134.442 18.3307 131.911 18.3307C129.38 18.3307 127.608 20.1213 127.608 22.9807Z" fill="#242232"/>
<path id="Vector_18" d="M141.595 15.9963H144.408V27.8088H149.039V30.0401H141.595V15.9963Z" fill="#242232"/>
<path id="Vector_19" d="M105.661 2.84326C106.299 2.84326 106.87 2.99326 107.386 3.29326C107.911 3.59326 108.314 4.01514 108.605 4.54951C108.905 5.08389 109.055 5.69326 109.055 6.36826C109.055 7.04326 108.905 7.65264 108.605 8.19639C108.314 8.73076 107.902 9.15264 107.386 9.45264C106.87 9.75264 106.299 9.90264 105.661 9.90264C105.024 9.90264 104.433 9.75264 103.917 9.45264C103.402 9.14326 102.999 8.73076 102.699 8.19639C102.399 7.65264 102.249 7.04326 102.249 6.36826C102.249 5.69326 102.399 5.08389 102.699 4.54951C102.999 4.00576 103.402 3.59326 103.917 3.29326C104.442 2.99326 105.024 2.84326 105.661 2.84326ZM105.661 3.87451C105.22 3.87451 104.827 3.97764 104.48 4.17451C104.133 4.38076 103.861 4.66201 103.674 5.04639C103.486 5.42139 103.392 5.86201 103.392 6.36826C103.392 6.87451 103.486 7.30576 103.674 7.69014C103.87 8.06514 104.142 8.35576 104.48 8.56201C104.827 8.76826 105.22 8.86201 105.661 8.86201C106.102 8.86201 106.486 8.75889 106.824 8.56201C107.17 8.35576 107.433 8.07451 107.63 7.69014C107.827 7.31514 107.92 6.87451 107.92 6.36826C107.92 5.86201 107.827 5.43076 107.63 5.04639C107.442 4.67139 107.17 4.38076 106.824 4.17451C106.486 3.96826 106.102 3.87451 105.661 3.87451Z" fill="#242232"/>
<path id="Vector_20" d="M98.189 9.82764H97.0733L93.7265 4.73701V9.82764H92.6108V2.93701H93.7265L97.0733 8.04639V2.93701H98.189V9.81826V9.82764Z" fill="#242232"/>
<path id="Vector_21" d="M87.136 8.32764H84.2298L83.7048 9.81826H82.5142L85.0548 3.03076H86.3298L88.861 9.81826H87.6704L87.1454 8.32764H87.136ZM86.8267 7.47451L85.6829 4.24951L84.5392 7.47451H86.8267Z" fill="#242232"/>
<path id="Vector_22" d="M78.9796 6.36824C78.9796 7.06199 78.839 7.67136 78.5483 8.19636C78.2671 8.71199 77.8546 9.11511 77.3108 9.39636C76.7671 9.68699 76.1202 9.82761 75.3702 9.82761H73.064V2.92761H75.3702C76.1296 2.92761 76.7765 3.06824 77.3108 3.35886C77.8546 3.64011 78.2671 4.03386 78.5483 4.54949C78.839 5.06511 78.9796 5.66511 78.9796 6.36824ZM75.2765 8.81511C76.1015 8.81511 76.739 8.59949 77.1796 8.16824C77.6202 7.73699 77.8452 7.13699 77.8452 6.35886C77.8452 5.58074 77.6202 4.98074 77.1796 4.54949C76.739 4.11824 76.1015 3.90261 75.2765 3.90261H74.1702V8.80574H75.2765V8.81511Z" fill="#242232"/>
<path id="Vector_23" d="M67.9171 9.82761L66.2015 7.07136H65.414V9.82761H64.2983V2.92761H66.7265C67.514 2.92761 68.114 3.11511 68.5171 3.49949C68.9296 3.88386 69.1358 4.39011 69.1358 5.02761C69.1358 5.57136 68.9858 6.01199 68.6765 6.35886C68.3765 6.70574 67.9452 6.92136 67.364 7.02449L69.1733 9.82761H67.9265H67.9171ZM65.4046 6.28386H66.6327C67.5327 6.28386 67.9827 5.89011 67.9827 5.09324C67.9827 4.71824 67.8702 4.41824 67.6546 4.21199C67.439 3.99636 67.1015 3.89324 66.6421 3.89324H65.414V6.28386H65.4046Z" fill="#242232"/>
<path id="Vector_24" d="M58.814 8.32764H55.9078L55.3828 9.81826H54.1921L56.7328 3.03076H58.0078L60.539 9.81826H59.3484L58.8234 8.32764H58.814ZM58.5046 7.47451L57.3609 4.24951L56.2171 7.47451H58.5046Z" fill="#242232"/>
<path id="Vector_25" d="M47.4235 2.86194C48.2673 2.86194 48.9704 3.07756 49.5329 3.50881C50.0954 3.94006 50.4704 4.52131 50.6673 5.25256H49.486C49.3267 4.84006 49.0642 4.50256 48.7079 4.26819C48.3517 4.02444 47.9204 3.89319 47.4048 3.89319C46.9923 3.89319 46.6267 3.99631 46.2985 4.19319C45.9798 4.39944 45.7267 4.68069 45.5392 5.06506C45.361 5.44006 45.2673 5.87131 45.2673 6.37756C45.2673 6.88381 45.361 7.30569 45.5392 7.69006C45.7267 8.06506 45.9798 8.34631 46.2985 8.55256C46.6267 8.75881 46.9923 8.85256 47.4048 8.85256C47.9204 8.85256 48.3517 8.73069 48.7079 8.48694C49.0642 8.24319 49.3267 7.91506 49.486 7.50256H50.6673C50.4704 8.23381 50.0954 8.82444 49.5329 9.24631C48.9704 9.66819 48.2673 9.88381 47.4235 9.88381C46.7767 9.88381 46.1954 9.73381 45.6985 9.44319C45.2017 9.14319 44.8079 8.73069 44.536 8.20569C44.2642 7.67131 44.1235 7.06194 44.1235 6.37756C44.1235 5.69319 44.2642 5.08381 44.536 4.55881C44.8079 4.02444 45.1923 3.61194 45.6985 3.31194C46.1954 3.01194 46.7767 2.86194 47.4235 2.86194Z" fill="#242232"/>
</g>
<defs>
<clipPath id="clip0_2080_11744">
<rect width="148.078" height="30" fill="white" transform="translate(0.960938 0.340088)"/>
</clipPath>
</defs>
</svg>
