<svg width="116" height="33" viewBox="0 0 116 33" fill="none" xmlns="http://www.w3.org/2000/svg">
<g id="Group 7">
<g id="Group 3">
<path id="Vector" d="M22.8752 18.5324C22.8752 18.5324 22.882 17.3439 22.2808 16.0111C20.8863 12.9204 16.6159 7.82454 3.52673 10.179L0.961914 14.8404L3.62795 17.0433C5.21699 16.3735 15.8759 9.96816 22.8752 18.532V18.5324ZM5.24259 12.3472L4.35891 13.8547L2.93643 12.9182L5.24259 12.3472Z" fill="#08202B"/>
<path id="Vector_2" d="M22.5007 22.9456C22.3847 22.2159 21.2071 19.3579 18.0178 17.8186C14.8721 16.3005 10.0171 16.1228 3.06182 20.4802L2.31763 25.3175L5.18524 26.6896C5.18524 26.6896 14.399 16.1555 22.501 22.9453L22.5007 22.9456ZM4.86008 23.4228L3.2219 23.0407L5.22055 21.6864L4.86037 23.4224L4.86008 23.4228Z" fill="#08202B"/>
<path id="Vector_3" d="M26.9743 5.26038C25.8155 3.94564 24.3362 2.98204 22.7899 2.27602L24.5872 0.340088H13.7842L7.03345 3.57922L8.49594 6.9038C17.818 6.42075 24.8377 10.4214 25.2205 18.0438C25.6275 26.1502 18.0625 31.2929 10.7789 29.8344C8.365 29.351 7.1232 28.7894 7.1232 28.7894C8.76991 30.3202 12.1275 32.2175 16.1495 32.2721C24.2571 32.3815 30.9298 25.3722 31.0837 16.6262C31.1617 12.2123 29.5821 8.19795 26.9737 5.26069L26.9743 5.26038ZM13.7845 3.68899L12.4008 2.2227H15.1681L13.7845 3.68899Z" fill="#08202B"/>
</g>
<g id="Hydra">
<path id="Vector_4" d="M107.173 26.3116C105.986 26.3116 104.899 25.9827 103.913 25.3251C102.944 24.6674 102.168 23.7723 101.583 22.6397C100.999 21.507 100.707 20.2283 100.707 18.8034C100.707 17.3602 100.999 16.0814 101.583 14.9671C102.186 13.8344 102.99 12.9484 103.995 12.3091C105.018 11.6697 106.16 11.35 107.42 11.35C108.169 11.35 108.854 11.4596 109.475 11.6788C110.096 11.898 110.635 12.2086 111.092 12.6105C111.567 12.9941 111.951 13.4417 112.243 13.9532C112.553 14.4647 112.745 15.0127 112.818 15.5973L112.188 15.3781V11.6514H115.038V26.0375H112.188V22.6123L112.846 22.4204C112.736 22.9137 112.508 23.3978 112.161 23.8728C111.832 24.3295 111.403 24.7405 110.873 25.1059C110.361 25.4712 109.786 25.7635 109.146 25.9827C108.525 26.2019 107.868 26.3116 107.173 26.3116ZM107.913 23.7084C108.772 23.7084 109.53 23.4983 110.188 23.0781C110.845 22.6579 111.357 22.0825 111.722 21.3518C112.106 20.6028 112.298 19.7533 112.298 18.8034C112.298 17.8717 112.106 17.0405 111.722 16.3098C111.357 15.579 110.845 15.0036 110.188 14.5834C109.53 14.1633 108.772 13.9532 107.913 13.9532C107.073 13.9532 106.324 14.1633 105.666 14.5834C105.027 15.0036 104.515 15.579 104.132 16.3098C103.766 17.0405 103.584 17.8717 103.584 18.8034C103.584 19.7533 103.766 20.6028 104.132 21.3518C104.515 22.0825 105.027 22.6579 105.666 23.0781C106.324 23.4983 107.073 23.7084 107.913 23.7084Z" fill="#08202B"/>
<path id="Vector_5" d="M91.407 26.0375V11.6514H94.2568V16.1728L93.9828 15.0767C94.1837 14.3825 94.5217 13.7522 94.9967 13.1859C95.4899 12.6196 96.0471 12.172 96.6682 11.8432C97.3076 11.5144 97.9652 11.35 98.6412 11.35C98.9517 11.35 99.244 11.3774 99.518 11.4322C99.8103 11.487 100.039 11.5509 100.203 11.624L99.4632 14.693C99.244 14.6017 98.9974 14.5286 98.7234 14.4738C98.4676 14.4007 98.2119 14.3642 97.9561 14.3642C97.4629 14.3642 96.9879 14.4647 96.5312 14.6656C96.0928 14.8483 95.7 15.1132 95.3529 15.4603C95.0241 15.7891 94.7592 16.1819 94.5582 16.6386C94.3573 17.077 94.2568 17.5611 94.2568 18.0909V26.0375H91.407Z" fill="#08202B"/>
<path id="Vector_6" d="M80.095 26.3118C78.7797 26.3118 77.6014 25.9921 76.5601 25.3527C75.5371 24.695 74.7242 23.809 74.1213 22.6947C73.5185 21.562 73.217 20.2741 73.217 18.831C73.217 17.3878 73.5093 16.109 74.0939 14.9947C74.6968 13.862 75.5097 12.976 76.5327 12.3367C77.5557 11.679 78.7157 11.3502 80.0128 11.3502C80.7252 11.3502 81.4103 11.4689 82.0679 11.7064C82.7439 11.9256 83.3467 12.2362 83.8765 12.6381C84.4063 13.0217 84.8173 13.451 85.1096 13.926C85.4201 14.3827 85.5754 14.8485 85.5754 15.3235L84.7534 15.3783V5.76013H87.5758V26.0377H84.7534V22.6125H85.3014C85.3014 23.0509 85.1553 23.4893 84.863 23.9278C84.5707 24.3479 84.1779 24.7407 83.6847 25.1061C83.2097 25.4714 82.6525 25.7637 82.0131 25.9829C81.392 26.2021 80.7526 26.3118 80.095 26.3118ZM80.4786 23.873C81.3372 23.873 82.0953 23.6537 82.753 23.2153C83.4106 22.7769 83.9222 22.1832 84.2875 21.4342C84.6711 20.6669 84.863 19.7992 84.863 18.831C84.863 17.8628 84.6711 17.0042 84.2875 16.2552C83.9222 15.4879 83.4106 14.8851 82.753 14.4466C82.0953 14.0082 81.3372 13.789 80.4786 13.789C79.62 13.789 78.8619 14.0082 78.2042 14.4466C77.5466 14.8851 77.0259 15.4879 76.6423 16.2552C76.2769 17.0042 76.0943 17.8628 76.0943 18.831C76.0943 19.7992 76.2769 20.6669 76.6423 21.4342C77.0259 22.1832 77.5466 22.7769 78.2042 23.2153C78.8619 23.6537 79.62 23.873 80.4786 23.873Z" fill="#08202B"/>
<path id="Vector_7" d="M61.0572 32.3401L63.9618 25.6266L63.9892 27.8736L56.8098 11.6515H60.0981L64.592 22.2287C64.6834 22.4114 64.793 22.6946 64.9209 23.0782C65.0487 23.4436 65.1583 23.8089 65.2497 24.1743L64.5372 24.3387C64.6834 23.9551 64.8204 23.5714 64.9483 23.1878C65.0944 22.8042 65.2314 22.4205 65.3593 22.0369L69.1134 11.6515H72.4565L66.5376 26.0376L64.0988 32.3401H61.0572Z" fill="#08202B"/>
<path id="Vector_8" d="M51.3912 26.0378V6.85632H54.3506V26.0378H51.3912ZM38.8684 26.0378V6.85632H41.8278V26.0378H38.8684ZM40.1563 17.8994V15.0496H52.7065V17.8994H40.1563Z" fill="#08202B"/>
</g>
</g>
</svg>
