<svg width="120" height="42" viewBox="0 0 120 42" fill="none" xmlns="http://www.w3.org/2000/svg">
<g id="Layer_1" clip-path="url(#clip0_2080_11713)">
<path id="Vector" d="M3.11247 13.5256V28.0595H0.677002V13.5256H3.11247ZM20.3447 28.0595H17.918L10.6029 17.205V41.8401H8.16739V13.508H10.6029L17.918 24.3362V0.840088H20.3447V28.0595ZM34.4144 13.5256V15.4704H30.4633V28.0595H28.0366V15.4704H24.068V13.5256H34.4144ZM40.5819 15.4441V19.7106H45.7069V21.6555H40.5819V26.1059H46.3377V28.0508H38.1465V13.4993H46.3377V15.4441H40.5819ZM58.5413 28.0595L55.1247 22.2424H53.2674V28.0595H50.8407V13.5256H55.9569C57.0958 13.5256 58.0595 13.7183 58.8479 14.1125C59.6364 14.498 60.2234 15.0236 60.6176 15.6807C61.0118 16.3377 61.2046 17.0649 61.2046 17.8796C61.2046 18.8083 60.9155 19.7194 60.3635 20.464C59.8029 21.235 58.9356 21.7606 57.7704 22.0409L61.4411 28.0683H58.5413V28.0595ZM53.2674 20.3414H55.9569C56.868 20.3414 57.5514 20.1224 58.0157 19.6756C58.48 19.2288 58.7078 18.633 58.7078 17.8796C58.7078 17.1262 58.48 16.5392 58.0244 16.11C57.5689 15.6807 56.8768 15.4704 55.9569 15.4704H53.2674V20.3414ZM67.7576 27.6916C66.9603 27.3499 66.3383 26.8681 65.8828 26.2373C65.4272 25.6065 65.1994 24.8794 65.1994 24.0384H67.8014C67.8539 24.6691 68.108 25.186 68.5548 25.589C69.0016 25.992 69.6323 26.1935 70.4383 26.1935C71.2443 26.1935 71.9364 25.992 72.4007 25.5978C72.8738 25.2036 73.1016 24.6867 73.1016 24.0647C73.1016 23.5741 72.9526 23.1798 72.6635 22.8732C72.3569 22.5578 71.989 22.3125 71.5772 22.1636C71.1392 21.9971 70.5435 21.8132 69.7725 21.6204C68.8088 21.3664 68.0204 21.1123 67.4159 20.8583C66.8026 20.5954 66.277 20.1837 65.8653 19.658C65.436 19.1149 65.2257 18.3877 65.2257 17.4854C65.2257 16.6531 65.436 15.9172 65.8653 15.2865C66.2945 14.6557 66.8903 14.1826 67.6612 13.8409C68.4321 13.4993 69.317 13.3416 70.3244 13.3416C71.7612 13.3416 72.9351 13.692 73.855 14.3929C74.7749 15.0937 75.283 16.0662 75.3794 17.2927H72.6898C72.646 16.767 72.392 16.3115 71.9189 15.9347C71.4458 15.558 70.8326 15.3653 70.0616 15.3653C69.3608 15.3653 68.8001 15.5405 68.3533 15.8909C67.9153 16.2414 67.6962 16.7407 67.6962 17.3978C67.6962 17.8446 67.8364 18.2125 68.1168 18.4929C68.3971 18.782 68.7475 19.001 69.1768 19.1762C69.6061 19.3427 70.1843 19.5266 70.9289 19.7194C71.9101 19.9822 72.7073 20.245 73.3294 20.5166C73.9514 20.7794 74.4945 21.2087 74.9063 21.7431C75.3443 22.295 75.5546 23.0309 75.5546 23.9508C75.5546 24.6867 75.3531 25.3875 74.9501 26.0446C74.5471 26.7016 73.9514 27.2273 73.1804 27.6215C72.4095 28.0157 71.4896 28.2172 70.4383 28.2172C69.4396 28.2172 68.546 28.0508 67.7488 27.7091L67.7576 27.6916ZM82.5281 15.4441V19.7106H87.6531V21.6555H82.5281V26.1059H88.2838V28.0508H80.0926V13.4993H88.2838V15.4441H82.5281ZM92.6291 16.9335C93.2862 15.8209 94.2411 14.901 95.38 14.2877C96.5364 13.657 97.8067 13.3328 99.1909 13.3328C100.768 13.3328 102.17 13.7095 103.405 14.4717C104.631 15.2339 105.525 16.3115 106.086 17.7044H103.159C102.774 16.9335 102.24 16.364 101.565 15.9873C100.882 15.6106 100.093 15.4179 99.1997 15.4179C98.2185 15.4179 97.3424 15.6369 96.5714 16.0662C95.8005 16.4954 95.1785 17.1437 94.7668 17.9234C94.3287 18.7294 94.1185 19.6756 94.1185 20.7444C94.1185 21.8132 94.3375 22.7593 94.7668 23.5653C95.1785 24.345 95.8005 25.0021 96.5714 25.4401C97.3424 25.8781 98.2185 26.0971 99.1997 26.0971C100.093 26.0971 100.882 25.9044 101.565 25.5277C102.248 25.151 102.783 24.5815 103.159 23.8106H106.086C105.534 25.2036 104.64 26.2811 103.405 27.0258C102.178 27.7792 100.768 28.1559 99.1909 28.1559C97.7979 28.1559 96.5276 27.8405 95.3712 27.2097C94.2323 26.5877 93.2862 25.6766 92.6291 24.564C91.9546 23.4339 91.6129 22.1636 91.6129 20.7356C91.6129 19.3076 91.9546 18.0373 92.6291 16.9072V16.9335ZM119.323 13.5256V15.4704H115.372V28.0595H112.936V15.4704H108.968V13.5256H119.314H119.323Z" fill="white"/>
</g>
<defs>
<clipPath id="clip0_2080_11713">
<rect width="118.646" height="41" fill="white" transform="translate(0.677002 0.840088)"/>
</clipPath>
</defs>
</svg>
