<svg width="117" height="29" viewBox="0 0 117 29" fill="none" xmlns="http://www.w3.org/2000/svg">
<path d="M54.8657 21.5399H63.9175V24.6627H51.4512V4.04105H54.8675L54.8657 21.5399Z" fill="white"/>
<mask id="mask0_6633_2646" style="mask-type:luminance" maskUnits="userSpaceOnUse" x="0" y="0" width="117" height="29">
<path d="M117 0H0V28.8893H117V0Z" fill="white"/>
</mask>
<g mask="url(#mask0_6633_2646)">
<path d="M79.4833 18.564H68.3475C68.5544 20.7744 70.351 22.1572 72.7682 22.1572C74.4147 22.163 76.0109 21.5896 77.2773 20.5374L78.8396 22.7177C77.1535 24.2555 74.9311 25.0699 72.6506 24.9856C68.115 24.9856 65.0205 22.0405 65.0205 17.3819C65.0205 12.8445 68.2317 9.77834 72.7125 9.77834C76.6301 9.77834 79.5469 12.2539 79.5469 17.2316C79.5469 17.7029 79.5169 18.1441 79.4877 18.5579M68.3776 16.0602H76.4233C76.2747 13.7614 74.7142 12.612 72.5932 12.612C71.5825 12.5357 70.5812 12.8512 69.7968 13.4932C69.0125 14.1351 68.5052 15.0543 68.3802 16.0602" fill="white"/>
<path d="M81.5088 5.92697C81.5088 5.36419 81.7323 4.82447 82.1303 4.42653C82.5282 4.02859 83.068 3.80503 83.6307 3.80503C84.1935 3.80503 84.7332 4.02859 85.1312 4.42653C85.5291 4.82447 85.7527 5.36419 85.7527 5.92697C85.7527 6.48974 85.5291 7.02946 85.1312 7.4274C84.7332 7.82534 84.1935 8.0489 83.6307 8.0489C83.068 8.0489 82.5282 7.82534 82.1303 7.4274C81.7323 7.02946 81.5088 6.48974 81.5088 5.92697ZM82.0083 10.1107H85.3079V24.6628H82.0083V10.1107Z" fill="white"/>
<path d="M87.8008 17.4435C87.8008 13.0537 90.8953 9.78416 95.6696 9.78416C96.6778 9.72723 97.6866 9.88283 98.6308 10.2409C99.575 10.5989 100.433 11.1514 101.15 11.8624C101.867 12.5735 102.427 13.4273 102.792 14.3685C103.158 15.3097 103.322 16.3173 103.273 17.3259C103.273 21.7147 100.211 24.9852 95.4371 24.9852C90.7821 24.9852 87.807 21.774 87.807 17.4435M100.004 17.4435C100.004 14.822 98.2646 12.7009 95.583 12.7009C94.9792 12.6896 94.3796 12.8026 93.8213 13.0329C93.2631 13.2633 92.7582 13.606 92.3381 14.0398C91.918 14.4736 91.5917 14.9892 91.3793 15.5545C91.167 16.1198 91.0733 16.7228 91.1039 17.3259C91.1039 19.9473 92.843 22.0684 95.5246 22.0684C96.1283 22.0795 96.7277 21.9663 97.2857 21.7359C97.8437 21.5054 98.3484 21.1627 98.7683 20.7289C99.1882 20.2951 99.5144 19.7796 99.7267 19.2144C99.9389 18.6492 100.033 18.0464 100.002 17.4435" fill="white"/>
<path d="M104.539 23.3074L105.894 20.8035C107.472 21.7174 109.257 22.214 111.08 22.2464C112.7 22.2464 113.761 21.5108 113.761 20.4198C113.761 19.3287 112.846 18.7399 110.784 18.5357C107.102 18.1519 105.157 16.6498 105.157 14.2034C105.157 11.5801 107.514 9.81362 111.02 9.81362C112.857 9.81296 114.666 10.258 116.293 11.1107L115.263 13.6446C113.924 12.9399 112.443 12.547 110.931 12.4952C109.309 12.4952 108.366 13.1141 108.366 14.145C108.366 15.1759 109.162 15.7073 111.107 15.9416C115.351 16.5021 117 17.7682 117 20.479C117 23.2198 114.613 25.0765 111.02 25.0765C108.741 25.0713 106.505 24.4602 104.539 23.3074Z" fill="white"/>
<path d="M25.5021 7.10672C26.4411 6.58684 27.182 6.2102 27.7213 5.98298C29.8935 4.9647 32.1635 4.1699 34.4965 3.61083C35.2339 3.434 36.0402 3.28104 36.8952 3.15461V0L36.8607 0.0044207C35.8713 0.160029 34.9244 0.346583 34.0491 0.558776C31.5672 1.19434 29.1487 2.05585 26.8239 3.13251C26.1865 3.44284 25.3483 3.8743 24.336 4.41539C23.3431 4.94588 22.1636 5.6028 20.734 6.42505C19.0783 7.39701 17.6663 8.18625 16.4981 8.79277C16.2664 8.67518 16.0489 8.56555 15.8535 8.47183C13.5643 7.33933 11.152 6.47481 8.66457 5.89545C5.82425 5.22859 2.91752 4.88572 0 4.87338L0 8.04567C0.0539325 8.05009 0.10256 8.05717 0.155609 8.05717C2.81897 8.03175 5.47591 8.3232 8.07043 8.92539C9.70286 9.32722 11.3065 9.83823 12.8704 10.455C12.4071 10.6406 11.9412 10.8201 11.4823 10.9854C10.3592 11.3893 9.21626 11.736 8.05805 12.0243C5.46586 12.602 2.81456 12.8717 0.159145 12.828H0.145883C0.0972554 12.828 0.0521643 12.828 0.00353656 12.828H0V16.0622C0.0486277 16.0622 0.0937188 16.0622 0.142347 16.0622H0.159145C2.81456 16.0184 5.46586 16.2882 8.05805 16.8659C9.21653 17.1536 10.3597 17.4997 11.4832 17.903C11.9421 18.0683 12.408 18.2478 12.8713 18.4334C11.3074 19.0502 9.70375 19.5612 8.07131 19.963C5.47679 20.5652 2.81986 20.8566 0.156493 20.8312C0.10256 20.8312 0.0539325 20.8383 0.00088414 20.8427V24.0185C2.9184 24.0025 5.82476 23.6567 8.66457 22.9876C11.1514 22.4084 13.5631 21.5442 15.8517 20.4121C16.048 20.3184 16.2646 20.2088 16.4963 20.0912C17.6616 20.6977 19.0735 21.487 20.7322 22.4589C22.1618 23.2812 23.3422 23.9372 24.3342 24.4686C25.3465 25.0097 26.1847 25.4411 26.8222 25.7515C29.1469 26.8281 31.5654 27.6896 34.0473 28.3252C34.9226 28.5374 35.8696 28.7231 36.8589 28.8795L36.8934 28.884V25.7285C36.0384 25.602 35.2321 25.4491 34.4947 25.2723C32.1618 24.7132 29.8917 23.9184 27.7196 22.9001C27.1829 22.6729 26.4402 22.2971 25.5004 21.7764C24.5605 21.2556 23.4032 20.6005 21.947 19.7579C21.1218 19.2734 20.3441 18.8313 19.6138 18.4317C20.3423 18.0276 21.1327 17.582 22.0009 17.0851C22.6101 16.7315 23.1671 16.4167 23.6808 16.1249C23.9036 16.247 24.1229 16.3654 24.3333 16.4786C25.3421 17.0179 26.182 17.4512 26.8239 17.7615C29.1479 18.8387 31.5658 19.7003 34.0473 20.3352C34.9668 20.558 35.9217 20.7428 36.8952 20.894V17.7358C36.0596 17.6121 35.2542 17.4626 34.4921 17.2796C32.1598 16.7203 29.8903 15.9255 27.7187 14.9075C27.4419 14.7917 27.1139 14.6352 26.7364 14.4442C27.1139 14.2523 27.4437 14.0967 27.7187 13.9809C29.8903 12.9629 32.1598 12.1681 34.4921 11.6088C35.2542 11.4257 36.0596 11.2754 36.8952 11.1525V7.99528C35.9226 8.14647 34.9677 8.33125 34.0473 8.55405C31.5655 9.18953 29.1472 10.0516 26.823 11.1296C26.1812 11.4399 25.3412 11.8722 24.3324 12.4124C24.1246 12.5238 23.9027 12.6432 23.6799 12.7661C23.1645 12.4752 22.6066 12.1569 22.0001 11.8059C21.1354 11.3099 20.3449 10.8634 19.6129 10.4594C20.3426 10.058 21.1203 9.61591 21.9461 9.13317C23.4023 8.28881 24.5632 7.63013 25.5012 7.11025M10.7361 14.4486C11.2233 14.293 11.714 14.1277 12.2047 13.9482C13.4027 13.5061 14.6299 12.9969 15.8535 12.4248C16.0524 12.3267 16.2593 12.2224 16.4724 12.1127C17.5794 12.6954 18.9869 13.4752 20.6809 14.4486C18.9869 15.4212 17.5794 16.2019 16.4724 16.7845C16.2558 16.6749 16.0489 16.5706 15.8535 16.4724C14.6307 15.9004 13.4027 15.3893 12.2047 14.949C11.7143 14.7693 11.2247 14.6025 10.7361 14.4486Z" fill="white"/>
</g>
</svg>
