<svg width="128" height="37" viewBox="0 0 128 37" fill="none" xmlns="http://www.w3.org/2000/svg">
<g id="marlowe-pioneers-logo 1" clip-path="url(#clip0_2080_11229)">
<path id="Vector" d="M17.7822 2.17808L15.3408 0.713623L0.695801 9.49898V27.0697L1.2582 27.4073L3.13653 28.5342L15.3415 35.8551L20.2229 32.9268V15.3568L10.4587 9.49898L8.01798 10.9628L17.7822 16.8206V31.4631L15.3408 32.9275L3.13653 25.6059V10.9628L15.3415 3.64185L27.5457 10.9634V28.5348L29.9865 27.0704V9.49898L17.7822 2.17808Z" fill="white"/>
<path id="Vector_2" d="M12.9001 8.03452L22.6644 13.891V31.4631L25.1051 29.9986V12.4272L15.3415 6.57007L12.9001 8.03452ZM56.9587 19.4852V27.1689H54.6064V19.8113C54.6064 17.4224 53.0915 16.6351 51.8107 16.6351C50.5299 16.6351 49.0403 17.4224 49.0403 19.8113V27.1689H46.688V19.8113C46.688 17.4224 45.1731 16.6351 43.8663 16.6351C42.5595 16.6351 41.0953 17.4224 41.0953 19.8113V27.1689H38.7436V14.6796H41.0953V16.1732C41.9574 15.0056 43.2642 14.4901 44.5444 14.4901C46.06 14.4901 47.6282 15.0878 48.4389 16.6895C49.3531 15.0606 50.9993 14.4901 52.4895 14.4901C54.6844 14.4901 56.9574 15.7399 56.9574 19.4859L56.9587 19.4852ZM70.8346 14.6789V27.1689H68.4823V25.2412C67.5941 26.5711 66.2093 27.3855 64.3537 27.3855C60.9559 27.3855 58.5256 24.6428 58.5256 20.9239C58.5256 17.2043 60.9559 14.4894 64.3537 14.4894C66.2093 14.4894 67.5941 15.3038 68.4823 16.6066V14.6789H70.8346ZM68.4823 20.9246C68.4823 18.5085 66.9667 16.7981 64.6677 16.7981C62.3681 16.7981 60.8259 18.5085 60.8259 20.9246C60.8259 23.3413 62.3414 25.0788 64.6677 25.0788C66.9934 25.0788 68.4823 23.3135 68.4823 20.9246ZM79.5097 14.4887V16.7968C77.8902 16.824 75.2765 17.5575 75.2765 20.7609V27.1682H72.9242V14.6789H75.2765V16.9863C76.2173 15.2766 77.8375 14.5145 79.5097 14.4887ZM81.3393 27.1689V9.52071H83.7176L83.691 27.1682L81.3393 27.1689ZM85.1538 20.9246C85.1538 17.1507 87.6888 14.4357 91.3213 14.4357C94.9538 14.4357 97.4361 17.1507 97.4361 20.9246C97.4361 24.6984 94.9272 27.4141 91.3213 27.4141C87.7149 27.4141 85.1538 24.6448 85.1538 20.9246ZM95.1105 20.9246C95.1105 18.5357 93.595 16.7981 91.3213 16.7981C89.047 16.7981 87.5061 18.5357 87.5061 20.9246C87.5061 23.3135 89.0217 25.0788 91.3213 25.0788C93.6203 25.0788 95.1105 23.2863 95.1105 20.9246ZM115.703 14.6796L111.705 27.1689H109.379L106.557 18.535L103.709 27.1689H101.383L97.4374 14.6796H99.8938L102.689 23.721L105.721 14.6803H107.445L110.425 23.721L113.247 14.6803L115.703 14.6796ZM127.305 20.9246V21.631H117.845C118.08 23.8569 119.596 25.2969 121.686 25.2969C123.411 25.2969 124.508 24.4818 125.084 23.6137L126.73 24.8357C125.685 26.4101 123.881 27.4154 121.686 27.4154C118.028 27.4154 115.571 24.6461 115.571 20.9259C115.571 17.2057 117.923 14.4643 121.529 14.4643C125.135 14.4643 127.304 17.2064 127.304 20.9259L127.305 20.9246ZM117.845 20.0293H125.11C124.822 17.9393 123.542 16.4184 121.53 16.4184C119.518 16.4184 118.133 17.8571 117.845 20.0293Z" fill="white"/>
</g>
<defs>
<clipPath id="clip0_2080_11229">
<rect width="126.783" height="36" fill="white" transform="translate(0.608643 0.340088)"/>
</clipPath>
</defs>
</svg>
