<svg width="94" height="39" viewBox="0 0 94 39" fill="none" xmlns="http://www.w3.org/2000/svg">
<g clip-path="url(#clip0_2080_11679)">
<path d="M19.2036 21.9172C19.2036 21.9172 16.4178 28.4283 11.2188 31.3613C13.4141 33.7559 16.0469 36.1144 19.2036 38.3401C22.3602 36.1158 24.9915 33.7573 27.1884 31.3613C21.9893 28.4283 19.2036 21.9172 19.2036 21.9172Z" fill="white"/>
<path d="M19.2036 7.39819C16.6763 12.8672 9.6845 16.7037 3.02905 18.4646C4.22706 21.4337 5.93603 24.6539 8.35514 27.8957L9.95441 23.1975C13.6177 21.0136 17.5408 18.6032 19.2051 15.0019C20.8693 18.6017 24.791 21.0136 28.4557 23.1975L30.0536 27.8957C32.4727 24.6539 34.1816 21.4337 35.3796 18.4646C28.7242 16.7037 21.7324 12.8672 19.2051 7.39819H19.2036Z" fill="white"/>
<path d="M38.1928 4.65004C38.1928 4.65004 29.6494 0.340088 19.2036 0.340088C8.75638 0.340088 0.212986 4.65004 0.212986 4.65004C0.212986 4.65004 -0.0237287 8.99174 1.82236 15.0626L4.93286 10.1609C10.6674 8.50965 16.4107 6.11363 19.2036 1.78203C21.9966 6.11363 27.7398 8.50965 33.4744 10.1609L36.5849 15.0626C38.4324 8.99318 38.1942 4.65004 38.1942 4.65004H38.1928Z" fill="white"/>
<path d="M47.2043 24.4641V14.5625H51.1304L53.2377 20.8412H53.2954L55.3883 14.5625H59.3288V24.4641H56.9328V17.3627H56.8606L54.5079 24.4641H51.7943L49.456 17.3627H49.3839V24.4641H47.2043Z" fill="white"/>
<path d="M61.4651 15.775V14.0718H63.7745V15.775H61.4651ZM61.494 24.4642V17.0885H63.7601V24.4642H61.494Z" fill="white"/>
<path d="M68.2779 24.6085C67.8261 24.6085 67.4263 24.5507 67.0799 24.4353C66.7334 24.3198 66.4621 24.1206 66.2643 23.8363C66.0666 23.5519 65.9685 23.1752 65.9685 22.7032V18.7483H65.1602V17.0884H66.0406L66.8345 14.7357H68.2346V17.0884H69.9522V18.7483H68.2346V22.1692C68.2346 22.5921 68.3212 22.8649 68.4944 22.9847C68.6676 23.1045 68.8552 23.1651 69.0573 23.1651C69.1627 23.1651 69.3099 23.1434 69.4975 23.1001C69.6852 23.0568 69.8367 23.0106 69.9522 22.963V24.3198C69.818 24.3775 69.6462 24.4309 69.4398 24.4786C69.2334 24.5262 69.0255 24.5608 68.8191 24.5796C68.6113 24.5984 68.4309 24.6085 68.2779 24.6085Z" fill="white"/>
<path d="M71.3523 24.4642V14.0718H73.6184V17.9978C73.897 17.6514 74.2145 17.3887 74.571 17.2111C74.9276 17.0336 75.3317 16.9441 75.7835 16.9441C76.2641 16.9441 76.6856 17.0408 77.0465 17.2328C77.4073 17.4248 77.6902 17.6947 77.8981 18.0411C78.1045 18.3875 78.2084 18.796 78.2084 19.268V24.4642H75.9423V19.7876C75.9423 19.3935 75.8383 19.0948 75.6319 18.8927C75.4255 18.6906 75.1585 18.5896 74.8309 18.5896C74.6086 18.5896 74.4065 18.6473 74.2246 18.7628C74.0428 18.8783 73.8955 19.0298 73.7844 19.2174C73.6733 19.4051 73.6184 19.6187 73.6184 19.8598V24.4642H71.3523Z" fill="white"/>
<path d="M79.9836 24.4641V17.0884H81.6868L81.9467 18.1565C81.9755 18.1176 82.0304 18.0338 82.1126 17.9039C82.1935 17.774 82.3162 17.634 82.4807 17.4854C82.6438 17.3367 82.8459 17.2082 83.0869 17.1029C83.3265 16.9975 83.6109 16.9441 83.9385 16.9441C84.4293 16.9441 84.8291 17.035 85.1365 17.2183C85.444 17.4016 85.672 17.6629 85.8221 18.005C85.9708 18.3471 86.0459 18.7527 86.0459 19.2246C86.0459 19.33 86.0401 19.4527 86.0314 19.5927C86.0213 19.7327 86.0127 19.8597 86.0026 19.9752H84.1262V19.6577C84.1262 19.4946 84.0944 19.33 84.0323 19.1669C83.9703 19.0038 83.8707 18.871 83.7364 18.77C83.6008 18.6689 83.4189 18.6184 83.188 18.6184C83.0148 18.6184 82.8661 18.6516 82.7405 18.7195C82.6149 18.7873 82.5139 18.8753 82.4374 18.9865C82.3595 19.0976 82.3046 19.2174 82.2714 19.3473C82.2382 19.4772 82.2209 19.61 82.2209 19.7443V24.4641H79.9836Z" fill="white"/>
<path d="M87.2439 15.775V14.0718H89.5533V15.775H87.2439ZM87.2728 24.4642V17.0885H89.5389V24.4642H87.2728Z" fill="white"/>
<path d="M91.5308 24.4642V14.0718H93.7969V24.4642H91.5308Z" fill="white"/>
</g>
<defs>
<clipPath id="clip0_2080_11679">
<rect width="93.5936" height="38" fill="white" transform="translate(0.203125 0.340088)"/>
</clipPath>
</defs>
</svg>
