<svg width="116" height="19" viewBox="0 0 116 19" fill="none" xmlns="http://www.w3.org/2000/svg">
<g id="Layer_1" clip-path="url(#clip0_2080_11236)">
<path id="Vector" d="M38.4738 6.3066C38.4738 7.30988 38.2466 8.22799 37.7829 9.0609C37.3191 9.88435 36.6187 10.5469 35.6627 11.058C34.7067 11.5691 33.5331 11.8247 32.1228 11.8247H29.5105V18.0242H25.2986V0.741206H32.1133C33.4952 0.741206 34.6594 0.97783 35.6059 1.45108C36.5619 1.92433 37.2718 2.58687 37.745 3.41979C38.2182 4.2527 38.4549 5.21813 38.4549 6.29713L38.4738 6.3066ZM31.8105 8.46461C32.615 8.46461 33.2113 8.27531 33.6088 7.89671C34.0063 7.51811 34.1956 6.98808 34.1956 6.29713C34.1956 5.60619 33.9969 5.07616 33.6088 4.69756C33.2113 4.31896 32.615 4.12966 31.8105 4.12966H29.52V8.46461H31.8105ZM45.1277 14.7683H50.6363V18.0147H40.9158V0.741206H45.1277V14.7683ZM57.0251 0.741206V11.0769C57.0251 12.1086 57.2807 12.9037 57.7918 13.4621C58.3029 14.0205 59.0506 14.295 60.035 14.295C61.0193 14.295 61.7765 14.0205 62.2971 13.4621C62.8177 12.9037 63.0827 12.1086 63.0827 11.0769V0.741206H67.2946V11.0485C67.2946 12.5913 66.9633 13.8975 66.3102 14.9576C65.6571 16.0271 64.7674 16.8316 63.6506 17.3711C62.5526 17.9106 61.3222 18.1851 59.9592 18.1851C58.5963 18.1851 57.3753 17.9201 56.2963 17.3995C55.2268 16.86 54.3844 16.0555 53.7597 14.986C53.135 13.907 52.8227 12.5913 52.8227 11.0485V0.741206H57.0346H57.0251ZM82.9118 0.741206V4.11073H78.3307V18.0147H74.1188V4.11073H69.5378V0.741206H82.9023H82.9118ZM89.4047 0.741206V11.0769C89.4047 12.1086 89.6603 12.9037 90.1714 13.4621C90.6825 14.0205 91.4302 14.295 92.4146 14.295C93.3989 14.295 94.1561 14.0205 94.6767 13.4621C95.1973 12.9037 95.4623 12.1086 95.4623 11.0769V0.741206H99.6742V11.0485C99.6742 12.5913 99.3429 13.8975 98.6898 14.9576C98.0368 16.0176 97.147 16.8316 96.0302 17.3711C94.9323 17.9106 93.7018 18.1851 92.3389 18.1851C90.9759 18.1851 89.7549 17.9201 88.6759 17.3995C87.6064 16.86 86.764 16.0555 86.1393 14.986C85.5146 13.907 85.2023 12.5913 85.2023 11.0485V0.741206H89.4142H89.4047ZM109.12 18.1851C107.861 18.1851 106.726 17.9769 105.722 17.5699C104.719 17.1629 103.914 16.5571 103.309 15.7526C102.722 14.9481 102.41 13.9827 102.372 12.8469H106.849C106.915 13.4905 107.133 13.9827 107.511 14.3234C107.89 14.6547 108.382 14.8156 108.988 14.8156C109.593 14.8156 110.105 14.6736 110.464 14.3991C110.824 14.1057 111.004 13.6987 111.004 13.1971C111.004 12.7712 110.852 12.421 110.559 12.137C110.284 11.8625 109.925 11.6259 109.499 11.4461C109.092 11.2662 108.496 11.058 107.729 10.8308C106.612 10.4901 105.703 10.1399 104.993 9.79917C104.284 9.45843 103.678 8.94732 103.176 8.27531C102.665 7.6033 102.41 6.72306 102.41 5.64405C102.41 4.03501 102.996 2.78564 104.161 1.877C105.325 0.9589 106.839 0.495117 108.713 0.495117C110.587 0.495117 112.149 0.9589 113.313 1.877C114.477 2.77617 115.102 4.04448 115.187 5.66298H110.635C110.606 5.10455 110.398 4.66916 110.019 4.35682C109.641 4.02555 109.158 3.86464 108.571 3.86464C108.06 3.86464 107.653 4.00662 107.341 4.2811C107.028 4.54612 106.877 4.92472 106.877 5.43582C106.877 5.99426 107.142 6.42964 107.663 6.74199C108.183 7.05433 109.007 7.3856 110.123 7.75474C111.24 8.13334 112.14 8.493 112.83 8.83374C113.54 9.17448 114.146 9.67612 114.648 10.3387C115.159 10.9918 115.414 11.8436 115.414 12.8753C115.414 13.907 115.159 14.7493 114.648 15.5539C114.156 16.3584 113.436 17.002 112.48 17.4752C111.524 17.9485 110.407 18.1851 109.111 18.1851H109.12Z" fill="#4BB4D5"/>
<g id="Group">
<path id="Vector_2" d="M5.35593 6.99756H3.75635V18.1946H5.35593V6.99756Z" fill="#4BB4D5"/>
<path id="Vector_3" d="M0.576172 0.495117V18.1757H2.15682V5.45475H13.2687V13.1498H10.1358V15.0522H15.0576V3.70374H2.15682V2.26506H16.5436V16.4246H8.71603V14.986L8.73496 13.2444V11.7016H11.7921V6.93129H6.99341V18.1851H18.3135V0.495117H0.576172ZM10.1263 8.70123V9.979H8.73496V8.70123H10.1263Z" fill="#4BB4D5"/>
</g>
</g>
<defs>
<clipPath id="clip0_2080_11236">
<rect width="114.848" height="17.69" fill="white" transform="translate(0.576172 0.495117)"/>
</clipPath>
</defs>
</svg>
