<svg width="156" height="19" viewBox="0 0 156 19" fill="none" xmlns="http://www.w3.org/2000/svg">
<g id="Layer_1" clip-path="url(#clip0_2080_11728)">
<path id="Vector" d="M12.6532 6.06007C12.3866 5.3934 11.9732 4.9134 11.4199 4.62007C10.8666 4.32673 10.1066 4.18007 9.1399 4.18007C8.04657 4.18007 7.2199 4.30007 6.6599 4.5334C6.0999 4.7734 5.81324 5.12007 5.81324 5.58007C5.81324 6.00673 5.96657 6.32673 6.26657 6.5334C6.56657 6.74007 7.15324 6.9134 8.02657 7.0534L11.6866 7.64673C13.8866 7.9934 15.4732 8.58673 16.4532 9.4134C17.4266 10.2467 17.9132 11.4067 17.9132 12.8934C17.9132 14.6801 17.1932 16.0401 15.7532 16.9534C14.3132 17.8667 12.1799 18.3334 9.3599 18.3334C6.5399 18.3334 4.39324 17.8334 2.90657 16.8401C1.42657 15.8401 0.593236 14.3401 0.399902 12.3267H5.38657C5.54657 13.1334 5.9399 13.7267 6.57324 14.1067C7.20657 14.4867 8.13324 14.6801 9.35324 14.6801C10.4932 14.6801 11.3732 14.5401 11.9866 14.2534C12.6066 13.9667 12.9132 13.5667 12.9132 13.0401C12.9132 12.6467 12.7399 12.3334 12.3999 12.1134C12.0599 11.8934 11.4666 11.7201 10.6332 11.5934L7.61324 11.1401C5.28657 10.7934 3.5799 10.1801 2.50657 9.3134C1.42657 8.44006 0.893236 7.24673 0.893236 5.72673C0.893236 4.0934 1.6399 2.82007 3.12657 1.90007C4.61324 0.980067 6.67324 0.526733 9.2999 0.526733C11.7399 0.526733 13.6266 0.946733 14.9666 1.78673C16.3066 2.62673 17.1266 3.8934 17.4266 5.58673L12.6532 6.06007Z" fill="white"/>
<path id="Vector_2" d="M27.3534 17.9134V16.3667C26.6867 17.0334 25.9667 17.5134 25.1801 17.8134C24.3934 18.1134 23.4867 18.2667 22.4601 18.2667C20.7801 18.2667 19.4934 17.94 18.5867 17.28C17.6867 16.62 17.2334 15.6734 17.2334 14.44C17.2334 13.0934 17.8134 12.08 18.9801 11.4C20.1467 10.72 21.9601 10.3467 24.4334 10.28L27.1867 10.2067V9.66004C27.1867 9.15337 26.9867 8.76004 26.5934 8.4867C26.2001 8.21337 25.6334 8.07337 24.9067 8.07337C24.1801 8.07337 23.5801 8.17337 23.1134 8.38004C22.6467 8.5867 22.3601 8.87337 22.2467 9.23337L18.0401 8.9267C18.3401 7.61337 19.0667 6.64004 20.2134 6.0067C21.3601 5.37337 22.9601 5.05337 25.0001 5.05337C29.3534 5.05337 31.5334 6.74004 31.5334 10.1134V17.9067H27.3534V17.9134ZM27.1867 12.6134L24.7134 12.6867C23.6067 12.72 22.8134 12.84 22.3401 13.0534C21.8667 13.2667 21.6267 13.62 21.6267 14.1067C21.6267 14.8667 22.3534 15.2467 23.8134 15.2467C24.3534 15.2467 24.8467 15.1867 25.3001 15.06C25.7534 14.9334 26.1201 14.7534 26.4067 14.5134C26.9267 14.0667 27.1867 13.5667 27.1867 12.9934V12.6134ZM42.1067 17.9134V10.7134C42.1067 9.9867 41.9334 9.45337 41.6001 9.12004C41.2601 8.7867 40.7267 8.62004 40.0001 8.62004C39.6067 8.62004 39.2134 8.69337 38.8334 8.8467C38.4534 9.00004 38.1201 9.2067 37.8334 9.47337C37.2934 9.9667 37.0267 10.5334 37.0267 11.1867V17.9067H32.3201V5.44004H36.9267V7.17337C38.2401 5.7667 39.8734 5.06004 41.8201 5.06004C43.3867 5.06004 44.6134 5.47337 45.4934 6.3067C46.3734 7.14004 46.8134 8.3067 46.8134 9.81337V17.9134H42.1067ZM61.5601 13.0867C61.3201 14.7667 60.5867 16.0534 59.3534 16.9467C58.1201 17.84 56.4534 18.2867 54.3667 18.2867C52.8601 18.2867 51.5601 18.0334 50.4601 17.5267C49.3601 17.02 48.5067 16.2734 47.9067 15.28C47.3067 14.2867 47.0001 13.1134 47.0001 11.7534C47.0001 9.68004 47.6601 8.04004 48.9801 6.8467C50.3001 5.65337 52.1134 5.05337 54.4067 5.05337C55.6934 5.05337 56.8134 5.23337 57.7801 5.5867C58.7467 5.94004 59.5334 6.48004 60.1467 7.1867C60.7534 7.90004 61.1534 8.75337 61.3467 9.75337L56.7601 10.18C56.4934 9.07337 55.7201 8.52004 54.4534 8.52004C53.6001 8.52004 52.9334 8.79337 52.4601 9.35337C51.9867 9.9067 51.7467 10.68 51.7467 11.68C51.7467 12.68 51.9867 13.4667 52.4601 14.0067C52.9334 14.5467 53.6067 14.8134 54.4801 14.8134C55.9201 14.8134 56.7401 14.2334 56.9267 13.08H61.5601V13.0867ZM71.4201 17.9134V10.7134C71.4201 9.9867 71.2534 9.45337 70.9067 9.12004C70.5667 8.7867 70.0334 8.62004 69.3067 8.62004C68.9134 8.62004 68.5201 8.69337 68.1401 8.8467C67.7601 9.00004 67.4267 9.2067 67.1401 9.47337C66.6001 9.9667 66.3334 10.5334 66.3334 11.1867V17.9067H61.6267V0.953369H66.3334V7.08004C67.6334 5.73337 69.2334 5.06004 71.1334 5.06004C72.7001 5.06004 73.9267 5.47337 74.8001 6.3067C75.6801 7.14004 76.1201 8.3067 76.1201 9.81337V17.9134H71.4134H71.4201ZM91.7534 11.64C91.7534 13.7 91.0601 15.32 89.66 16.5067C88.2667 17.6934 86.3601 18.2867 83.9334 18.2867C81.5067 18.2867 79.6334 17.7134 78.3067 16.5667C76.9734 15.42 76.3134 13.8067 76.3134 11.7334C76.3134 9.66004 77.0067 8.0267 78.4067 6.84004C79.8001 5.65337 81.7067 5.06004 84.1334 5.06004C86.5601 5.06004 88.4334 5.63337 89.7601 6.78004C91.0867 7.9267 91.7534 9.5467 91.7534 11.64ZM87.0067 11.6667C87.0067 10.6534 86.7534 9.88004 86.2467 9.34004C85.7401 8.80004 85.0067 8.53337 84.0401 8.53337C83.0734 8.53337 82.3601 8.80004 81.84 9.34004C81.3267 9.88004 81.0667 10.66 81.0667 11.6934C81.0667 12.7267 81.3201 13.48 81.8267 14.02C82.3334 14.56 83.0667 14.8267 84.0334 14.8267C85.0001 14.8267 85.7134 14.56 86.2334 14.02C86.7534 13.48 87.0067 12.7 87.0067 11.6667ZM125.513 17.9134L116.913 7.60004V17.9134H112.16V0.953369H116.58L125.18 11.26V0.953369H129.933V17.9134H125.513ZM134.987 12.78C135.067 13.5534 135.373 14.1467 135.9 14.5534C136.433 14.9534 137.16 15.16 138.1 15.16C139.607 15.16 140.52 14.74 140.853 13.9H145.2C144.553 16.8267 142.14 18.2934 137.98 18.2934C135.62 18.2934 133.793 17.7334 132.493 16.6067C131.193 15.48 130.547 13.8934 130.547 11.8334C130.547 10.52 130.847 9.35337 131.447 8.3267C132.047 7.30004 132.92 6.5067 134.06 5.9267C135.2 5.3467 136.547 5.06004 138.1 5.06004C140.393 5.06004 142.18 5.6267 143.447 6.76004C144.713 7.89337 145.347 9.49337 145.347 11.5734V12.7867H134.987V12.78ZM140.973 10.2867C140.893 8.86004 139.913 8.1467 138.027 8.1467C137.253 8.1467 136.587 8.3467 136.04 8.74004C135.493 9.13337 135.173 9.65337 135.08 10.2867H140.973Z" fill="white"/>
<path id="Vector_3" d="M102.667 2.85342C102.9 3.32009 103.573 3.28675 103.76 2.79342C104.033 2.05342 104.56 1.64009 105.433 1.51342L105.26 0.340088H105.2C104.333 0.486755 103.647 0.860088 103.167 1.44675L103.133 1.41342C102.667 0.860088 102.02 0.480088 101.3 0.340088L101.073 1.50675C101.753 1.64009 102.28 2.07342 102.667 2.85342Z" fill="white"/>
<path id="Vector_4" d="M155.04 14.3467C154.293 14.5667 153.66 14.68 153.14 14.68C152.52 14.68 152.073 14.5467 151.8 14.2867C151.52 14.0267 151.387 13.62 151.387 13.0667V8.86003H155.093V5.44003H151.387V2.16003H146.68V5.44003H144.307V8.86003H146.68V13.4C146.68 15.08 147.08 16.2934 147.88 17.0334C148.68 17.78 149.967 18.1534 151.74 18.1534C153.12 18.1534 154.407 17.9534 155.613 17.56L155.047 14.3534L155.04 14.3467Z" fill="white"/>
<path id="Vector_5" d="M109.827 2.60681C108.96 2.74681 108.273 3.12014 107.793 3.70681L107.76 3.67348C107.293 3.12014 106.647 2.74014 105.927 2.60681L105.7 3.77348C106.38 3.90681 106.9 4.34014 107.293 5.12014C107.527 5.58681 108.2 5.55348 108.38 5.06014C108.653 4.32014 109.18 3.90681 110.053 3.78014L109.88 2.60681H109.82H109.827Z" fill="white"/>
<path id="Vector_6" d="M108.333 10.8934C107.52 10.2267 106.787 9.88003 106.113 9.88003H105.96C106.247 9.7067 106.527 9.60003 106.627 9.60003H107.667V8.41336H106.627C106.067 8.41336 105.227 8.84003 104.633 9.40003C104.413 9.17336 104.167 8.98003 103.887 8.83336C103.64 8.70003 103.373 8.59336 103.113 8.52003L103.84 7.67336C102.62 6.6267 101.513 6.0867 100.507 6.0867H99.1266C99.3399 5.8467 99.6199 5.6267 99.9599 5.44003C100.5 5.1467 101.147 4.9667 101.52 4.9667H102.873V3.78003H101.52C100.94 3.78003 100.1 4.01336 99.3932 4.40003C98.8532 4.69336 98.3999 5.0667 98.0732 5.5067C97.2066 4.5667 95.7732 3.7867 94.8866 3.7867H93.2332V4.97336H94.8866C95.1399 4.97336 95.7532 5.22003 96.3265 5.5867C96.5599 5.74003 96.7865 5.9067 96.9932 6.09336H95.6999C94.7132 6.09336 93.6199 6.63336 92.3799 7.67336L93.1466 8.58003C94.1932 7.70003 95.0532 7.28003 95.7066 7.28003H96.3599C95.9466 7.60003 95.5932 7.89336 95.2999 8.1667C94.5799 8.82003 94.2266 9.87336 94.1999 11.2867L95.3866 11.3134C95.3999 10.4467 95.5599 9.8067 95.8332 9.37336C96.0866 9.84003 96.5799 10.16 97.1532 10.16C97.2732 10.16 97.3865 10.1467 97.4932 10.12C97.5799 12.6134 98.0332 14.82 98.8599 16.7467L96.2332 16.76V17.9467L106.073 17.9V16.7134L104.433 16.72C104.98 15.2667 105.22 13.58 105.173 11.6667C105.367 11.82 105.553 11.98 105.74 12.1467C105.967 12.3534 106.107 12.7734 106.12 13.4334L107.307 13.4134C107.287 12.46 107.047 11.7334 106.54 11.2734C106.487 11.22 106.427 11.1667 106.367 11.1134C106.693 11.1934 107.107 11.4267 107.593 11.8267L108.347 10.9067L108.333 10.8934ZM97.4599 8.6467C97.4599 8.6467 97.4599 8.65336 97.4599 8.66003C97.4532 8.83336 97.3132 8.9667 97.1399 8.9667C96.9665 8.9667 96.8199 8.82003 96.8199 8.6467C96.8199 8.6467 96.8199 8.63336 96.8199 8.6267C96.8332 8.46003 96.9665 8.3267 97.1399 8.3267C97.3132 8.3267 97.4599 8.47336 97.4599 8.6467ZM103.333 9.88003H103.067C102.693 9.88003 102.307 9.98003 101.907 10.1734L101.86 10.1934C101.807 9.99336 101.733 9.79336 101.647 9.60003H102.433C102.7 9.60003 103.033 9.7067 103.333 9.88003ZM100.507 7.27336C101.153 7.27336 101.98 7.6667 102.96 8.48003C102.773 8.43336 102.593 8.41336 102.44 8.41336H101.58V9.43336C101.5 9.2667 101.413 9.10003 101.313 8.93336C101.08 8.54003 100.72 8.11336 100.247 7.65336C100.153 7.5067 100.033 7.3867 99.8999 7.28003H100.513L100.507 7.27336ZM98.7799 8.20003C98.7799 8.20003 98.7866 8.20003 98.7932 8.19336C98.8466 8.16003 98.9066 8.13336 98.9732 8.13336C99.1532 8.13336 99.2932 8.28003 99.2932 8.45336C99.2932 8.45336 99.2866 8.4867 99.2799 8.50003C99.2532 8.65336 99.1266 8.77336 98.9666 8.77336C98.9466 8.77336 98.9266 8.7667 98.9066 8.76003C98.8932 8.76003 98.8732 8.76003 98.8599 8.75336C98.8332 8.7467 98.8132 8.7267 98.7866 8.71336C98.7866 8.71336 98.7732 8.7067 98.7666 8.70003C98.6932 8.64003 98.6466 8.55336 98.6466 8.45336C98.6466 8.35336 98.6999 8.26003 98.7799 8.20003ZM103.133 16.7134L100.147 16.7267C99.2332 14.8134 98.7466 12.54 98.6666 9.93336C98.7666 9.95336 98.8666 9.9667 98.9732 9.9667C99.4666 9.9667 99.8932 9.7267 100.173 9.3667C100.213 9.42003 100.26 9.48003 100.293 9.53336C100.653 10.1467 100.833 10.7334 100.84 11.3H101.147L101.573 11.8134C102.147 11.34 102.627 11.1067 102.993 11.0734C102.747 11.3334 102.56 11.5734 102.427 11.8067C102.127 12.3334 101.967 12.8667 101.953 13.4067L103.14 13.4267C103.14 13.1 103.247 12.76 103.453 12.4067C103.56 12.2267 103.733 12.0134 103.98 11.7734C104.02 13.7067 103.74 15.36 103.14 16.7334L103.133 16.7134Z" fill="white"/>
</g>
<defs>
<clipPath id="clip0_2080_11728">
<rect width="155.213" height="18" fill="white" transform="translate(0.393311 0.340088)"/>
</clipPath>
</defs>
</svg>
